G04 #@! TF.GenerationSoftware,KiCad,Pcbnew,(5.1.5)-3*
G04 #@! TF.CreationDate,2020-09-10T17:06:43+02:00*
G04 #@! TF.ProjectId,MultipleVoltageSource2.0,4d756c74-6970-46c6-9556-6f6c74616765,rev?*
G04 #@! TF.SameCoordinates,Original*
G04 #@! TF.FileFunction,Soldermask,Bot*
G04 #@! TF.FilePolarity,Negative*
%FSLAX46Y46*%
G04 Gerber Fmt 4.6, Leading zero omitted, Abs format (unit mm)*
G04 Created by KiCad (PCBNEW (5.1.5)-3) date 2020-09-10 17:06:43*
%MOMM*%
%LPD*%
G04 APERTURE LIST*
%ADD10C,0.100000*%
G04 APERTURE END LIST*
D10*
G36*
X106500256Y-142291298D02*
G01*
X106606579Y-142312447D01*
X106725976Y-142361903D01*
X106865878Y-142419852D01*
X106907042Y-142436903D01*
X107177451Y-142617585D01*
X107407415Y-142847549D01*
X107588097Y-143117958D01*
X107712553Y-143418421D01*
X107776000Y-143737391D01*
X107776000Y-144062609D01*
X107712553Y-144381579D01*
X107588097Y-144682042D01*
X107407415Y-144952451D01*
X107177451Y-145182415D01*
X106907042Y-145363097D01*
X106606579Y-145487553D01*
X106500256Y-145508702D01*
X106287611Y-145551000D01*
X105962389Y-145551000D01*
X105749744Y-145508702D01*
X105643421Y-145487553D01*
X105342958Y-145363097D01*
X105072549Y-145182415D01*
X104842585Y-144952451D01*
X104661903Y-144682042D01*
X104537447Y-144381579D01*
X104474000Y-144062609D01*
X104474000Y-143737391D01*
X104537447Y-143418421D01*
X104661903Y-143117958D01*
X104842585Y-142847549D01*
X105072549Y-142617585D01*
X105342958Y-142436903D01*
X105384123Y-142419852D01*
X105524024Y-142361903D01*
X105643421Y-142312447D01*
X105749744Y-142291298D01*
X105962389Y-142249000D01*
X106287611Y-142249000D01*
X106500256Y-142291298D01*
G37*
G36*
X198200256Y-142216298D02*
G01*
X198306579Y-142237447D01*
X198607042Y-142361903D01*
X198877451Y-142542585D01*
X199107415Y-142772549D01*
X199288097Y-143042958D01*
X199412553Y-143343421D01*
X199476000Y-143662391D01*
X199476000Y-143987609D01*
X199412553Y-144306579D01*
X199288097Y-144607042D01*
X199107415Y-144877451D01*
X198877451Y-145107415D01*
X198607042Y-145288097D01*
X198306579Y-145412553D01*
X198200256Y-145433702D01*
X197987611Y-145476000D01*
X197662389Y-145476000D01*
X197449744Y-145433702D01*
X197343421Y-145412553D01*
X197042958Y-145288097D01*
X196772549Y-145107415D01*
X196542585Y-144877451D01*
X196361903Y-144607042D01*
X196237447Y-144306579D01*
X196174000Y-143987609D01*
X196174000Y-143662391D01*
X196237447Y-143343421D01*
X196361903Y-143042958D01*
X196542585Y-142772549D01*
X196772549Y-142542585D01*
X197042958Y-142361903D01*
X197343421Y-142237447D01*
X197449744Y-142216298D01*
X197662389Y-142174000D01*
X197987611Y-142174000D01*
X198200256Y-142216298D01*
G37*
G36*
X163223512Y-140823927D02*
G01*
X163372812Y-140853624D01*
X163536784Y-140921544D01*
X163684354Y-141020147D01*
X163809853Y-141145646D01*
X163908456Y-141293216D01*
X163976376Y-141457188D01*
X164011000Y-141631259D01*
X164011000Y-141808741D01*
X163976376Y-141982812D01*
X163908456Y-142146784D01*
X163809853Y-142294354D01*
X163684354Y-142419853D01*
X163536784Y-142518456D01*
X163372812Y-142586376D01*
X163223512Y-142616073D01*
X163198742Y-142621000D01*
X163021258Y-142621000D01*
X162996488Y-142616073D01*
X162847188Y-142586376D01*
X162683216Y-142518456D01*
X162535646Y-142419853D01*
X162410147Y-142294354D01*
X162311544Y-142146784D01*
X162243624Y-141982812D01*
X162209000Y-141808741D01*
X162209000Y-141631259D01*
X162243624Y-141457188D01*
X162311544Y-141293216D01*
X162410147Y-141145646D01*
X162535646Y-141020147D01*
X162683216Y-140921544D01*
X162847188Y-140853624D01*
X162996488Y-140823927D01*
X163021258Y-140819000D01*
X163198742Y-140819000D01*
X163223512Y-140823927D01*
G37*
G36*
X165763512Y-140823927D02*
G01*
X165912812Y-140853624D01*
X166076784Y-140921544D01*
X166224354Y-141020147D01*
X166349853Y-141145646D01*
X166448456Y-141293216D01*
X166516376Y-141457188D01*
X166551000Y-141631259D01*
X166551000Y-141808741D01*
X166516376Y-141982812D01*
X166448456Y-142146784D01*
X166349853Y-142294354D01*
X166224354Y-142419853D01*
X166076784Y-142518456D01*
X165912812Y-142586376D01*
X165763512Y-142616073D01*
X165738742Y-142621000D01*
X165561258Y-142621000D01*
X165536488Y-142616073D01*
X165387188Y-142586376D01*
X165223216Y-142518456D01*
X165075646Y-142419853D01*
X164950147Y-142294354D01*
X164851544Y-142146784D01*
X164783624Y-141982812D01*
X164749000Y-141808741D01*
X164749000Y-141631259D01*
X164783624Y-141457188D01*
X164851544Y-141293216D01*
X164950147Y-141145646D01*
X165075646Y-141020147D01*
X165223216Y-140921544D01*
X165387188Y-140853624D01*
X165536488Y-140823927D01*
X165561258Y-140819000D01*
X165738742Y-140819000D01*
X165763512Y-140823927D01*
G37*
G36*
X170843512Y-140823927D02*
G01*
X170992812Y-140853624D01*
X171156784Y-140921544D01*
X171304354Y-141020147D01*
X171429853Y-141145646D01*
X171528456Y-141293216D01*
X171596376Y-141457188D01*
X171631000Y-141631259D01*
X171631000Y-141808741D01*
X171596376Y-141982812D01*
X171528456Y-142146784D01*
X171429853Y-142294354D01*
X171304354Y-142419853D01*
X171156784Y-142518456D01*
X170992812Y-142586376D01*
X170843512Y-142616073D01*
X170818742Y-142621000D01*
X170641258Y-142621000D01*
X170616488Y-142616073D01*
X170467188Y-142586376D01*
X170303216Y-142518456D01*
X170155646Y-142419853D01*
X170030147Y-142294354D01*
X169931544Y-142146784D01*
X169863624Y-141982812D01*
X169829000Y-141808741D01*
X169829000Y-141631259D01*
X169863624Y-141457188D01*
X169931544Y-141293216D01*
X170030147Y-141145646D01*
X170155646Y-141020147D01*
X170303216Y-140921544D01*
X170467188Y-140853624D01*
X170616488Y-140823927D01*
X170641258Y-140819000D01*
X170818742Y-140819000D01*
X170843512Y-140823927D01*
G37*
G36*
X173383512Y-140823927D02*
G01*
X173532812Y-140853624D01*
X173696784Y-140921544D01*
X173844354Y-141020147D01*
X173969853Y-141145646D01*
X174068456Y-141293216D01*
X174136376Y-141457188D01*
X174171000Y-141631259D01*
X174171000Y-141808741D01*
X174136376Y-141982812D01*
X174068456Y-142146784D01*
X173969853Y-142294354D01*
X173844354Y-142419853D01*
X173696784Y-142518456D01*
X173532812Y-142586376D01*
X173383512Y-142616073D01*
X173358742Y-142621000D01*
X173181258Y-142621000D01*
X173156488Y-142616073D01*
X173007188Y-142586376D01*
X172843216Y-142518456D01*
X172695646Y-142419853D01*
X172570147Y-142294354D01*
X172471544Y-142146784D01*
X172403624Y-141982812D01*
X172369000Y-141808741D01*
X172369000Y-141631259D01*
X172403624Y-141457188D01*
X172471544Y-141293216D01*
X172570147Y-141145646D01*
X172695646Y-141020147D01*
X172843216Y-140921544D01*
X173007188Y-140853624D01*
X173156488Y-140823927D01*
X173181258Y-140819000D01*
X173358742Y-140819000D01*
X173383512Y-140823927D01*
G37*
G36*
X158931000Y-142621000D02*
G01*
X157129000Y-142621000D01*
X157129000Y-140819000D01*
X158931000Y-140819000D01*
X158931000Y-142621000D01*
G37*
G36*
X160683512Y-140823927D02*
G01*
X160832812Y-140853624D01*
X160996784Y-140921544D01*
X161144354Y-141020147D01*
X161269853Y-141145646D01*
X161368456Y-141293216D01*
X161436376Y-141457188D01*
X161471000Y-141631259D01*
X161471000Y-141808741D01*
X161436376Y-141982812D01*
X161368456Y-142146784D01*
X161269853Y-142294354D01*
X161144354Y-142419853D01*
X160996784Y-142518456D01*
X160832812Y-142586376D01*
X160683512Y-142616073D01*
X160658742Y-142621000D01*
X160481258Y-142621000D01*
X160456488Y-142616073D01*
X160307188Y-142586376D01*
X160143216Y-142518456D01*
X159995646Y-142419853D01*
X159870147Y-142294354D01*
X159771544Y-142146784D01*
X159703624Y-141982812D01*
X159669000Y-141808741D01*
X159669000Y-141631259D01*
X159703624Y-141457188D01*
X159771544Y-141293216D01*
X159870147Y-141145646D01*
X159995646Y-141020147D01*
X160143216Y-140921544D01*
X160307188Y-140853624D01*
X160456488Y-140823927D01*
X160481258Y-140819000D01*
X160658742Y-140819000D01*
X160683512Y-140823927D01*
G37*
G36*
X168303512Y-140823927D02*
G01*
X168452812Y-140853624D01*
X168616784Y-140921544D01*
X168764354Y-141020147D01*
X168889853Y-141145646D01*
X168988456Y-141293216D01*
X169056376Y-141457188D01*
X169091000Y-141631259D01*
X169091000Y-141808741D01*
X169056376Y-141982812D01*
X168988456Y-142146784D01*
X168889853Y-142294354D01*
X168764354Y-142419853D01*
X168616784Y-142518456D01*
X168452812Y-142586376D01*
X168303512Y-142616073D01*
X168278742Y-142621000D01*
X168101258Y-142621000D01*
X168076488Y-142616073D01*
X167927188Y-142586376D01*
X167763216Y-142518456D01*
X167615646Y-142419853D01*
X167490147Y-142294354D01*
X167391544Y-142146784D01*
X167323624Y-141982812D01*
X167289000Y-141808741D01*
X167289000Y-141631259D01*
X167323624Y-141457188D01*
X167391544Y-141293216D01*
X167490147Y-141145646D01*
X167615646Y-141020147D01*
X167763216Y-140921544D01*
X167927188Y-140853624D01*
X168076488Y-140823927D01*
X168101258Y-140819000D01*
X168278742Y-140819000D01*
X168303512Y-140823927D01*
G37*
G36*
X165763512Y-138283927D02*
G01*
X165912812Y-138313624D01*
X166076784Y-138381544D01*
X166224354Y-138480147D01*
X166349853Y-138605646D01*
X166448456Y-138753216D01*
X166516376Y-138917188D01*
X166551000Y-139091259D01*
X166551000Y-139268741D01*
X166516376Y-139442812D01*
X166448456Y-139606784D01*
X166349853Y-139754354D01*
X166224354Y-139879853D01*
X166076784Y-139978456D01*
X165912812Y-140046376D01*
X165763512Y-140076073D01*
X165738742Y-140081000D01*
X165561258Y-140081000D01*
X165536488Y-140076073D01*
X165387188Y-140046376D01*
X165223216Y-139978456D01*
X165075646Y-139879853D01*
X164950147Y-139754354D01*
X164851544Y-139606784D01*
X164783624Y-139442812D01*
X164749000Y-139268741D01*
X164749000Y-139091259D01*
X164783624Y-138917188D01*
X164851544Y-138753216D01*
X164950147Y-138605646D01*
X165075646Y-138480147D01*
X165223216Y-138381544D01*
X165387188Y-138313624D01*
X165536488Y-138283927D01*
X165561258Y-138279000D01*
X165738742Y-138279000D01*
X165763512Y-138283927D01*
G37*
G36*
X163223512Y-138283927D02*
G01*
X163372812Y-138313624D01*
X163536784Y-138381544D01*
X163684354Y-138480147D01*
X163809853Y-138605646D01*
X163908456Y-138753216D01*
X163976376Y-138917188D01*
X164011000Y-139091259D01*
X164011000Y-139268741D01*
X163976376Y-139442812D01*
X163908456Y-139606784D01*
X163809853Y-139754354D01*
X163684354Y-139879853D01*
X163536784Y-139978456D01*
X163372812Y-140046376D01*
X163223512Y-140076073D01*
X163198742Y-140081000D01*
X163021258Y-140081000D01*
X162996488Y-140076073D01*
X162847188Y-140046376D01*
X162683216Y-139978456D01*
X162535646Y-139879853D01*
X162410147Y-139754354D01*
X162311544Y-139606784D01*
X162243624Y-139442812D01*
X162209000Y-139268741D01*
X162209000Y-139091259D01*
X162243624Y-138917188D01*
X162311544Y-138753216D01*
X162410147Y-138605646D01*
X162535646Y-138480147D01*
X162683216Y-138381544D01*
X162847188Y-138313624D01*
X162996488Y-138283927D01*
X163021258Y-138279000D01*
X163198742Y-138279000D01*
X163223512Y-138283927D01*
G37*
G36*
X160683512Y-138283927D02*
G01*
X160832812Y-138313624D01*
X160996784Y-138381544D01*
X161144354Y-138480147D01*
X161269853Y-138605646D01*
X161368456Y-138753216D01*
X161436376Y-138917188D01*
X161471000Y-139091259D01*
X161471000Y-139268741D01*
X161436376Y-139442812D01*
X161368456Y-139606784D01*
X161269853Y-139754354D01*
X161144354Y-139879853D01*
X160996784Y-139978456D01*
X160832812Y-140046376D01*
X160683512Y-140076073D01*
X160658742Y-140081000D01*
X160481258Y-140081000D01*
X160456488Y-140076073D01*
X160307188Y-140046376D01*
X160143216Y-139978456D01*
X159995646Y-139879853D01*
X159870147Y-139754354D01*
X159771544Y-139606784D01*
X159703624Y-139442812D01*
X159669000Y-139268741D01*
X159669000Y-139091259D01*
X159703624Y-138917188D01*
X159771544Y-138753216D01*
X159870147Y-138605646D01*
X159995646Y-138480147D01*
X160143216Y-138381544D01*
X160307188Y-138313624D01*
X160456488Y-138283927D01*
X160481258Y-138279000D01*
X160658742Y-138279000D01*
X160683512Y-138283927D01*
G37*
G36*
X158143512Y-138283927D02*
G01*
X158292812Y-138313624D01*
X158456784Y-138381544D01*
X158604354Y-138480147D01*
X158729853Y-138605646D01*
X158828456Y-138753216D01*
X158896376Y-138917188D01*
X158931000Y-139091259D01*
X158931000Y-139268741D01*
X158896376Y-139442812D01*
X158828456Y-139606784D01*
X158729853Y-139754354D01*
X158604354Y-139879853D01*
X158456784Y-139978456D01*
X158292812Y-140046376D01*
X158143512Y-140076073D01*
X158118742Y-140081000D01*
X157941258Y-140081000D01*
X157916488Y-140076073D01*
X157767188Y-140046376D01*
X157603216Y-139978456D01*
X157455646Y-139879853D01*
X157330147Y-139754354D01*
X157231544Y-139606784D01*
X157163624Y-139442812D01*
X157129000Y-139268741D01*
X157129000Y-139091259D01*
X157163624Y-138917188D01*
X157231544Y-138753216D01*
X157330147Y-138605646D01*
X157455646Y-138480147D01*
X157603216Y-138381544D01*
X157767188Y-138313624D01*
X157916488Y-138283927D01*
X157941258Y-138279000D01*
X158118742Y-138279000D01*
X158143512Y-138283927D01*
G37*
G36*
X170843512Y-138283927D02*
G01*
X170992812Y-138313624D01*
X171156784Y-138381544D01*
X171304354Y-138480147D01*
X171429853Y-138605646D01*
X171528456Y-138753216D01*
X171596376Y-138917188D01*
X171631000Y-139091259D01*
X171631000Y-139268741D01*
X171596376Y-139442812D01*
X171528456Y-139606784D01*
X171429853Y-139754354D01*
X171304354Y-139879853D01*
X171156784Y-139978456D01*
X170992812Y-140046376D01*
X170843512Y-140076073D01*
X170818742Y-140081000D01*
X170641258Y-140081000D01*
X170616488Y-140076073D01*
X170467188Y-140046376D01*
X170303216Y-139978456D01*
X170155646Y-139879853D01*
X170030147Y-139754354D01*
X169931544Y-139606784D01*
X169863624Y-139442812D01*
X169829000Y-139268741D01*
X169829000Y-139091259D01*
X169863624Y-138917188D01*
X169931544Y-138753216D01*
X170030147Y-138605646D01*
X170155646Y-138480147D01*
X170303216Y-138381544D01*
X170467188Y-138313624D01*
X170616488Y-138283927D01*
X170641258Y-138279000D01*
X170818742Y-138279000D01*
X170843512Y-138283927D01*
G37*
G36*
X173383512Y-138283927D02*
G01*
X173532812Y-138313624D01*
X173696784Y-138381544D01*
X173844354Y-138480147D01*
X173969853Y-138605646D01*
X174068456Y-138753216D01*
X174136376Y-138917188D01*
X174171000Y-139091259D01*
X174171000Y-139268741D01*
X174136376Y-139442812D01*
X174068456Y-139606784D01*
X173969853Y-139754354D01*
X173844354Y-139879853D01*
X173696784Y-139978456D01*
X173532812Y-140046376D01*
X173383512Y-140076073D01*
X173358742Y-140081000D01*
X173181258Y-140081000D01*
X173156488Y-140076073D01*
X173007188Y-140046376D01*
X172843216Y-139978456D01*
X172695646Y-139879853D01*
X172570147Y-139754354D01*
X172471544Y-139606784D01*
X172403624Y-139442812D01*
X172369000Y-139268741D01*
X172369000Y-139091259D01*
X172403624Y-138917188D01*
X172471544Y-138753216D01*
X172570147Y-138605646D01*
X172695646Y-138480147D01*
X172843216Y-138381544D01*
X173007188Y-138313624D01*
X173156488Y-138283927D01*
X173181258Y-138279000D01*
X173358742Y-138279000D01*
X173383512Y-138283927D01*
G37*
G36*
X168303512Y-138283927D02*
G01*
X168452812Y-138313624D01*
X168616784Y-138381544D01*
X168764354Y-138480147D01*
X168889853Y-138605646D01*
X168988456Y-138753216D01*
X169056376Y-138917188D01*
X169091000Y-139091259D01*
X169091000Y-139268741D01*
X169056376Y-139442812D01*
X168988456Y-139606784D01*
X168889853Y-139754354D01*
X168764354Y-139879853D01*
X168616784Y-139978456D01*
X168452812Y-140046376D01*
X168303512Y-140076073D01*
X168278742Y-140081000D01*
X168101258Y-140081000D01*
X168076488Y-140076073D01*
X167927188Y-140046376D01*
X167763216Y-139978456D01*
X167615646Y-139879853D01*
X167490147Y-139754354D01*
X167391544Y-139606784D01*
X167323624Y-139442812D01*
X167289000Y-139268741D01*
X167289000Y-139091259D01*
X167323624Y-138917188D01*
X167391544Y-138753216D01*
X167490147Y-138605646D01*
X167615646Y-138480147D01*
X167763216Y-138381544D01*
X167927188Y-138313624D01*
X168076488Y-138283927D01*
X168101258Y-138279000D01*
X168278742Y-138279000D01*
X168303512Y-138283927D01*
G37*
G36*
X103789231Y-134291905D02*
G01*
X103827967Y-134299610D01*
X103856268Y-134311333D01*
X103900944Y-134329838D01*
X103966622Y-134373723D01*
X104022477Y-134429578D01*
X104066362Y-134495256D01*
X104096590Y-134568234D01*
X104112000Y-134645704D01*
X104112000Y-134724696D01*
X104096590Y-134802166D01*
X104066362Y-134875144D01*
X104022477Y-134940822D01*
X103966622Y-134996677D01*
X103900944Y-135040562D01*
X103858195Y-135058269D01*
X103827967Y-135070790D01*
X103789231Y-135078495D01*
X103750496Y-135086200D01*
X103671504Y-135086200D01*
X103632769Y-135078495D01*
X103594033Y-135070790D01*
X103563805Y-135058269D01*
X103521056Y-135040562D01*
X103455378Y-134996677D01*
X103399523Y-134940822D01*
X103355638Y-134875144D01*
X103325410Y-134802166D01*
X103310000Y-134724696D01*
X103310000Y-134645704D01*
X103325410Y-134568234D01*
X103355638Y-134495256D01*
X103399523Y-134429578D01*
X103455378Y-134373723D01*
X103521056Y-134329838D01*
X103565732Y-134311333D01*
X103594033Y-134299610D01*
X103632769Y-134291905D01*
X103671504Y-134284200D01*
X103750496Y-134284200D01*
X103789231Y-134291905D01*
G37*
G36*
X120818259Y-133110460D02*
G01*
X120883844Y-133137626D01*
X120954932Y-133167072D01*
X121077935Y-133249260D01*
X121182540Y-133353865D01*
X121264728Y-133476868D01*
X121264729Y-133476870D01*
X121321340Y-133613541D01*
X121350200Y-133758632D01*
X121350200Y-133906568D01*
X121331641Y-133999871D01*
X121321340Y-134051659D01*
X121264728Y-134188332D01*
X121182540Y-134311335D01*
X121077935Y-134415940D01*
X120954932Y-134498128D01*
X120954931Y-134498129D01*
X120954930Y-134498129D01*
X120818259Y-134554740D01*
X120673168Y-134583600D01*
X120525232Y-134583600D01*
X120380141Y-134554740D01*
X120243470Y-134498129D01*
X120243469Y-134498129D01*
X120243468Y-134498128D01*
X120120465Y-134415940D01*
X120015860Y-134311335D01*
X119933672Y-134188332D01*
X119877060Y-134051659D01*
X119866759Y-133999871D01*
X119848200Y-133906568D01*
X119848200Y-133758632D01*
X119877060Y-133613541D01*
X119933671Y-133476870D01*
X119933672Y-133476868D01*
X120015860Y-133353865D01*
X120120465Y-133249260D01*
X120243468Y-133167072D01*
X120314557Y-133137626D01*
X120380141Y-133110460D01*
X120525232Y-133081600D01*
X120673168Y-133081600D01*
X120818259Y-133110460D01*
G37*
G36*
X107037348Y-132759020D02*
G01*
X107037350Y-132759021D01*
X107037351Y-132759021D01*
X107178574Y-132817517D01*
X107178577Y-132817519D01*
X107305669Y-132902439D01*
X107413761Y-133010531D01*
X107480531Y-133110460D01*
X107498683Y-133137626D01*
X107544923Y-133249260D01*
X107557180Y-133278852D01*
X107587000Y-133428769D01*
X107587000Y-133581631D01*
X107580653Y-133613541D01*
X107557179Y-133731551D01*
X107498683Y-133872774D01*
X107498681Y-133872777D01*
X107413761Y-133999869D01*
X107305669Y-134107961D01*
X107185388Y-134188330D01*
X107178574Y-134192883D01*
X107037351Y-134251379D01*
X107037350Y-134251379D01*
X107037348Y-134251380D01*
X106887431Y-134281200D01*
X106734569Y-134281200D01*
X106584652Y-134251380D01*
X106584650Y-134251379D01*
X106584649Y-134251379D01*
X106443426Y-134192883D01*
X106436612Y-134188330D01*
X106316331Y-134107961D01*
X106208239Y-133999869D01*
X106123319Y-133872777D01*
X106123317Y-133872774D01*
X106064821Y-133731551D01*
X106041348Y-133613541D01*
X106035000Y-133581631D01*
X106035000Y-133428769D01*
X106064820Y-133278852D01*
X106077077Y-133249260D01*
X106123317Y-133137626D01*
X106141469Y-133110460D01*
X106208239Y-133010531D01*
X106316331Y-132902439D01*
X106443423Y-132817519D01*
X106443426Y-132817517D01*
X106584649Y-132759021D01*
X106584650Y-132759021D01*
X106584652Y-132759020D01*
X106734569Y-132729200D01*
X106887431Y-132729200D01*
X107037348Y-132759020D01*
G37*
G36*
X190418228Y-130861703D02*
G01*
X190573100Y-130925853D01*
X190712481Y-131018985D01*
X190831015Y-131137519D01*
X190924147Y-131276900D01*
X190988297Y-131431772D01*
X191021000Y-131596184D01*
X191021000Y-131763816D01*
X190988297Y-131928228D01*
X190924147Y-132083100D01*
X190831015Y-132222481D01*
X190712481Y-132341015D01*
X190573100Y-132434147D01*
X190418228Y-132498297D01*
X190253816Y-132531000D01*
X190086184Y-132531000D01*
X189921772Y-132498297D01*
X189766900Y-132434147D01*
X189627519Y-132341015D01*
X189508985Y-132222481D01*
X189415853Y-132083100D01*
X189351703Y-131928228D01*
X189319000Y-131763816D01*
X189319000Y-131596184D01*
X189351703Y-131431772D01*
X189415853Y-131276900D01*
X189508985Y-131137519D01*
X189627519Y-131018985D01*
X189766900Y-130925853D01*
X189921772Y-130861703D01*
X190086184Y-130829000D01*
X190253816Y-130829000D01*
X190418228Y-130861703D01*
G37*
G36*
X200558228Y-130861703D02*
G01*
X200713100Y-130925853D01*
X200852481Y-131018985D01*
X200971015Y-131137519D01*
X201064147Y-131276900D01*
X201128297Y-131431772D01*
X201161000Y-131596184D01*
X201161000Y-131763816D01*
X201128297Y-131928228D01*
X201064147Y-132083100D01*
X200971015Y-132222481D01*
X200852481Y-132341015D01*
X200713100Y-132434147D01*
X200558228Y-132498297D01*
X200393816Y-132531000D01*
X200226184Y-132531000D01*
X200061772Y-132498297D01*
X199906900Y-132434147D01*
X199767519Y-132341015D01*
X199648985Y-132222481D01*
X199555853Y-132083100D01*
X199491703Y-131928228D01*
X199459000Y-131763816D01*
X199459000Y-131596184D01*
X199491703Y-131431772D01*
X199555853Y-131276900D01*
X199648985Y-131137519D01*
X199767519Y-131018985D01*
X199906900Y-130925853D01*
X200061772Y-130861703D01*
X200226184Y-130829000D01*
X200393816Y-130829000D01*
X200558228Y-130861703D01*
G37*
G36*
X195558228Y-130861703D02*
G01*
X195713100Y-130925853D01*
X195852481Y-131018985D01*
X195971015Y-131137519D01*
X196064147Y-131276900D01*
X196128297Y-131431772D01*
X196161000Y-131596184D01*
X196161000Y-131763816D01*
X196128297Y-131928228D01*
X196064147Y-132083100D01*
X195971015Y-132222481D01*
X195852481Y-132341015D01*
X195713100Y-132434147D01*
X195558228Y-132498297D01*
X195393816Y-132531000D01*
X195226184Y-132531000D01*
X195061772Y-132498297D01*
X194906900Y-132434147D01*
X194767519Y-132341015D01*
X194648985Y-132222481D01*
X194555853Y-132083100D01*
X194491703Y-131928228D01*
X194459000Y-131763816D01*
X194459000Y-131596184D01*
X194491703Y-131431772D01*
X194555853Y-131276900D01*
X194648985Y-131137519D01*
X194767519Y-131018985D01*
X194906900Y-130925853D01*
X195061772Y-130861703D01*
X195226184Y-130829000D01*
X195393816Y-130829000D01*
X195558228Y-130861703D01*
G37*
G36*
X185418228Y-130861703D02*
G01*
X185573100Y-130925853D01*
X185712481Y-131018985D01*
X185831015Y-131137519D01*
X185924147Y-131276900D01*
X185988297Y-131431772D01*
X186021000Y-131596184D01*
X186021000Y-131763816D01*
X185988297Y-131928228D01*
X185924147Y-132083100D01*
X185831015Y-132222481D01*
X185712481Y-132341015D01*
X185573100Y-132434147D01*
X185418228Y-132498297D01*
X185253816Y-132531000D01*
X185086184Y-132531000D01*
X184921772Y-132498297D01*
X184766900Y-132434147D01*
X184627519Y-132341015D01*
X184508985Y-132222481D01*
X184415853Y-132083100D01*
X184351703Y-131928228D01*
X184319000Y-131763816D01*
X184319000Y-131596184D01*
X184351703Y-131431772D01*
X184415853Y-131276900D01*
X184508985Y-131137519D01*
X184627519Y-131018985D01*
X184766900Y-130925853D01*
X184921772Y-130861703D01*
X185086184Y-130829000D01*
X185253816Y-130829000D01*
X185418228Y-130861703D01*
G37*
G36*
X175158228Y-130841703D02*
G01*
X175313100Y-130905853D01*
X175452481Y-130998985D01*
X175571015Y-131117519D01*
X175664147Y-131256900D01*
X175728297Y-131411772D01*
X175761000Y-131576184D01*
X175761000Y-131743816D01*
X175728297Y-131908228D01*
X175664147Y-132063100D01*
X175571015Y-132202481D01*
X175452481Y-132321015D01*
X175313100Y-132414147D01*
X175158228Y-132478297D01*
X174993816Y-132511000D01*
X174826184Y-132511000D01*
X174661772Y-132478297D01*
X174506900Y-132414147D01*
X174367519Y-132321015D01*
X174248985Y-132202481D01*
X174155853Y-132063100D01*
X174091703Y-131908228D01*
X174059000Y-131743816D01*
X174059000Y-131576184D01*
X174091703Y-131411772D01*
X174155853Y-131256900D01*
X174248985Y-131117519D01*
X174367519Y-130998985D01*
X174506900Y-130905853D01*
X174661772Y-130841703D01*
X174826184Y-130809000D01*
X174993816Y-130809000D01*
X175158228Y-130841703D01*
G37*
G36*
X180158228Y-130841703D02*
G01*
X180313100Y-130905853D01*
X180452481Y-130998985D01*
X180571015Y-131117519D01*
X180664147Y-131256900D01*
X180728297Y-131411772D01*
X180761000Y-131576184D01*
X180761000Y-131743816D01*
X180728297Y-131908228D01*
X180664147Y-132063100D01*
X180571015Y-132202481D01*
X180452481Y-132321015D01*
X180313100Y-132414147D01*
X180158228Y-132478297D01*
X179993816Y-132511000D01*
X179826184Y-132511000D01*
X179661772Y-132478297D01*
X179506900Y-132414147D01*
X179367519Y-132321015D01*
X179248985Y-132202481D01*
X179155853Y-132063100D01*
X179091703Y-131908228D01*
X179059000Y-131743816D01*
X179059000Y-131576184D01*
X179091703Y-131411772D01*
X179155853Y-131256900D01*
X179248985Y-131117519D01*
X179367519Y-130998985D01*
X179506900Y-130905853D01*
X179661772Y-130841703D01*
X179826184Y-130809000D01*
X179993816Y-130809000D01*
X180158228Y-130841703D01*
G37*
G36*
X169868228Y-130771703D02*
G01*
X170023100Y-130835853D01*
X170162481Y-130928985D01*
X170281015Y-131047519D01*
X170374147Y-131186900D01*
X170438297Y-131341772D01*
X170471000Y-131506184D01*
X170471000Y-131673816D01*
X170438297Y-131838228D01*
X170374147Y-131993100D01*
X170281015Y-132132481D01*
X170162481Y-132251015D01*
X170023100Y-132344147D01*
X169868228Y-132408297D01*
X169703816Y-132441000D01*
X169536184Y-132441000D01*
X169371772Y-132408297D01*
X169216900Y-132344147D01*
X169077519Y-132251015D01*
X168958985Y-132132481D01*
X168865853Y-131993100D01*
X168801703Y-131838228D01*
X168769000Y-131673816D01*
X168769000Y-131506184D01*
X168801703Y-131341772D01*
X168865853Y-131186900D01*
X168958985Y-131047519D01*
X169077519Y-130928985D01*
X169216900Y-130835853D01*
X169371772Y-130771703D01*
X169536184Y-130739000D01*
X169703816Y-130739000D01*
X169868228Y-130771703D01*
G37*
G36*
X164868228Y-130771703D02*
G01*
X165023100Y-130835853D01*
X165162481Y-130928985D01*
X165281015Y-131047519D01*
X165374147Y-131186900D01*
X165438297Y-131341772D01*
X165471000Y-131506184D01*
X165471000Y-131673816D01*
X165438297Y-131838228D01*
X165374147Y-131993100D01*
X165281015Y-132132481D01*
X165162481Y-132251015D01*
X165023100Y-132344147D01*
X164868228Y-132408297D01*
X164703816Y-132441000D01*
X164536184Y-132441000D01*
X164371772Y-132408297D01*
X164216900Y-132344147D01*
X164077519Y-132251015D01*
X163958985Y-132132481D01*
X163865853Y-131993100D01*
X163801703Y-131838228D01*
X163769000Y-131673816D01*
X163769000Y-131506184D01*
X163801703Y-131341772D01*
X163865853Y-131186900D01*
X163958985Y-131047519D01*
X164077519Y-130928985D01*
X164216900Y-130835853D01*
X164371772Y-130771703D01*
X164536184Y-130739000D01*
X164703816Y-130739000D01*
X164868228Y-130771703D01*
G37*
G36*
X159538228Y-130581703D02*
G01*
X159693100Y-130645853D01*
X159832481Y-130738985D01*
X159951015Y-130857519D01*
X160044147Y-130996900D01*
X160108297Y-131151772D01*
X160141000Y-131316184D01*
X160141000Y-131483816D01*
X160108297Y-131648228D01*
X160044147Y-131803100D01*
X159951015Y-131942481D01*
X159832481Y-132061015D01*
X159693100Y-132154147D01*
X159538228Y-132218297D01*
X159373816Y-132251000D01*
X159206184Y-132251000D01*
X159041772Y-132218297D01*
X158886900Y-132154147D01*
X158747519Y-132061015D01*
X158628985Y-131942481D01*
X158535853Y-131803100D01*
X158471703Y-131648228D01*
X158439000Y-131483816D01*
X158439000Y-131316184D01*
X158471703Y-131151772D01*
X158535853Y-130996900D01*
X158628985Y-130857519D01*
X158747519Y-130738985D01*
X158886900Y-130645853D01*
X159041772Y-130581703D01*
X159206184Y-130549000D01*
X159373816Y-130549000D01*
X159538228Y-130581703D01*
G37*
G36*
X154538228Y-130581703D02*
G01*
X154693100Y-130645853D01*
X154832481Y-130738985D01*
X154951015Y-130857519D01*
X155044147Y-130996900D01*
X155108297Y-131151772D01*
X155141000Y-131316184D01*
X155141000Y-131483816D01*
X155108297Y-131648228D01*
X155044147Y-131803100D01*
X154951015Y-131942481D01*
X154832481Y-132061015D01*
X154693100Y-132154147D01*
X154538228Y-132218297D01*
X154373816Y-132251000D01*
X154206184Y-132251000D01*
X154041772Y-132218297D01*
X153886900Y-132154147D01*
X153747519Y-132061015D01*
X153628985Y-131942481D01*
X153535853Y-131803100D01*
X153471703Y-131648228D01*
X153439000Y-131483816D01*
X153439000Y-131316184D01*
X153471703Y-131151772D01*
X153535853Y-130996900D01*
X153628985Y-130857519D01*
X153747519Y-130738985D01*
X153886900Y-130645853D01*
X154041772Y-130581703D01*
X154206184Y-130549000D01*
X154373816Y-130549000D01*
X154538228Y-130581703D01*
G37*
G36*
X144288228Y-130501703D02*
G01*
X144443100Y-130565853D01*
X144582481Y-130658985D01*
X144701015Y-130777519D01*
X144794147Y-130916900D01*
X144858297Y-131071772D01*
X144891000Y-131236184D01*
X144891000Y-131403816D01*
X144858297Y-131568228D01*
X144794147Y-131723100D01*
X144701015Y-131862481D01*
X144582481Y-131981015D01*
X144443100Y-132074147D01*
X144288228Y-132138297D01*
X144123816Y-132171000D01*
X143956184Y-132171000D01*
X143791772Y-132138297D01*
X143636900Y-132074147D01*
X143497519Y-131981015D01*
X143378985Y-131862481D01*
X143285853Y-131723100D01*
X143221703Y-131568228D01*
X143189000Y-131403816D01*
X143189000Y-131236184D01*
X143221703Y-131071772D01*
X143285853Y-130916900D01*
X143378985Y-130777519D01*
X143497519Y-130658985D01*
X143636900Y-130565853D01*
X143791772Y-130501703D01*
X143956184Y-130469000D01*
X144123816Y-130469000D01*
X144288228Y-130501703D01*
G37*
G36*
X149288228Y-130501703D02*
G01*
X149443100Y-130565853D01*
X149582481Y-130658985D01*
X149701015Y-130777519D01*
X149794147Y-130916900D01*
X149858297Y-131071772D01*
X149891000Y-131236184D01*
X149891000Y-131403816D01*
X149858297Y-131568228D01*
X149794147Y-131723100D01*
X149701015Y-131862481D01*
X149582481Y-131981015D01*
X149443100Y-132074147D01*
X149288228Y-132138297D01*
X149123816Y-132171000D01*
X148956184Y-132171000D01*
X148791772Y-132138297D01*
X148636900Y-132074147D01*
X148497519Y-131981015D01*
X148378985Y-131862481D01*
X148285853Y-131723100D01*
X148221703Y-131568228D01*
X148189000Y-131403816D01*
X148189000Y-131236184D01*
X148221703Y-131071772D01*
X148285853Y-130916900D01*
X148378985Y-130777519D01*
X148497519Y-130658985D01*
X148636900Y-130565853D01*
X148791772Y-130501703D01*
X148956184Y-130469000D01*
X149123816Y-130469000D01*
X149288228Y-130501703D01*
G37*
G36*
X139278228Y-130111703D02*
G01*
X139433100Y-130175853D01*
X139572481Y-130268985D01*
X139691015Y-130387519D01*
X139784147Y-130526900D01*
X139848297Y-130681772D01*
X139881000Y-130846184D01*
X139881000Y-131013816D01*
X139848297Y-131178228D01*
X139784147Y-131333100D01*
X139691015Y-131472481D01*
X139572481Y-131591015D01*
X139433100Y-131684147D01*
X139278228Y-131748297D01*
X139113816Y-131781000D01*
X138946184Y-131781000D01*
X138781772Y-131748297D01*
X138626900Y-131684147D01*
X138487519Y-131591015D01*
X138368985Y-131472481D01*
X138275853Y-131333100D01*
X138211703Y-131178228D01*
X138179000Y-131013816D01*
X138179000Y-130846184D01*
X138211703Y-130681772D01*
X138275853Y-130526900D01*
X138368985Y-130387519D01*
X138487519Y-130268985D01*
X138626900Y-130175853D01*
X138781772Y-130111703D01*
X138946184Y-130079000D01*
X139113816Y-130079000D01*
X139278228Y-130111703D01*
G37*
G36*
X134278228Y-130111703D02*
G01*
X134433100Y-130175853D01*
X134572481Y-130268985D01*
X134691015Y-130387519D01*
X134784147Y-130526900D01*
X134848297Y-130681772D01*
X134881000Y-130846184D01*
X134881000Y-131013816D01*
X134848297Y-131178228D01*
X134784147Y-131333100D01*
X134691015Y-131472481D01*
X134572481Y-131591015D01*
X134433100Y-131684147D01*
X134278228Y-131748297D01*
X134113816Y-131781000D01*
X133946184Y-131781000D01*
X133781772Y-131748297D01*
X133626900Y-131684147D01*
X133487519Y-131591015D01*
X133368985Y-131472481D01*
X133275853Y-131333100D01*
X133211703Y-131178228D01*
X133179000Y-131013816D01*
X133179000Y-130846184D01*
X133211703Y-130681772D01*
X133275853Y-130526900D01*
X133368985Y-130387519D01*
X133487519Y-130268985D01*
X133626900Y-130175853D01*
X133781772Y-130111703D01*
X133946184Y-130079000D01*
X134113816Y-130079000D01*
X134278228Y-130111703D01*
G37*
G36*
X200679059Y-127197860D02*
G01*
X200805226Y-127250120D01*
X200815732Y-127254472D01*
X200938735Y-127336660D01*
X201043340Y-127441265D01*
X201092119Y-127514268D01*
X201125529Y-127564270D01*
X201182140Y-127700941D01*
X201211000Y-127846032D01*
X201211000Y-127993968D01*
X201182140Y-128139059D01*
X201142098Y-128235730D01*
X201125528Y-128275732D01*
X201043340Y-128398735D01*
X200938735Y-128503340D01*
X200815732Y-128585528D01*
X200815731Y-128585529D01*
X200815730Y-128585529D01*
X200679059Y-128642140D01*
X200533968Y-128671000D01*
X200386032Y-128671000D01*
X200240941Y-128642140D01*
X200104270Y-128585529D01*
X200104269Y-128585529D01*
X200104268Y-128585528D01*
X199981265Y-128503340D01*
X199876660Y-128398735D01*
X199794472Y-128275732D01*
X199777903Y-128235730D01*
X199737860Y-128139059D01*
X199709000Y-127993968D01*
X199709000Y-127846032D01*
X199737860Y-127700941D01*
X199794471Y-127564270D01*
X199827881Y-127514268D01*
X199876660Y-127441265D01*
X199981265Y-127336660D01*
X200104268Y-127254472D01*
X200114775Y-127250120D01*
X200240941Y-127197860D01*
X200386032Y-127169000D01*
X200533968Y-127169000D01*
X200679059Y-127197860D01*
G37*
G36*
X193059059Y-127197860D02*
G01*
X193185226Y-127250120D01*
X193195732Y-127254472D01*
X193318735Y-127336660D01*
X193423340Y-127441265D01*
X193472119Y-127514268D01*
X193505529Y-127564270D01*
X193562140Y-127700941D01*
X193591000Y-127846032D01*
X193591000Y-127993968D01*
X193562140Y-128139059D01*
X193522098Y-128235730D01*
X193505528Y-128275732D01*
X193423340Y-128398735D01*
X193318735Y-128503340D01*
X193195732Y-128585528D01*
X193195731Y-128585529D01*
X193195730Y-128585529D01*
X193059059Y-128642140D01*
X192913968Y-128671000D01*
X192766032Y-128671000D01*
X192620941Y-128642140D01*
X192484270Y-128585529D01*
X192484269Y-128585529D01*
X192484268Y-128585528D01*
X192361265Y-128503340D01*
X192256660Y-128398735D01*
X192174472Y-128275732D01*
X192157903Y-128235730D01*
X192117860Y-128139059D01*
X192089000Y-127993968D01*
X192089000Y-127846032D01*
X192117860Y-127700941D01*
X192174471Y-127564270D01*
X192207881Y-127514268D01*
X192256660Y-127441265D01*
X192361265Y-127336660D01*
X192484268Y-127254472D01*
X192494775Y-127250120D01*
X192620941Y-127197860D01*
X192766032Y-127169000D01*
X192913968Y-127169000D01*
X193059059Y-127197860D01*
G37*
G36*
X190509059Y-127157860D02*
G01*
X190605628Y-127197860D01*
X190645732Y-127214472D01*
X190768735Y-127296660D01*
X190873340Y-127401265D01*
X190955528Y-127524268D01*
X190955529Y-127524270D01*
X191012140Y-127660941D01*
X191041000Y-127806032D01*
X191041000Y-127953968D01*
X191012140Y-128099059D01*
X190967955Y-128205732D01*
X190955528Y-128235732D01*
X190873340Y-128358735D01*
X190768735Y-128463340D01*
X190645732Y-128545528D01*
X190645731Y-128545529D01*
X190645730Y-128545529D01*
X190509059Y-128602140D01*
X190363968Y-128631000D01*
X190216032Y-128631000D01*
X190070941Y-128602140D01*
X189934270Y-128545529D01*
X189934269Y-128545529D01*
X189934268Y-128545528D01*
X189811265Y-128463340D01*
X189706660Y-128358735D01*
X189624472Y-128235732D01*
X189612046Y-128205732D01*
X189567860Y-128099059D01*
X189539000Y-127953968D01*
X189539000Y-127806032D01*
X189567860Y-127660941D01*
X189624471Y-127524270D01*
X189624472Y-127524268D01*
X189706660Y-127401265D01*
X189811265Y-127296660D01*
X189934268Y-127214472D01*
X189974373Y-127197860D01*
X190070941Y-127157860D01*
X190216032Y-127129000D01*
X190363968Y-127129000D01*
X190509059Y-127157860D01*
G37*
G36*
X182889059Y-127157860D02*
G01*
X182985628Y-127197860D01*
X183025732Y-127214472D01*
X183148735Y-127296660D01*
X183253340Y-127401265D01*
X183335528Y-127524268D01*
X183335529Y-127524270D01*
X183392140Y-127660941D01*
X183421000Y-127806032D01*
X183421000Y-127953968D01*
X183392140Y-128099059D01*
X183347955Y-128205732D01*
X183335528Y-128235732D01*
X183253340Y-128358735D01*
X183148735Y-128463340D01*
X183025732Y-128545528D01*
X183025731Y-128545529D01*
X183025730Y-128545529D01*
X182889059Y-128602140D01*
X182743968Y-128631000D01*
X182596032Y-128631000D01*
X182450941Y-128602140D01*
X182314270Y-128545529D01*
X182314269Y-128545529D01*
X182314268Y-128545528D01*
X182191265Y-128463340D01*
X182086660Y-128358735D01*
X182004472Y-128235732D01*
X181992046Y-128205732D01*
X181947860Y-128099059D01*
X181919000Y-127953968D01*
X181919000Y-127806032D01*
X181947860Y-127660941D01*
X182004471Y-127524270D01*
X182004472Y-127524268D01*
X182086660Y-127401265D01*
X182191265Y-127296660D01*
X182314268Y-127214472D01*
X182354373Y-127197860D01*
X182450941Y-127157860D01*
X182596032Y-127129000D01*
X182743968Y-127129000D01*
X182889059Y-127157860D01*
G37*
G36*
X180209059Y-127147860D02*
G01*
X180329770Y-127197860D01*
X180345732Y-127204472D01*
X180468735Y-127286660D01*
X180573340Y-127391265D01*
X180655528Y-127514268D01*
X180655529Y-127514270D01*
X180712140Y-127650941D01*
X180741000Y-127796032D01*
X180741000Y-127943968D01*
X180712140Y-128089059D01*
X180672098Y-128185730D01*
X180655528Y-128225732D01*
X180573340Y-128348735D01*
X180468735Y-128453340D01*
X180345732Y-128535528D01*
X180345731Y-128535529D01*
X180345730Y-128535529D01*
X180209059Y-128592140D01*
X180063968Y-128621000D01*
X179916032Y-128621000D01*
X179770941Y-128592140D01*
X179634270Y-128535529D01*
X179634269Y-128535529D01*
X179634268Y-128535528D01*
X179511265Y-128453340D01*
X179406660Y-128348735D01*
X179324472Y-128225732D01*
X179307903Y-128185730D01*
X179267860Y-128089059D01*
X179239000Y-127943968D01*
X179239000Y-127796032D01*
X179267860Y-127650941D01*
X179324471Y-127514270D01*
X179324472Y-127514268D01*
X179406660Y-127391265D01*
X179511265Y-127286660D01*
X179634268Y-127204472D01*
X179650231Y-127197860D01*
X179770941Y-127147860D01*
X179916032Y-127119000D01*
X180063968Y-127119000D01*
X180209059Y-127147860D01*
G37*
G36*
X172589059Y-127147860D02*
G01*
X172709770Y-127197860D01*
X172725732Y-127204472D01*
X172848735Y-127286660D01*
X172953340Y-127391265D01*
X173035528Y-127514268D01*
X173035529Y-127514270D01*
X173092140Y-127650941D01*
X173121000Y-127796032D01*
X173121000Y-127943968D01*
X173092140Y-128089059D01*
X173052098Y-128185730D01*
X173035528Y-128225732D01*
X172953340Y-128348735D01*
X172848735Y-128453340D01*
X172725732Y-128535528D01*
X172725731Y-128535529D01*
X172725730Y-128535529D01*
X172589059Y-128592140D01*
X172443968Y-128621000D01*
X172296032Y-128621000D01*
X172150941Y-128592140D01*
X172014270Y-128535529D01*
X172014269Y-128535529D01*
X172014268Y-128535528D01*
X171891265Y-128453340D01*
X171786660Y-128348735D01*
X171704472Y-128225732D01*
X171687903Y-128185730D01*
X171647860Y-128089059D01*
X171619000Y-127943968D01*
X171619000Y-127796032D01*
X171647860Y-127650941D01*
X171704471Y-127514270D01*
X171704472Y-127514268D01*
X171786660Y-127391265D01*
X171891265Y-127286660D01*
X172014268Y-127204472D01*
X172030231Y-127197860D01*
X172150941Y-127147860D01*
X172296032Y-127119000D01*
X172443968Y-127119000D01*
X172589059Y-127147860D01*
G37*
G36*
X162309059Y-127127860D02*
G01*
X162408380Y-127169000D01*
X162445732Y-127184472D01*
X162568735Y-127266660D01*
X162673340Y-127371265D01*
X162744477Y-127477729D01*
X162755529Y-127494270D01*
X162812140Y-127630941D01*
X162841000Y-127776032D01*
X162841000Y-127923968D01*
X162827076Y-127993968D01*
X162812140Y-128069059D01*
X162755528Y-128205732D01*
X162673340Y-128328735D01*
X162568735Y-128433340D01*
X162445732Y-128515528D01*
X162445731Y-128515529D01*
X162445730Y-128515529D01*
X162309059Y-128572140D01*
X162163968Y-128601000D01*
X162016032Y-128601000D01*
X161870941Y-128572140D01*
X161734270Y-128515529D01*
X161734269Y-128515529D01*
X161734268Y-128515528D01*
X161611265Y-128433340D01*
X161506660Y-128328735D01*
X161424472Y-128205732D01*
X161367860Y-128069059D01*
X161352924Y-127993968D01*
X161339000Y-127923968D01*
X161339000Y-127776032D01*
X161367860Y-127630941D01*
X161424471Y-127494270D01*
X161435523Y-127477729D01*
X161506660Y-127371265D01*
X161611265Y-127266660D01*
X161734268Y-127184472D01*
X161771621Y-127169000D01*
X161870941Y-127127860D01*
X162016032Y-127099000D01*
X162163968Y-127099000D01*
X162309059Y-127127860D01*
G37*
G36*
X169929059Y-127127860D02*
G01*
X170028380Y-127169000D01*
X170065732Y-127184472D01*
X170188735Y-127266660D01*
X170293340Y-127371265D01*
X170364477Y-127477729D01*
X170375529Y-127494270D01*
X170432140Y-127630941D01*
X170461000Y-127776032D01*
X170461000Y-127923968D01*
X170447076Y-127993968D01*
X170432140Y-128069059D01*
X170375528Y-128205732D01*
X170293340Y-128328735D01*
X170188735Y-128433340D01*
X170065732Y-128515528D01*
X170065731Y-128515529D01*
X170065730Y-128515529D01*
X169929059Y-128572140D01*
X169783968Y-128601000D01*
X169636032Y-128601000D01*
X169490941Y-128572140D01*
X169354270Y-128515529D01*
X169354269Y-128515529D01*
X169354268Y-128515528D01*
X169231265Y-128433340D01*
X169126660Y-128328735D01*
X169044472Y-128205732D01*
X168987860Y-128069059D01*
X168972924Y-127993968D01*
X168959000Y-127923968D01*
X168959000Y-127776032D01*
X168987860Y-127630941D01*
X169044471Y-127494270D01*
X169055523Y-127477729D01*
X169126660Y-127371265D01*
X169231265Y-127266660D01*
X169354268Y-127184472D01*
X169391621Y-127169000D01*
X169490941Y-127127860D01*
X169636032Y-127099000D01*
X169783968Y-127099000D01*
X169929059Y-127127860D01*
G37*
G36*
X131739059Y-127127860D02*
G01*
X131838380Y-127169000D01*
X131875732Y-127184472D01*
X131998735Y-127266660D01*
X132103340Y-127371265D01*
X132174477Y-127477729D01*
X132185529Y-127494270D01*
X132242140Y-127630941D01*
X132271000Y-127776032D01*
X132271000Y-127923968D01*
X132257076Y-127993968D01*
X132242140Y-128069059D01*
X132185528Y-128205732D01*
X132103340Y-128328735D01*
X131998735Y-128433340D01*
X131875732Y-128515528D01*
X131875731Y-128515529D01*
X131875730Y-128515529D01*
X131739059Y-128572140D01*
X131593968Y-128601000D01*
X131446032Y-128601000D01*
X131300941Y-128572140D01*
X131164270Y-128515529D01*
X131164269Y-128515529D01*
X131164268Y-128515528D01*
X131041265Y-128433340D01*
X130936660Y-128328735D01*
X130854472Y-128205732D01*
X130797860Y-128069059D01*
X130782924Y-127993968D01*
X130769000Y-127923968D01*
X130769000Y-127776032D01*
X130797860Y-127630941D01*
X130854471Y-127494270D01*
X130865523Y-127477729D01*
X130936660Y-127371265D01*
X131041265Y-127266660D01*
X131164268Y-127184472D01*
X131201621Y-127169000D01*
X131300941Y-127127860D01*
X131446032Y-127099000D01*
X131593968Y-127099000D01*
X131739059Y-127127860D01*
G37*
G36*
X139359059Y-127127860D02*
G01*
X139458380Y-127169000D01*
X139495732Y-127184472D01*
X139618735Y-127266660D01*
X139723340Y-127371265D01*
X139794477Y-127477729D01*
X139805529Y-127494270D01*
X139862140Y-127630941D01*
X139891000Y-127776032D01*
X139891000Y-127923968D01*
X139877076Y-127993968D01*
X139862140Y-128069059D01*
X139805528Y-128205732D01*
X139723340Y-128328735D01*
X139618735Y-128433340D01*
X139495732Y-128515528D01*
X139495731Y-128515529D01*
X139495730Y-128515529D01*
X139359059Y-128572140D01*
X139213968Y-128601000D01*
X139066032Y-128601000D01*
X138920941Y-128572140D01*
X138784270Y-128515529D01*
X138784269Y-128515529D01*
X138784268Y-128515528D01*
X138661265Y-128433340D01*
X138556660Y-128328735D01*
X138474472Y-128205732D01*
X138417860Y-128069059D01*
X138402924Y-127993968D01*
X138389000Y-127923968D01*
X138389000Y-127776032D01*
X138417860Y-127630941D01*
X138474471Y-127494270D01*
X138485523Y-127477729D01*
X138556660Y-127371265D01*
X138661265Y-127266660D01*
X138784268Y-127184472D01*
X138821621Y-127169000D01*
X138920941Y-127127860D01*
X139066032Y-127099000D01*
X139213968Y-127099000D01*
X139359059Y-127127860D01*
G37*
G36*
X149339860Y-127111321D02*
G01*
X149468178Y-127164472D01*
X149476533Y-127167933D01*
X149599536Y-127250121D01*
X149704141Y-127354726D01*
X149786329Y-127477729D01*
X149786330Y-127477731D01*
X149842941Y-127614402D01*
X149871801Y-127759493D01*
X149871801Y-127907429D01*
X149842941Y-128052520D01*
X149787764Y-128185730D01*
X149786329Y-128189193D01*
X149704141Y-128312196D01*
X149599536Y-128416801D01*
X149476533Y-128498989D01*
X149476532Y-128498990D01*
X149476531Y-128498990D01*
X149339860Y-128555601D01*
X149194769Y-128584461D01*
X149046833Y-128584461D01*
X148901742Y-128555601D01*
X148765071Y-128498990D01*
X148765070Y-128498990D01*
X148765069Y-128498989D01*
X148642066Y-128416801D01*
X148537461Y-128312196D01*
X148455273Y-128189193D01*
X148453839Y-128185730D01*
X148398661Y-128052520D01*
X148369801Y-127907429D01*
X148369801Y-127759493D01*
X148398661Y-127614402D01*
X148455272Y-127477731D01*
X148455273Y-127477729D01*
X148537461Y-127354726D01*
X148642066Y-127250121D01*
X148765069Y-127167933D01*
X148773425Y-127164472D01*
X148901742Y-127111321D01*
X149046833Y-127082461D01*
X149194769Y-127082461D01*
X149339860Y-127111321D01*
G37*
G36*
X141719860Y-127111321D02*
G01*
X141848178Y-127164472D01*
X141856533Y-127167933D01*
X141979536Y-127250121D01*
X142084141Y-127354726D01*
X142166329Y-127477729D01*
X142166330Y-127477731D01*
X142222941Y-127614402D01*
X142251801Y-127759493D01*
X142251801Y-127907429D01*
X142222941Y-128052520D01*
X142167764Y-128185730D01*
X142166329Y-128189193D01*
X142084141Y-128312196D01*
X141979536Y-128416801D01*
X141856533Y-128498989D01*
X141856532Y-128498990D01*
X141856531Y-128498990D01*
X141719860Y-128555601D01*
X141574769Y-128584461D01*
X141426833Y-128584461D01*
X141281742Y-128555601D01*
X141145071Y-128498990D01*
X141145070Y-128498990D01*
X141145069Y-128498989D01*
X141022066Y-128416801D01*
X140917461Y-128312196D01*
X140835273Y-128189193D01*
X140833839Y-128185730D01*
X140778661Y-128052520D01*
X140749801Y-127907429D01*
X140749801Y-127759493D01*
X140778661Y-127614402D01*
X140835272Y-127477731D01*
X140835273Y-127477729D01*
X140917461Y-127354726D01*
X141022066Y-127250121D01*
X141145069Y-127167933D01*
X141153425Y-127164472D01*
X141281742Y-127111321D01*
X141426833Y-127082461D01*
X141574769Y-127082461D01*
X141719860Y-127111321D01*
G37*
G36*
X151959059Y-127107860D02*
G01*
X152079770Y-127157860D01*
X152095732Y-127164472D01*
X152218735Y-127246660D01*
X152323340Y-127351265D01*
X152336705Y-127371267D01*
X152405529Y-127474270D01*
X152462140Y-127610941D01*
X152491000Y-127756032D01*
X152491000Y-127903968D01*
X152473098Y-127993967D01*
X152462140Y-128049059D01*
X152405528Y-128185732D01*
X152323340Y-128308735D01*
X152218735Y-128413340D01*
X152095732Y-128495528D01*
X152095731Y-128495529D01*
X152095730Y-128495529D01*
X151959059Y-128552140D01*
X151813968Y-128581000D01*
X151666032Y-128581000D01*
X151520941Y-128552140D01*
X151384270Y-128495529D01*
X151384269Y-128495529D01*
X151384268Y-128495528D01*
X151261265Y-128413340D01*
X151156660Y-128308735D01*
X151074472Y-128185732D01*
X151017860Y-128049059D01*
X151006902Y-127993967D01*
X150989000Y-127903968D01*
X150989000Y-127756032D01*
X151017860Y-127610941D01*
X151074471Y-127474270D01*
X151143295Y-127371267D01*
X151156660Y-127351265D01*
X151261265Y-127246660D01*
X151384268Y-127164472D01*
X151400231Y-127157860D01*
X151520941Y-127107860D01*
X151666032Y-127079000D01*
X151813968Y-127079000D01*
X151959059Y-127107860D01*
G37*
G36*
X159579059Y-127107860D02*
G01*
X159699770Y-127157860D01*
X159715732Y-127164472D01*
X159838735Y-127246660D01*
X159943340Y-127351265D01*
X159956705Y-127371267D01*
X160025529Y-127474270D01*
X160082140Y-127610941D01*
X160111000Y-127756032D01*
X160111000Y-127903968D01*
X160093098Y-127993967D01*
X160082140Y-128049059D01*
X160025528Y-128185732D01*
X159943340Y-128308735D01*
X159838735Y-128413340D01*
X159715732Y-128495528D01*
X159715731Y-128495529D01*
X159715730Y-128495529D01*
X159579059Y-128552140D01*
X159433968Y-128581000D01*
X159286032Y-128581000D01*
X159140941Y-128552140D01*
X159004270Y-128495529D01*
X159004269Y-128495529D01*
X159004268Y-128495528D01*
X158881265Y-128413340D01*
X158776660Y-128308735D01*
X158694472Y-128185732D01*
X158637860Y-128049059D01*
X158626902Y-127993967D01*
X158609000Y-127903968D01*
X158609000Y-127756032D01*
X158637860Y-127610941D01*
X158694471Y-127474270D01*
X158763295Y-127371267D01*
X158776660Y-127351265D01*
X158881265Y-127246660D01*
X159004268Y-127164472D01*
X159020231Y-127157860D01*
X159140941Y-127107860D01*
X159286032Y-127079000D01*
X159433968Y-127079000D01*
X159579059Y-127107860D01*
G37*
G36*
X120818259Y-125490460D02*
G01*
X120954932Y-125547072D01*
X121077935Y-125629260D01*
X121182540Y-125733865D01*
X121264728Y-125856868D01*
X121321340Y-125993541D01*
X121350200Y-126138633D01*
X121350200Y-126286567D01*
X121321340Y-126431659D01*
X121264728Y-126568332D01*
X121182540Y-126691335D01*
X121077935Y-126795940D01*
X120954932Y-126878128D01*
X120954931Y-126878129D01*
X120954930Y-126878129D01*
X120818259Y-126934740D01*
X120673168Y-126963600D01*
X120525232Y-126963600D01*
X120380141Y-126934740D01*
X120243470Y-126878129D01*
X120243469Y-126878129D01*
X120243468Y-126878128D01*
X120120465Y-126795940D01*
X120015860Y-126691335D01*
X119933672Y-126568332D01*
X119877060Y-126431659D01*
X119848200Y-126286567D01*
X119848200Y-126138633D01*
X119877060Y-125993541D01*
X119933672Y-125856868D01*
X120015860Y-125733865D01*
X120120465Y-125629260D01*
X120243468Y-125547072D01*
X120380141Y-125490460D01*
X120525232Y-125461600D01*
X120673168Y-125461600D01*
X120818259Y-125490460D01*
G37*
G36*
X120792859Y-123229860D02*
G01*
X120929532Y-123286472D01*
X121052535Y-123368660D01*
X121157140Y-123473265D01*
X121189393Y-123521535D01*
X121239329Y-123596270D01*
X121251702Y-123626141D01*
X121295940Y-123732941D01*
X121324800Y-123878033D01*
X121324800Y-124025967D01*
X121295940Y-124171059D01*
X121239328Y-124307732D01*
X121157140Y-124430735D01*
X121052535Y-124535340D01*
X120929532Y-124617528D01*
X120929531Y-124617529D01*
X120929530Y-124617529D01*
X120792859Y-124674140D01*
X120647768Y-124703000D01*
X120499832Y-124703000D01*
X120354741Y-124674140D01*
X120218070Y-124617529D01*
X120218069Y-124617529D01*
X120218068Y-124617528D01*
X120095065Y-124535340D01*
X119990460Y-124430735D01*
X119908272Y-124307732D01*
X119851660Y-124171059D01*
X119822800Y-124025967D01*
X119822800Y-123878033D01*
X119851660Y-123732941D01*
X119895898Y-123626141D01*
X119908271Y-123596270D01*
X119958207Y-123521535D01*
X119990460Y-123473265D01*
X120095065Y-123368660D01*
X120218068Y-123286472D01*
X120354741Y-123229860D01*
X120499832Y-123201000D01*
X120647768Y-123201000D01*
X120792859Y-123229860D01*
G37*
G36*
X135035859Y-122320660D02*
G01*
X135172532Y-122377272D01*
X135295535Y-122459460D01*
X135400140Y-122564065D01*
X135400141Y-122564067D01*
X135482329Y-122687070D01*
X135538940Y-122823741D01*
X135567800Y-122968832D01*
X135567800Y-123116768D01*
X135538940Y-123261859D01*
X135494702Y-123368660D01*
X135482328Y-123398532D01*
X135400140Y-123521535D01*
X135295535Y-123626140D01*
X135172532Y-123708328D01*
X135172531Y-123708329D01*
X135172530Y-123708329D01*
X135035859Y-123764940D01*
X134890768Y-123793800D01*
X134742832Y-123793800D01*
X134597741Y-123764940D01*
X134461070Y-123708329D01*
X134461069Y-123708329D01*
X134461068Y-123708328D01*
X134338065Y-123626140D01*
X134233460Y-123521535D01*
X134151272Y-123398532D01*
X134138899Y-123368660D01*
X134094660Y-123261859D01*
X134065800Y-123116768D01*
X134065800Y-122968832D01*
X134094660Y-122823741D01*
X134151271Y-122687070D01*
X134233459Y-122564067D01*
X134233460Y-122564065D01*
X134338065Y-122459460D01*
X134461068Y-122377272D01*
X134597741Y-122320660D01*
X134742832Y-122291800D01*
X134890768Y-122291800D01*
X135035859Y-122320660D01*
G37*
G36*
X132325859Y-122320660D02*
G01*
X132462532Y-122377272D01*
X132585535Y-122459460D01*
X132690140Y-122564065D01*
X132690141Y-122564067D01*
X132772329Y-122687070D01*
X132828940Y-122823741D01*
X132857800Y-122968832D01*
X132857800Y-123116768D01*
X132828940Y-123261859D01*
X132784702Y-123368660D01*
X132772328Y-123398532D01*
X132690140Y-123521535D01*
X132585535Y-123626140D01*
X132462532Y-123708328D01*
X132462531Y-123708329D01*
X132462530Y-123708329D01*
X132325859Y-123764940D01*
X132180768Y-123793800D01*
X132032832Y-123793800D01*
X131887741Y-123764940D01*
X131751070Y-123708329D01*
X131751069Y-123708329D01*
X131751068Y-123708328D01*
X131628065Y-123626140D01*
X131523460Y-123521535D01*
X131441272Y-123398532D01*
X131428899Y-123368660D01*
X131384660Y-123261859D01*
X131355800Y-123116768D01*
X131355800Y-122968832D01*
X131384660Y-122823741D01*
X131441271Y-122687070D01*
X131523459Y-122564067D01*
X131523460Y-122564065D01*
X131628065Y-122459460D01*
X131751068Y-122377272D01*
X131887741Y-122320660D01*
X132032832Y-122291800D01*
X132180768Y-122291800D01*
X132325859Y-122320660D01*
G37*
G36*
X142655859Y-122320660D02*
G01*
X142792532Y-122377272D01*
X142915535Y-122459460D01*
X143020140Y-122564065D01*
X143020141Y-122564067D01*
X143102329Y-122687070D01*
X143158940Y-122823741D01*
X143187800Y-122968832D01*
X143187800Y-123116768D01*
X143158940Y-123261859D01*
X143114702Y-123368660D01*
X143102328Y-123398532D01*
X143020140Y-123521535D01*
X142915535Y-123626140D01*
X142792532Y-123708328D01*
X142792531Y-123708329D01*
X142792530Y-123708329D01*
X142655859Y-123764940D01*
X142510768Y-123793800D01*
X142362832Y-123793800D01*
X142217741Y-123764940D01*
X142081070Y-123708329D01*
X142081069Y-123708329D01*
X142081068Y-123708328D01*
X141958065Y-123626140D01*
X141853460Y-123521535D01*
X141771272Y-123398532D01*
X141758899Y-123368660D01*
X141714660Y-123261859D01*
X141685800Y-123116768D01*
X141685800Y-122968832D01*
X141714660Y-122823741D01*
X141771271Y-122687070D01*
X141853459Y-122564067D01*
X141853460Y-122564065D01*
X141958065Y-122459460D01*
X142081068Y-122377272D01*
X142217741Y-122320660D01*
X142362832Y-122291800D01*
X142510768Y-122291800D01*
X142655859Y-122320660D01*
G37*
G36*
X124705859Y-122320660D02*
G01*
X124842532Y-122377272D01*
X124965535Y-122459460D01*
X125070140Y-122564065D01*
X125070141Y-122564067D01*
X125152329Y-122687070D01*
X125208940Y-122823741D01*
X125237800Y-122968832D01*
X125237800Y-123116768D01*
X125208940Y-123261859D01*
X125164702Y-123368660D01*
X125152328Y-123398532D01*
X125070140Y-123521535D01*
X124965535Y-123626140D01*
X124842532Y-123708328D01*
X124842531Y-123708329D01*
X124842530Y-123708329D01*
X124705859Y-123764940D01*
X124560768Y-123793800D01*
X124412832Y-123793800D01*
X124267741Y-123764940D01*
X124131070Y-123708329D01*
X124131069Y-123708329D01*
X124131068Y-123708328D01*
X124008065Y-123626140D01*
X123903460Y-123521535D01*
X123821272Y-123398532D01*
X123808899Y-123368660D01*
X123764660Y-123261859D01*
X123735800Y-123116768D01*
X123735800Y-122968832D01*
X123764660Y-122823741D01*
X123821271Y-122687070D01*
X123903459Y-122564067D01*
X123903460Y-122564065D01*
X124008065Y-122459460D01*
X124131068Y-122377272D01*
X124267741Y-122320660D01*
X124412832Y-122291800D01*
X124560768Y-122291800D01*
X124705859Y-122320660D01*
G37*
G36*
X142591985Y-118547860D02*
G01*
X142642259Y-118557860D01*
X142778932Y-118614472D01*
X142901935Y-118696660D01*
X143006540Y-118801265D01*
X143088728Y-118924268D01*
X143145340Y-119060941D01*
X143174200Y-119206033D01*
X143174200Y-119353967D01*
X143145340Y-119499059D01*
X143088728Y-119635732D01*
X143006540Y-119758735D01*
X142901935Y-119863340D01*
X142778932Y-119945528D01*
X142778931Y-119945529D01*
X142778930Y-119945529D01*
X142642259Y-120002140D01*
X142497168Y-120031000D01*
X142349232Y-120031000D01*
X142204141Y-120002140D01*
X142067470Y-119945529D01*
X142067469Y-119945529D01*
X142067468Y-119945528D01*
X141944465Y-119863340D01*
X141839860Y-119758735D01*
X141757672Y-119635732D01*
X141701060Y-119499059D01*
X141672200Y-119353967D01*
X141672200Y-119206033D01*
X141701060Y-119060941D01*
X141757672Y-118924268D01*
X141839860Y-118801265D01*
X141944465Y-118696660D01*
X142067468Y-118614472D01*
X142204141Y-118557860D01*
X142254415Y-118547860D01*
X142349232Y-118529000D01*
X142497168Y-118529000D01*
X142591985Y-118547860D01*
G37*
G36*
X134971985Y-118547860D02*
G01*
X135022259Y-118557860D01*
X135158932Y-118614472D01*
X135281935Y-118696660D01*
X135386540Y-118801265D01*
X135468728Y-118924268D01*
X135525340Y-119060941D01*
X135554200Y-119206033D01*
X135554200Y-119353967D01*
X135525340Y-119499059D01*
X135468728Y-119635732D01*
X135386540Y-119758735D01*
X135281935Y-119863340D01*
X135158932Y-119945528D01*
X135158931Y-119945529D01*
X135158930Y-119945529D01*
X135022259Y-120002140D01*
X134877168Y-120031000D01*
X134729232Y-120031000D01*
X134584141Y-120002140D01*
X134447470Y-119945529D01*
X134447469Y-119945529D01*
X134447468Y-119945528D01*
X134324465Y-119863340D01*
X134219860Y-119758735D01*
X134137672Y-119635732D01*
X134081060Y-119499059D01*
X134052200Y-119353967D01*
X134052200Y-119206033D01*
X134081060Y-119060941D01*
X134137672Y-118924268D01*
X134219860Y-118801265D01*
X134324465Y-118696660D01*
X134447468Y-118614472D01*
X134584141Y-118557860D01*
X134634415Y-118547860D01*
X134729232Y-118529000D01*
X134877168Y-118529000D01*
X134971985Y-118547860D01*
G37*
G36*
X132322259Y-118547860D02*
G01*
X132458932Y-118604472D01*
X132581935Y-118686660D01*
X132686540Y-118791265D01*
X132768728Y-118914268D01*
X132825340Y-119050941D01*
X132854200Y-119196033D01*
X132854200Y-119343967D01*
X132825340Y-119489059D01*
X132768728Y-119625732D01*
X132686540Y-119748735D01*
X132581935Y-119853340D01*
X132458932Y-119935528D01*
X132458931Y-119935529D01*
X132458930Y-119935529D01*
X132322259Y-119992140D01*
X132177168Y-120021000D01*
X132029232Y-120021000D01*
X131884141Y-119992140D01*
X131747470Y-119935529D01*
X131747469Y-119935529D01*
X131747468Y-119935528D01*
X131624465Y-119853340D01*
X131519860Y-119748735D01*
X131437672Y-119625732D01*
X131381060Y-119489059D01*
X131352200Y-119343967D01*
X131352200Y-119196033D01*
X131381060Y-119050941D01*
X131437672Y-118914268D01*
X131519860Y-118791265D01*
X131624465Y-118686660D01*
X131747468Y-118604472D01*
X131884141Y-118547860D01*
X132029232Y-118519000D01*
X132177168Y-118519000D01*
X132322259Y-118547860D01*
G37*
G36*
X124702259Y-118547860D02*
G01*
X124838932Y-118604472D01*
X124961935Y-118686660D01*
X125066540Y-118791265D01*
X125148728Y-118914268D01*
X125205340Y-119050941D01*
X125234200Y-119196033D01*
X125234200Y-119343967D01*
X125205340Y-119489059D01*
X125148728Y-119625732D01*
X125066540Y-119748735D01*
X124961935Y-119853340D01*
X124838932Y-119935528D01*
X124838931Y-119935529D01*
X124838930Y-119935529D01*
X124702259Y-119992140D01*
X124557168Y-120021000D01*
X124409232Y-120021000D01*
X124264141Y-119992140D01*
X124127470Y-119935529D01*
X124127469Y-119935529D01*
X124127468Y-119935528D01*
X124004465Y-119853340D01*
X123899860Y-119748735D01*
X123817672Y-119625732D01*
X123761060Y-119489059D01*
X123732200Y-119343967D01*
X123732200Y-119196033D01*
X123761060Y-119050941D01*
X123817672Y-118914268D01*
X123899860Y-118791265D01*
X124004465Y-118686660D01*
X124127468Y-118604472D01*
X124264141Y-118547860D01*
X124409232Y-118519000D01*
X124557168Y-118519000D01*
X124702259Y-118547860D01*
G37*
G36*
X120792859Y-115609860D02*
G01*
X120929532Y-115666472D01*
X121052535Y-115748660D01*
X121157140Y-115853265D01*
X121239328Y-115976268D01*
X121295940Y-116112941D01*
X121324800Y-116258033D01*
X121324800Y-116405967D01*
X121295940Y-116551059D01*
X121239328Y-116687732D01*
X121157140Y-116810735D01*
X121052535Y-116915340D01*
X120929532Y-116997528D01*
X120929531Y-116997529D01*
X120929530Y-116997529D01*
X120792859Y-117054140D01*
X120647768Y-117083000D01*
X120499832Y-117083000D01*
X120354741Y-117054140D01*
X120218070Y-116997529D01*
X120218069Y-116997529D01*
X120218068Y-116997528D01*
X120095065Y-116915340D01*
X119990460Y-116810735D01*
X119908272Y-116687732D01*
X119851660Y-116551059D01*
X119822800Y-116405967D01*
X119822800Y-116258033D01*
X119851660Y-116112941D01*
X119908272Y-115976268D01*
X119990460Y-115853265D01*
X120095065Y-115748660D01*
X120218068Y-115666472D01*
X120354741Y-115609860D01*
X120499832Y-115581000D01*
X120647768Y-115581000D01*
X120792859Y-115609860D01*
G37*
G36*
X107037348Y-114059020D02*
G01*
X107037350Y-114059021D01*
X107037351Y-114059021D01*
X107178574Y-114117517D01*
X107178577Y-114117519D01*
X107305669Y-114202439D01*
X107413761Y-114310531D01*
X107470689Y-114395730D01*
X107498683Y-114437626D01*
X107557179Y-114578849D01*
X107587000Y-114728771D01*
X107587000Y-114881629D01*
X107557179Y-115031551D01*
X107498683Y-115172774D01*
X107498681Y-115172777D01*
X107413761Y-115299869D01*
X107305669Y-115407961D01*
X107178577Y-115492881D01*
X107178574Y-115492883D01*
X107037351Y-115551379D01*
X107037350Y-115551379D01*
X107037348Y-115551380D01*
X106887431Y-115581200D01*
X106734569Y-115581200D01*
X106584652Y-115551380D01*
X106584650Y-115551379D01*
X106584649Y-115551379D01*
X106443426Y-115492883D01*
X106443423Y-115492881D01*
X106316331Y-115407961D01*
X106208239Y-115299869D01*
X106123319Y-115172777D01*
X106123317Y-115172774D01*
X106064821Y-115031551D01*
X106035000Y-114881629D01*
X106035000Y-114728771D01*
X106064821Y-114578849D01*
X106123317Y-114437626D01*
X106151311Y-114395730D01*
X106208239Y-114310531D01*
X106316331Y-114202439D01*
X106443423Y-114117519D01*
X106443426Y-114117517D01*
X106584649Y-114059021D01*
X106584650Y-114059021D01*
X106584652Y-114059020D01*
X106734569Y-114029200D01*
X106887431Y-114029200D01*
X107037348Y-114059020D01*
G37*
G36*
X131019059Y-113317860D02*
G01*
X131155732Y-113374472D01*
X131278735Y-113456660D01*
X131383340Y-113561265D01*
X131465528Y-113684268D01*
X131465529Y-113684270D01*
X131522140Y-113820941D01*
X131551000Y-113966032D01*
X131551000Y-114113968D01*
X131533402Y-114202439D01*
X131522140Y-114259059D01*
X131465528Y-114395732D01*
X131383340Y-114518735D01*
X131278735Y-114623340D01*
X131155732Y-114705528D01*
X131155731Y-114705529D01*
X131155730Y-114705529D01*
X131019059Y-114762140D01*
X130873968Y-114791000D01*
X130726032Y-114791000D01*
X130580941Y-114762140D01*
X130444270Y-114705529D01*
X130444269Y-114705529D01*
X130444268Y-114705528D01*
X130321265Y-114623340D01*
X130216660Y-114518735D01*
X130134472Y-114395732D01*
X130077860Y-114259059D01*
X130066598Y-114202439D01*
X130049000Y-114113968D01*
X130049000Y-113966032D01*
X130077860Y-113820941D01*
X130134471Y-113684270D01*
X130134472Y-113684268D01*
X130216660Y-113561265D01*
X130321265Y-113456660D01*
X130444268Y-113374472D01*
X130580941Y-113317860D01*
X130726032Y-113289000D01*
X130873968Y-113289000D01*
X131019059Y-113317860D01*
G37*
G36*
X138639059Y-113317860D02*
G01*
X138775732Y-113374472D01*
X138898735Y-113456660D01*
X139003340Y-113561265D01*
X139085528Y-113684268D01*
X139085529Y-113684270D01*
X139142140Y-113820941D01*
X139171000Y-113966032D01*
X139171000Y-114113968D01*
X139153402Y-114202439D01*
X139142140Y-114259059D01*
X139085528Y-114395732D01*
X139003340Y-114518735D01*
X138898735Y-114623340D01*
X138775732Y-114705528D01*
X138775731Y-114705529D01*
X138775730Y-114705529D01*
X138639059Y-114762140D01*
X138493968Y-114791000D01*
X138346032Y-114791000D01*
X138200941Y-114762140D01*
X138064270Y-114705529D01*
X138064269Y-114705529D01*
X138064268Y-114705528D01*
X137941265Y-114623340D01*
X137836660Y-114518735D01*
X137754472Y-114395732D01*
X137697860Y-114259059D01*
X137686598Y-114202439D01*
X137669000Y-114113968D01*
X137669000Y-113966032D01*
X137697860Y-113820941D01*
X137754471Y-113684270D01*
X137754472Y-113684268D01*
X137836660Y-113561265D01*
X137941265Y-113456660D01*
X138064268Y-113374472D01*
X138200941Y-113317860D01*
X138346032Y-113289000D01*
X138493968Y-113289000D01*
X138639059Y-113317860D01*
G37*
G36*
X149609059Y-113307860D02*
G01*
X149623214Y-113313723D01*
X149745732Y-113364472D01*
X149868735Y-113446660D01*
X149973340Y-113551265D01*
X150049132Y-113664696D01*
X150055529Y-113674270D01*
X150112140Y-113810941D01*
X150141000Y-113956032D01*
X150141000Y-114103968D01*
X150121413Y-114202439D01*
X150112140Y-114249059D01*
X150055528Y-114385732D01*
X149973340Y-114508735D01*
X149868735Y-114613340D01*
X149745732Y-114695528D01*
X149745731Y-114695529D01*
X149745730Y-114695529D01*
X149609059Y-114752140D01*
X149463968Y-114781000D01*
X149316032Y-114781000D01*
X149170941Y-114752140D01*
X149034270Y-114695529D01*
X149034269Y-114695529D01*
X149034268Y-114695528D01*
X148911265Y-114613340D01*
X148806660Y-114508735D01*
X148724472Y-114385732D01*
X148667860Y-114249059D01*
X148658587Y-114202439D01*
X148639000Y-114103968D01*
X148639000Y-113956032D01*
X148667860Y-113810941D01*
X148724471Y-113674270D01*
X148730868Y-113664696D01*
X148806660Y-113551265D01*
X148911265Y-113446660D01*
X149034268Y-113364472D01*
X149156787Y-113313723D01*
X149170941Y-113307860D01*
X149316032Y-113279000D01*
X149463968Y-113279000D01*
X149609059Y-113307860D01*
G37*
G36*
X141989059Y-113307860D02*
G01*
X142003214Y-113313723D01*
X142125732Y-113364472D01*
X142248735Y-113446660D01*
X142353340Y-113551265D01*
X142429132Y-113664696D01*
X142435529Y-113674270D01*
X142492140Y-113810941D01*
X142521000Y-113956032D01*
X142521000Y-114103968D01*
X142501413Y-114202439D01*
X142492140Y-114249059D01*
X142435528Y-114385732D01*
X142353340Y-114508735D01*
X142248735Y-114613340D01*
X142125732Y-114695528D01*
X142125731Y-114695529D01*
X142125730Y-114695529D01*
X141989059Y-114752140D01*
X141843968Y-114781000D01*
X141696032Y-114781000D01*
X141550941Y-114752140D01*
X141414270Y-114695529D01*
X141414269Y-114695529D01*
X141414268Y-114695528D01*
X141291265Y-114613340D01*
X141186660Y-114508735D01*
X141104472Y-114385732D01*
X141047860Y-114249059D01*
X141038587Y-114202439D01*
X141019000Y-114103968D01*
X141019000Y-113956032D01*
X141047860Y-113810941D01*
X141104471Y-113674270D01*
X141110868Y-113664696D01*
X141186660Y-113551265D01*
X141291265Y-113446660D01*
X141414268Y-113364472D01*
X141536787Y-113313723D01*
X141550941Y-113307860D01*
X141696032Y-113279000D01*
X141843968Y-113279000D01*
X141989059Y-113307860D01*
G37*
G36*
X120679059Y-113307860D02*
G01*
X120693214Y-113313723D01*
X120815732Y-113364472D01*
X120938735Y-113446660D01*
X121043340Y-113551265D01*
X121119132Y-113664696D01*
X121125529Y-113674270D01*
X121182140Y-113810941D01*
X121211000Y-113956032D01*
X121211000Y-114103968D01*
X121191413Y-114202439D01*
X121182140Y-114249059D01*
X121125528Y-114385732D01*
X121043340Y-114508735D01*
X120938735Y-114613340D01*
X120815732Y-114695528D01*
X120815731Y-114695529D01*
X120815730Y-114695529D01*
X120679059Y-114752140D01*
X120533968Y-114781000D01*
X120386032Y-114781000D01*
X120240941Y-114752140D01*
X120104270Y-114695529D01*
X120104269Y-114695529D01*
X120104268Y-114695528D01*
X119981265Y-114613340D01*
X119876660Y-114508735D01*
X119794472Y-114385732D01*
X119737860Y-114249059D01*
X119728587Y-114202439D01*
X119709000Y-114103968D01*
X119709000Y-113956032D01*
X119737860Y-113810941D01*
X119794471Y-113674270D01*
X119800868Y-113664696D01*
X119876660Y-113551265D01*
X119981265Y-113446660D01*
X120104268Y-113364472D01*
X120226787Y-113313723D01*
X120240941Y-113307860D01*
X120386032Y-113279000D01*
X120533968Y-113279000D01*
X120679059Y-113307860D01*
G37*
G36*
X128299059Y-113307860D02*
G01*
X128313214Y-113313723D01*
X128435732Y-113364472D01*
X128558735Y-113446660D01*
X128663340Y-113551265D01*
X128739132Y-113664696D01*
X128745529Y-113674270D01*
X128802140Y-113810941D01*
X128831000Y-113956032D01*
X128831000Y-114103968D01*
X128811413Y-114202439D01*
X128802140Y-114249059D01*
X128745528Y-114385732D01*
X128663340Y-114508735D01*
X128558735Y-114613340D01*
X128435732Y-114695528D01*
X128435731Y-114695529D01*
X128435730Y-114695529D01*
X128299059Y-114752140D01*
X128153968Y-114781000D01*
X128006032Y-114781000D01*
X127860941Y-114752140D01*
X127724270Y-114695529D01*
X127724269Y-114695529D01*
X127724268Y-114695528D01*
X127601265Y-114613340D01*
X127496660Y-114508735D01*
X127414472Y-114385732D01*
X127357860Y-114249059D01*
X127348587Y-114202439D01*
X127329000Y-114103968D01*
X127329000Y-113956032D01*
X127357860Y-113810941D01*
X127414471Y-113674270D01*
X127420868Y-113664696D01*
X127496660Y-113551265D01*
X127601265Y-113446660D01*
X127724268Y-113364472D01*
X127846787Y-113313723D01*
X127860941Y-113307860D01*
X128006032Y-113279000D01*
X128153968Y-113279000D01*
X128299059Y-113307860D01*
G37*
G36*
X103789231Y-113231905D02*
G01*
X103827967Y-113239610D01*
X103858195Y-113252131D01*
X103900944Y-113269838D01*
X103966622Y-113313723D01*
X104022477Y-113369578D01*
X104066362Y-113435256D01*
X104096590Y-113508234D01*
X104112000Y-113585704D01*
X104112000Y-113664696D01*
X104096590Y-113742166D01*
X104066362Y-113815144D01*
X104022477Y-113880822D01*
X103966622Y-113936677D01*
X103900944Y-113980562D01*
X103858195Y-113998269D01*
X103827967Y-114010790D01*
X103789231Y-114018495D01*
X103750496Y-114026200D01*
X103671504Y-114026200D01*
X103632769Y-114018495D01*
X103594033Y-114010790D01*
X103563805Y-113998269D01*
X103521056Y-113980562D01*
X103455378Y-113936677D01*
X103399523Y-113880822D01*
X103355638Y-113815144D01*
X103325410Y-113742166D01*
X103310000Y-113664696D01*
X103310000Y-113585704D01*
X103325410Y-113508234D01*
X103355638Y-113435256D01*
X103399523Y-113369578D01*
X103455378Y-113313723D01*
X103521056Y-113269838D01*
X103563805Y-113252131D01*
X103594033Y-113239610D01*
X103632769Y-113231905D01*
X103671504Y-113224200D01*
X103750496Y-113224200D01*
X103789231Y-113231905D01*
G37*
G36*
X150024400Y-109994000D02*
G01*
X148222400Y-109994000D01*
X148222400Y-108192000D01*
X150024400Y-108192000D01*
X150024400Y-109994000D01*
G37*
G36*
X106213228Y-106596703D02*
G01*
X106368100Y-106660853D01*
X106507481Y-106753985D01*
X106626015Y-106872519D01*
X106719147Y-107011900D01*
X106783297Y-107166772D01*
X106816000Y-107331184D01*
X106816000Y-107498816D01*
X106783297Y-107663228D01*
X106719147Y-107818100D01*
X106626015Y-107957481D01*
X106507481Y-108076015D01*
X106368100Y-108169147D01*
X106213228Y-108233297D01*
X106048816Y-108266000D01*
X105881184Y-108266000D01*
X105716772Y-108233297D01*
X105561900Y-108169147D01*
X105422519Y-108076015D01*
X105303985Y-107957481D01*
X105210853Y-107818100D01*
X105146703Y-107663228D01*
X105114000Y-107498816D01*
X105114000Y-107331184D01*
X105146703Y-107166772D01*
X105210853Y-107011900D01*
X105303985Y-106872519D01*
X105422519Y-106753985D01*
X105561900Y-106660853D01*
X105716772Y-106596703D01*
X105881184Y-106564000D01*
X106048816Y-106564000D01*
X106213228Y-106596703D01*
G37*
G36*
X118913228Y-106596703D02*
G01*
X119068100Y-106660853D01*
X119207481Y-106753985D01*
X119326015Y-106872519D01*
X119419147Y-107011900D01*
X119483297Y-107166772D01*
X119516000Y-107331184D01*
X119516000Y-107498816D01*
X119483297Y-107663228D01*
X119419147Y-107818100D01*
X119326015Y-107957481D01*
X119207481Y-108076015D01*
X119068100Y-108169147D01*
X118913228Y-108233297D01*
X118748816Y-108266000D01*
X118581184Y-108266000D01*
X118416772Y-108233297D01*
X118261900Y-108169147D01*
X118122519Y-108076015D01*
X118003985Y-107957481D01*
X117910853Y-107818100D01*
X117846703Y-107663228D01*
X117814000Y-107498816D01*
X117814000Y-107331184D01*
X117846703Y-107166772D01*
X117910853Y-107011900D01*
X118003985Y-106872519D01*
X118122519Y-106753985D01*
X118261900Y-106660853D01*
X118416772Y-106596703D01*
X118581184Y-106564000D01*
X118748816Y-106564000D01*
X118913228Y-106596703D01*
G37*
G36*
X131613228Y-106596703D02*
G01*
X131768100Y-106660853D01*
X131907481Y-106753985D01*
X132026015Y-106872519D01*
X132119147Y-107011900D01*
X132183297Y-107166772D01*
X132216000Y-107331184D01*
X132216000Y-107498816D01*
X132183297Y-107663228D01*
X132119147Y-107818100D01*
X132026015Y-107957481D01*
X131907481Y-108076015D01*
X131768100Y-108169147D01*
X131613228Y-108233297D01*
X131448816Y-108266000D01*
X131281184Y-108266000D01*
X131116772Y-108233297D01*
X130961900Y-108169147D01*
X130822519Y-108076015D01*
X130703985Y-107957481D01*
X130610853Y-107818100D01*
X130546703Y-107663228D01*
X130514000Y-107498816D01*
X130514000Y-107331184D01*
X130546703Y-107166772D01*
X130610853Y-107011900D01*
X130703985Y-106872519D01*
X130822519Y-106753985D01*
X130961900Y-106660853D01*
X131116772Y-106596703D01*
X131281184Y-106564000D01*
X131448816Y-106564000D01*
X131613228Y-106596703D01*
G37*
G36*
X121453228Y-106596703D02*
G01*
X121608100Y-106660853D01*
X121747481Y-106753985D01*
X121866015Y-106872519D01*
X121959147Y-107011900D01*
X122023297Y-107166772D01*
X122056000Y-107331184D01*
X122056000Y-107498816D01*
X122023297Y-107663228D01*
X121959147Y-107818100D01*
X121866015Y-107957481D01*
X121747481Y-108076015D01*
X121608100Y-108169147D01*
X121453228Y-108233297D01*
X121288816Y-108266000D01*
X121121184Y-108266000D01*
X120956772Y-108233297D01*
X120801900Y-108169147D01*
X120662519Y-108076015D01*
X120543985Y-107957481D01*
X120450853Y-107818100D01*
X120386703Y-107663228D01*
X120354000Y-107498816D01*
X120354000Y-107331184D01*
X120386703Y-107166772D01*
X120450853Y-107011900D01*
X120543985Y-106872519D01*
X120662519Y-106753985D01*
X120801900Y-106660853D01*
X120956772Y-106596703D01*
X121121184Y-106564000D01*
X121288816Y-106564000D01*
X121453228Y-106596703D01*
G37*
G36*
X134153228Y-106596703D02*
G01*
X134308100Y-106660853D01*
X134447481Y-106753985D01*
X134566015Y-106872519D01*
X134659147Y-107011900D01*
X134723297Y-107166772D01*
X134756000Y-107331184D01*
X134756000Y-107498816D01*
X134723297Y-107663228D01*
X134659147Y-107818100D01*
X134566015Y-107957481D01*
X134447481Y-108076015D01*
X134308100Y-108169147D01*
X134153228Y-108233297D01*
X133988816Y-108266000D01*
X133821184Y-108266000D01*
X133656772Y-108233297D01*
X133501900Y-108169147D01*
X133362519Y-108076015D01*
X133243985Y-107957481D01*
X133150853Y-107818100D01*
X133086703Y-107663228D01*
X133054000Y-107498816D01*
X133054000Y-107331184D01*
X133086703Y-107166772D01*
X133150853Y-107011900D01*
X133243985Y-106872519D01*
X133362519Y-106753985D01*
X133501900Y-106660853D01*
X133656772Y-106596703D01*
X133821184Y-106564000D01*
X133988816Y-106564000D01*
X134153228Y-106596703D01*
G37*
G36*
X126533228Y-106596703D02*
G01*
X126688100Y-106660853D01*
X126827481Y-106753985D01*
X126946015Y-106872519D01*
X127039147Y-107011900D01*
X127103297Y-107166772D01*
X127136000Y-107331184D01*
X127136000Y-107498816D01*
X127103297Y-107663228D01*
X127039147Y-107818100D01*
X126946015Y-107957481D01*
X126827481Y-108076015D01*
X126688100Y-108169147D01*
X126533228Y-108233297D01*
X126368816Y-108266000D01*
X126201184Y-108266000D01*
X126036772Y-108233297D01*
X125881900Y-108169147D01*
X125742519Y-108076015D01*
X125623985Y-107957481D01*
X125530853Y-107818100D01*
X125466703Y-107663228D01*
X125434000Y-107498816D01*
X125434000Y-107331184D01*
X125466703Y-107166772D01*
X125530853Y-107011900D01*
X125623985Y-106872519D01*
X125742519Y-106753985D01*
X125881900Y-106660853D01*
X126036772Y-106596703D01*
X126201184Y-106564000D01*
X126368816Y-106564000D01*
X126533228Y-106596703D01*
G37*
G36*
X136693228Y-106596703D02*
G01*
X136848100Y-106660853D01*
X136987481Y-106753985D01*
X137106015Y-106872519D01*
X137199147Y-107011900D01*
X137263297Y-107166772D01*
X137296000Y-107331184D01*
X137296000Y-107498816D01*
X137263297Y-107663228D01*
X137199147Y-107818100D01*
X137106015Y-107957481D01*
X136987481Y-108076015D01*
X136848100Y-108169147D01*
X136693228Y-108233297D01*
X136528816Y-108266000D01*
X136361184Y-108266000D01*
X136196772Y-108233297D01*
X136041900Y-108169147D01*
X135902519Y-108076015D01*
X135783985Y-107957481D01*
X135690853Y-107818100D01*
X135626703Y-107663228D01*
X135594000Y-107498816D01*
X135594000Y-107331184D01*
X135626703Y-107166772D01*
X135690853Y-107011900D01*
X135783985Y-106872519D01*
X135902519Y-106753985D01*
X136041900Y-106660853D01*
X136196772Y-106596703D01*
X136361184Y-106564000D01*
X136528816Y-106564000D01*
X136693228Y-106596703D01*
G37*
G36*
X108753228Y-106596703D02*
G01*
X108908100Y-106660853D01*
X109047481Y-106753985D01*
X109166015Y-106872519D01*
X109259147Y-107011900D01*
X109323297Y-107166772D01*
X109356000Y-107331184D01*
X109356000Y-107498816D01*
X109323297Y-107663228D01*
X109259147Y-107818100D01*
X109166015Y-107957481D01*
X109047481Y-108076015D01*
X108908100Y-108169147D01*
X108753228Y-108233297D01*
X108588816Y-108266000D01*
X108421184Y-108266000D01*
X108256772Y-108233297D01*
X108101900Y-108169147D01*
X107962519Y-108076015D01*
X107843985Y-107957481D01*
X107750853Y-107818100D01*
X107686703Y-107663228D01*
X107654000Y-107498816D01*
X107654000Y-107331184D01*
X107686703Y-107166772D01*
X107750853Y-107011900D01*
X107843985Y-106872519D01*
X107962519Y-106753985D01*
X108101900Y-106660853D01*
X108256772Y-106596703D01*
X108421184Y-106564000D01*
X108588816Y-106564000D01*
X108753228Y-106596703D01*
G37*
G36*
X111293228Y-106596703D02*
G01*
X111448100Y-106660853D01*
X111587481Y-106753985D01*
X111706015Y-106872519D01*
X111799147Y-107011900D01*
X111863297Y-107166772D01*
X111896000Y-107331184D01*
X111896000Y-107498816D01*
X111863297Y-107663228D01*
X111799147Y-107818100D01*
X111706015Y-107957481D01*
X111587481Y-108076015D01*
X111448100Y-108169147D01*
X111293228Y-108233297D01*
X111128816Y-108266000D01*
X110961184Y-108266000D01*
X110796772Y-108233297D01*
X110641900Y-108169147D01*
X110502519Y-108076015D01*
X110383985Y-107957481D01*
X110290853Y-107818100D01*
X110226703Y-107663228D01*
X110194000Y-107498816D01*
X110194000Y-107331184D01*
X110226703Y-107166772D01*
X110290853Y-107011900D01*
X110383985Y-106872519D01*
X110502519Y-106753985D01*
X110641900Y-106660853D01*
X110796772Y-106596703D01*
X110961184Y-106564000D01*
X111128816Y-106564000D01*
X111293228Y-106596703D01*
G37*
G36*
X123993228Y-106596703D02*
G01*
X124148100Y-106660853D01*
X124287481Y-106753985D01*
X124406015Y-106872519D01*
X124499147Y-107011900D01*
X124563297Y-107166772D01*
X124596000Y-107331184D01*
X124596000Y-107498816D01*
X124563297Y-107663228D01*
X124499147Y-107818100D01*
X124406015Y-107957481D01*
X124287481Y-108076015D01*
X124148100Y-108169147D01*
X123993228Y-108233297D01*
X123828816Y-108266000D01*
X123661184Y-108266000D01*
X123496772Y-108233297D01*
X123341900Y-108169147D01*
X123202519Y-108076015D01*
X123083985Y-107957481D01*
X122990853Y-107818100D01*
X122926703Y-107663228D01*
X122894000Y-107498816D01*
X122894000Y-107331184D01*
X122926703Y-107166772D01*
X122990853Y-107011900D01*
X123083985Y-106872519D01*
X123202519Y-106753985D01*
X123341900Y-106660853D01*
X123496772Y-106596703D01*
X123661184Y-106564000D01*
X123828816Y-106564000D01*
X123993228Y-106596703D01*
G37*
G36*
X139233228Y-106596703D02*
G01*
X139388100Y-106660853D01*
X139527481Y-106753985D01*
X139646015Y-106872519D01*
X139739147Y-107011900D01*
X139803297Y-107166772D01*
X139836000Y-107331184D01*
X139836000Y-107498816D01*
X139803297Y-107663228D01*
X139739147Y-107818100D01*
X139646015Y-107957481D01*
X139527481Y-108076015D01*
X139388100Y-108169147D01*
X139233228Y-108233297D01*
X139068816Y-108266000D01*
X138901184Y-108266000D01*
X138736772Y-108233297D01*
X138581900Y-108169147D01*
X138442519Y-108076015D01*
X138323985Y-107957481D01*
X138230853Y-107818100D01*
X138166703Y-107663228D01*
X138134000Y-107498816D01*
X138134000Y-107331184D01*
X138166703Y-107166772D01*
X138230853Y-107011900D01*
X138323985Y-106872519D01*
X138442519Y-106753985D01*
X138581900Y-106660853D01*
X138736772Y-106596703D01*
X138901184Y-106564000D01*
X139068816Y-106564000D01*
X139233228Y-106596703D01*
G37*
G36*
X129073228Y-106596703D02*
G01*
X129228100Y-106660853D01*
X129367481Y-106753985D01*
X129486015Y-106872519D01*
X129579147Y-107011900D01*
X129643297Y-107166772D01*
X129676000Y-107331184D01*
X129676000Y-107498816D01*
X129643297Y-107663228D01*
X129579147Y-107818100D01*
X129486015Y-107957481D01*
X129367481Y-108076015D01*
X129228100Y-108169147D01*
X129073228Y-108233297D01*
X128908816Y-108266000D01*
X128741184Y-108266000D01*
X128576772Y-108233297D01*
X128421900Y-108169147D01*
X128282519Y-108076015D01*
X128163985Y-107957481D01*
X128070853Y-107818100D01*
X128006703Y-107663228D01*
X127974000Y-107498816D01*
X127974000Y-107331184D01*
X128006703Y-107166772D01*
X128070853Y-107011900D01*
X128163985Y-106872519D01*
X128282519Y-106753985D01*
X128421900Y-106660853D01*
X128576772Y-106596703D01*
X128741184Y-106564000D01*
X128908816Y-106564000D01*
X129073228Y-106596703D01*
G37*
G36*
X113833228Y-106596703D02*
G01*
X113988100Y-106660853D01*
X114127481Y-106753985D01*
X114246015Y-106872519D01*
X114339147Y-107011900D01*
X114403297Y-107166772D01*
X114436000Y-107331184D01*
X114436000Y-107498816D01*
X114403297Y-107663228D01*
X114339147Y-107818100D01*
X114246015Y-107957481D01*
X114127481Y-108076015D01*
X113988100Y-108169147D01*
X113833228Y-108233297D01*
X113668816Y-108266000D01*
X113501184Y-108266000D01*
X113336772Y-108233297D01*
X113181900Y-108169147D01*
X113042519Y-108076015D01*
X112923985Y-107957481D01*
X112830853Y-107818100D01*
X112766703Y-107663228D01*
X112734000Y-107498816D01*
X112734000Y-107331184D01*
X112766703Y-107166772D01*
X112830853Y-107011900D01*
X112923985Y-106872519D01*
X113042519Y-106753985D01*
X113181900Y-106660853D01*
X113336772Y-106596703D01*
X113501184Y-106564000D01*
X113668816Y-106564000D01*
X113833228Y-106596703D01*
G37*
G36*
X141773228Y-106596703D02*
G01*
X141928100Y-106660853D01*
X142067481Y-106753985D01*
X142186015Y-106872519D01*
X142279147Y-107011900D01*
X142343297Y-107166772D01*
X142376000Y-107331184D01*
X142376000Y-107498816D01*
X142343297Y-107663228D01*
X142279147Y-107818100D01*
X142186015Y-107957481D01*
X142067481Y-108076015D01*
X141928100Y-108169147D01*
X141773228Y-108233297D01*
X141608816Y-108266000D01*
X141441184Y-108266000D01*
X141276772Y-108233297D01*
X141121900Y-108169147D01*
X140982519Y-108076015D01*
X140863985Y-107957481D01*
X140770853Y-107818100D01*
X140706703Y-107663228D01*
X140674000Y-107498816D01*
X140674000Y-107331184D01*
X140706703Y-107166772D01*
X140770853Y-107011900D01*
X140863985Y-106872519D01*
X140982519Y-106753985D01*
X141121900Y-106660853D01*
X141276772Y-106596703D01*
X141441184Y-106564000D01*
X141608816Y-106564000D01*
X141773228Y-106596703D01*
G37*
G36*
X116373228Y-106596703D02*
G01*
X116528100Y-106660853D01*
X116667481Y-106753985D01*
X116786015Y-106872519D01*
X116879147Y-107011900D01*
X116943297Y-107166772D01*
X116976000Y-107331184D01*
X116976000Y-107498816D01*
X116943297Y-107663228D01*
X116879147Y-107818100D01*
X116786015Y-107957481D01*
X116667481Y-108076015D01*
X116528100Y-108169147D01*
X116373228Y-108233297D01*
X116208816Y-108266000D01*
X116041184Y-108266000D01*
X115876772Y-108233297D01*
X115721900Y-108169147D01*
X115582519Y-108076015D01*
X115463985Y-107957481D01*
X115370853Y-107818100D01*
X115306703Y-107663228D01*
X115274000Y-107498816D01*
X115274000Y-107331184D01*
X115306703Y-107166772D01*
X115370853Y-107011900D01*
X115463985Y-106872519D01*
X115582519Y-106753985D01*
X115721900Y-106660853D01*
X115876772Y-106596703D01*
X116041184Y-106564000D01*
X116208816Y-106564000D01*
X116373228Y-106596703D01*
G37*
G36*
X149236912Y-105656927D02*
G01*
X149386212Y-105686624D01*
X149550184Y-105754544D01*
X149697754Y-105853147D01*
X149823253Y-105978646D01*
X149921856Y-106126216D01*
X149989776Y-106290188D01*
X150019473Y-106439488D01*
X150024400Y-106464258D01*
X150024400Y-106641742D01*
X150019473Y-106666512D01*
X149989776Y-106815812D01*
X149921856Y-106979784D01*
X149823253Y-107127354D01*
X149697754Y-107252853D01*
X149550184Y-107351456D01*
X149386212Y-107419376D01*
X149236912Y-107449073D01*
X149212142Y-107454000D01*
X149034658Y-107454000D01*
X149009888Y-107449073D01*
X148860588Y-107419376D01*
X148696616Y-107351456D01*
X148549046Y-107252853D01*
X148423547Y-107127354D01*
X148324944Y-106979784D01*
X148257024Y-106815812D01*
X148227327Y-106666512D01*
X148222400Y-106641742D01*
X148222400Y-106464258D01*
X148227327Y-106439488D01*
X148257024Y-106290188D01*
X148324944Y-106126216D01*
X148423547Y-105978646D01*
X148549046Y-105853147D01*
X148696616Y-105754544D01*
X148860588Y-105686624D01*
X149009888Y-105656927D01*
X149034658Y-105652000D01*
X149212142Y-105652000D01*
X149236912Y-105656927D01*
G37*
G36*
X116373228Y-91356703D02*
G01*
X116528100Y-91420853D01*
X116667481Y-91513985D01*
X116786015Y-91632519D01*
X116879147Y-91771900D01*
X116943297Y-91926772D01*
X116976000Y-92091184D01*
X116976000Y-92258816D01*
X116943297Y-92423228D01*
X116879147Y-92578100D01*
X116786015Y-92717481D01*
X116667481Y-92836015D01*
X116528100Y-92929147D01*
X116373228Y-92993297D01*
X116208816Y-93026000D01*
X116041184Y-93026000D01*
X115876772Y-92993297D01*
X115721900Y-92929147D01*
X115582519Y-92836015D01*
X115463985Y-92717481D01*
X115370853Y-92578100D01*
X115306703Y-92423228D01*
X115274000Y-92258816D01*
X115274000Y-92091184D01*
X115306703Y-91926772D01*
X115370853Y-91771900D01*
X115463985Y-91632519D01*
X115582519Y-91513985D01*
X115721900Y-91420853D01*
X115876772Y-91356703D01*
X116041184Y-91324000D01*
X116208816Y-91324000D01*
X116373228Y-91356703D01*
G37*
G36*
X113833228Y-91356703D02*
G01*
X113988100Y-91420853D01*
X114127481Y-91513985D01*
X114246015Y-91632519D01*
X114339147Y-91771900D01*
X114403297Y-91926772D01*
X114436000Y-92091184D01*
X114436000Y-92258816D01*
X114403297Y-92423228D01*
X114339147Y-92578100D01*
X114246015Y-92717481D01*
X114127481Y-92836015D01*
X113988100Y-92929147D01*
X113833228Y-92993297D01*
X113668816Y-93026000D01*
X113501184Y-93026000D01*
X113336772Y-92993297D01*
X113181900Y-92929147D01*
X113042519Y-92836015D01*
X112923985Y-92717481D01*
X112830853Y-92578100D01*
X112766703Y-92423228D01*
X112734000Y-92258816D01*
X112734000Y-92091184D01*
X112766703Y-91926772D01*
X112830853Y-91771900D01*
X112923985Y-91632519D01*
X113042519Y-91513985D01*
X113181900Y-91420853D01*
X113336772Y-91356703D01*
X113501184Y-91324000D01*
X113668816Y-91324000D01*
X113833228Y-91356703D01*
G37*
G36*
X111293228Y-91356703D02*
G01*
X111448100Y-91420853D01*
X111587481Y-91513985D01*
X111706015Y-91632519D01*
X111799147Y-91771900D01*
X111863297Y-91926772D01*
X111896000Y-92091184D01*
X111896000Y-92258816D01*
X111863297Y-92423228D01*
X111799147Y-92578100D01*
X111706015Y-92717481D01*
X111587481Y-92836015D01*
X111448100Y-92929147D01*
X111293228Y-92993297D01*
X111128816Y-93026000D01*
X110961184Y-93026000D01*
X110796772Y-92993297D01*
X110641900Y-92929147D01*
X110502519Y-92836015D01*
X110383985Y-92717481D01*
X110290853Y-92578100D01*
X110226703Y-92423228D01*
X110194000Y-92258816D01*
X110194000Y-92091184D01*
X110226703Y-91926772D01*
X110290853Y-91771900D01*
X110383985Y-91632519D01*
X110502519Y-91513985D01*
X110641900Y-91420853D01*
X110796772Y-91356703D01*
X110961184Y-91324000D01*
X111128816Y-91324000D01*
X111293228Y-91356703D01*
G37*
G36*
X108753228Y-91356703D02*
G01*
X108908100Y-91420853D01*
X109047481Y-91513985D01*
X109166015Y-91632519D01*
X109259147Y-91771900D01*
X109323297Y-91926772D01*
X109356000Y-92091184D01*
X109356000Y-92258816D01*
X109323297Y-92423228D01*
X109259147Y-92578100D01*
X109166015Y-92717481D01*
X109047481Y-92836015D01*
X108908100Y-92929147D01*
X108753228Y-92993297D01*
X108588816Y-93026000D01*
X108421184Y-93026000D01*
X108256772Y-92993297D01*
X108101900Y-92929147D01*
X107962519Y-92836015D01*
X107843985Y-92717481D01*
X107750853Y-92578100D01*
X107686703Y-92423228D01*
X107654000Y-92258816D01*
X107654000Y-92091184D01*
X107686703Y-91926772D01*
X107750853Y-91771900D01*
X107843985Y-91632519D01*
X107962519Y-91513985D01*
X108101900Y-91420853D01*
X108256772Y-91356703D01*
X108421184Y-91324000D01*
X108588816Y-91324000D01*
X108753228Y-91356703D01*
G37*
G36*
X121453228Y-91356703D02*
G01*
X121608100Y-91420853D01*
X121747481Y-91513985D01*
X121866015Y-91632519D01*
X121959147Y-91771900D01*
X122023297Y-91926772D01*
X122056000Y-92091184D01*
X122056000Y-92258816D01*
X122023297Y-92423228D01*
X121959147Y-92578100D01*
X121866015Y-92717481D01*
X121747481Y-92836015D01*
X121608100Y-92929147D01*
X121453228Y-92993297D01*
X121288816Y-93026000D01*
X121121184Y-93026000D01*
X120956772Y-92993297D01*
X120801900Y-92929147D01*
X120662519Y-92836015D01*
X120543985Y-92717481D01*
X120450853Y-92578100D01*
X120386703Y-92423228D01*
X120354000Y-92258816D01*
X120354000Y-92091184D01*
X120386703Y-91926772D01*
X120450853Y-91771900D01*
X120543985Y-91632519D01*
X120662519Y-91513985D01*
X120801900Y-91420853D01*
X120956772Y-91356703D01*
X121121184Y-91324000D01*
X121288816Y-91324000D01*
X121453228Y-91356703D01*
G37*
G36*
X106213228Y-91356703D02*
G01*
X106368100Y-91420853D01*
X106507481Y-91513985D01*
X106626015Y-91632519D01*
X106719147Y-91771900D01*
X106783297Y-91926772D01*
X106816000Y-92091184D01*
X106816000Y-92258816D01*
X106783297Y-92423228D01*
X106719147Y-92578100D01*
X106626015Y-92717481D01*
X106507481Y-92836015D01*
X106368100Y-92929147D01*
X106213228Y-92993297D01*
X106048816Y-93026000D01*
X105881184Y-93026000D01*
X105716772Y-92993297D01*
X105561900Y-92929147D01*
X105422519Y-92836015D01*
X105303985Y-92717481D01*
X105210853Y-92578100D01*
X105146703Y-92423228D01*
X105114000Y-92258816D01*
X105114000Y-92091184D01*
X105146703Y-91926772D01*
X105210853Y-91771900D01*
X105303985Y-91632519D01*
X105422519Y-91513985D01*
X105561900Y-91420853D01*
X105716772Y-91356703D01*
X105881184Y-91324000D01*
X106048816Y-91324000D01*
X106213228Y-91356703D01*
G37*
G36*
X123993228Y-91356703D02*
G01*
X124148100Y-91420853D01*
X124287481Y-91513985D01*
X124406015Y-91632519D01*
X124499147Y-91771900D01*
X124563297Y-91926772D01*
X124596000Y-92091184D01*
X124596000Y-92258816D01*
X124563297Y-92423228D01*
X124499147Y-92578100D01*
X124406015Y-92717481D01*
X124287481Y-92836015D01*
X124148100Y-92929147D01*
X123993228Y-92993297D01*
X123828816Y-93026000D01*
X123661184Y-93026000D01*
X123496772Y-92993297D01*
X123341900Y-92929147D01*
X123202519Y-92836015D01*
X123083985Y-92717481D01*
X122990853Y-92578100D01*
X122926703Y-92423228D01*
X122894000Y-92258816D01*
X122894000Y-92091184D01*
X122926703Y-91926772D01*
X122990853Y-91771900D01*
X123083985Y-91632519D01*
X123202519Y-91513985D01*
X123341900Y-91420853D01*
X123496772Y-91356703D01*
X123661184Y-91324000D01*
X123828816Y-91324000D01*
X123993228Y-91356703D01*
G37*
G36*
X126533228Y-91356703D02*
G01*
X126688100Y-91420853D01*
X126827481Y-91513985D01*
X126946015Y-91632519D01*
X127039147Y-91771900D01*
X127103297Y-91926772D01*
X127136000Y-92091184D01*
X127136000Y-92258816D01*
X127103297Y-92423228D01*
X127039147Y-92578100D01*
X126946015Y-92717481D01*
X126827481Y-92836015D01*
X126688100Y-92929147D01*
X126533228Y-92993297D01*
X126368816Y-93026000D01*
X126201184Y-93026000D01*
X126036772Y-92993297D01*
X125881900Y-92929147D01*
X125742519Y-92836015D01*
X125623985Y-92717481D01*
X125530853Y-92578100D01*
X125466703Y-92423228D01*
X125434000Y-92258816D01*
X125434000Y-92091184D01*
X125466703Y-91926772D01*
X125530853Y-91771900D01*
X125623985Y-91632519D01*
X125742519Y-91513985D01*
X125881900Y-91420853D01*
X126036772Y-91356703D01*
X126201184Y-91324000D01*
X126368816Y-91324000D01*
X126533228Y-91356703D01*
G37*
G36*
X129073228Y-91356703D02*
G01*
X129228100Y-91420853D01*
X129367481Y-91513985D01*
X129486015Y-91632519D01*
X129579147Y-91771900D01*
X129643297Y-91926772D01*
X129676000Y-92091184D01*
X129676000Y-92258816D01*
X129643297Y-92423228D01*
X129579147Y-92578100D01*
X129486015Y-92717481D01*
X129367481Y-92836015D01*
X129228100Y-92929147D01*
X129073228Y-92993297D01*
X128908816Y-93026000D01*
X128741184Y-93026000D01*
X128576772Y-92993297D01*
X128421900Y-92929147D01*
X128282519Y-92836015D01*
X128163985Y-92717481D01*
X128070853Y-92578100D01*
X128006703Y-92423228D01*
X127974000Y-92258816D01*
X127974000Y-92091184D01*
X128006703Y-91926772D01*
X128070853Y-91771900D01*
X128163985Y-91632519D01*
X128282519Y-91513985D01*
X128421900Y-91420853D01*
X128576772Y-91356703D01*
X128741184Y-91324000D01*
X128908816Y-91324000D01*
X129073228Y-91356703D01*
G37*
G36*
X118913228Y-91356703D02*
G01*
X119068100Y-91420853D01*
X119207481Y-91513985D01*
X119326015Y-91632519D01*
X119419147Y-91771900D01*
X119483297Y-91926772D01*
X119516000Y-92091184D01*
X119516000Y-92258816D01*
X119483297Y-92423228D01*
X119419147Y-92578100D01*
X119326015Y-92717481D01*
X119207481Y-92836015D01*
X119068100Y-92929147D01*
X118913228Y-92993297D01*
X118748816Y-93026000D01*
X118581184Y-93026000D01*
X118416772Y-92993297D01*
X118261900Y-92929147D01*
X118122519Y-92836015D01*
X118003985Y-92717481D01*
X117910853Y-92578100D01*
X117846703Y-92423228D01*
X117814000Y-92258816D01*
X117814000Y-92091184D01*
X117846703Y-91926772D01*
X117910853Y-91771900D01*
X118003985Y-91632519D01*
X118122519Y-91513985D01*
X118261900Y-91420853D01*
X118416772Y-91356703D01*
X118581184Y-91324000D01*
X118748816Y-91324000D01*
X118913228Y-91356703D01*
G37*
G36*
X142376000Y-93026000D02*
G01*
X140674000Y-93026000D01*
X140674000Y-91324000D01*
X142376000Y-91324000D01*
X142376000Y-93026000D01*
G37*
G36*
X136693228Y-91356703D02*
G01*
X136848100Y-91420853D01*
X136987481Y-91513985D01*
X137106015Y-91632519D01*
X137199147Y-91771900D01*
X137263297Y-91926772D01*
X137296000Y-92091184D01*
X137296000Y-92258816D01*
X137263297Y-92423228D01*
X137199147Y-92578100D01*
X137106015Y-92717481D01*
X136987481Y-92836015D01*
X136848100Y-92929147D01*
X136693228Y-92993297D01*
X136528816Y-93026000D01*
X136361184Y-93026000D01*
X136196772Y-92993297D01*
X136041900Y-92929147D01*
X135902519Y-92836015D01*
X135783985Y-92717481D01*
X135690853Y-92578100D01*
X135626703Y-92423228D01*
X135594000Y-92258816D01*
X135594000Y-92091184D01*
X135626703Y-91926772D01*
X135690853Y-91771900D01*
X135783985Y-91632519D01*
X135902519Y-91513985D01*
X136041900Y-91420853D01*
X136196772Y-91356703D01*
X136361184Y-91324000D01*
X136528816Y-91324000D01*
X136693228Y-91356703D01*
G37*
G36*
X139233228Y-91356703D02*
G01*
X139388100Y-91420853D01*
X139527481Y-91513985D01*
X139646015Y-91632519D01*
X139739147Y-91771900D01*
X139803297Y-91926772D01*
X139836000Y-92091184D01*
X139836000Y-92258816D01*
X139803297Y-92423228D01*
X139739147Y-92578100D01*
X139646015Y-92717481D01*
X139527481Y-92836015D01*
X139388100Y-92929147D01*
X139233228Y-92993297D01*
X139068816Y-93026000D01*
X138901184Y-93026000D01*
X138736772Y-92993297D01*
X138581900Y-92929147D01*
X138442519Y-92836015D01*
X138323985Y-92717481D01*
X138230853Y-92578100D01*
X138166703Y-92423228D01*
X138134000Y-92258816D01*
X138134000Y-92091184D01*
X138166703Y-91926772D01*
X138230853Y-91771900D01*
X138323985Y-91632519D01*
X138442519Y-91513985D01*
X138581900Y-91420853D01*
X138736772Y-91356703D01*
X138901184Y-91324000D01*
X139068816Y-91324000D01*
X139233228Y-91356703D01*
G37*
G36*
X131613228Y-91356703D02*
G01*
X131768100Y-91420853D01*
X131907481Y-91513985D01*
X132026015Y-91632519D01*
X132119147Y-91771900D01*
X132183297Y-91926772D01*
X132216000Y-92091184D01*
X132216000Y-92258816D01*
X132183297Y-92423228D01*
X132119147Y-92578100D01*
X132026015Y-92717481D01*
X131907481Y-92836015D01*
X131768100Y-92929147D01*
X131613228Y-92993297D01*
X131448816Y-93026000D01*
X131281184Y-93026000D01*
X131116772Y-92993297D01*
X130961900Y-92929147D01*
X130822519Y-92836015D01*
X130703985Y-92717481D01*
X130610853Y-92578100D01*
X130546703Y-92423228D01*
X130514000Y-92258816D01*
X130514000Y-92091184D01*
X130546703Y-91926772D01*
X130610853Y-91771900D01*
X130703985Y-91632519D01*
X130822519Y-91513985D01*
X130961900Y-91420853D01*
X131116772Y-91356703D01*
X131281184Y-91324000D01*
X131448816Y-91324000D01*
X131613228Y-91356703D01*
G37*
G36*
X134153228Y-91356703D02*
G01*
X134308100Y-91420853D01*
X134447481Y-91513985D01*
X134566015Y-91632519D01*
X134659147Y-91771900D01*
X134723297Y-91926772D01*
X134756000Y-92091184D01*
X134756000Y-92258816D01*
X134723297Y-92423228D01*
X134659147Y-92578100D01*
X134566015Y-92717481D01*
X134447481Y-92836015D01*
X134308100Y-92929147D01*
X134153228Y-92993297D01*
X133988816Y-93026000D01*
X133821184Y-93026000D01*
X133656772Y-92993297D01*
X133501900Y-92929147D01*
X133362519Y-92836015D01*
X133243985Y-92717481D01*
X133150853Y-92578100D01*
X133086703Y-92423228D01*
X133054000Y-92258816D01*
X133054000Y-92091184D01*
X133086703Y-91926772D01*
X133150853Y-91771900D01*
X133243985Y-91632519D01*
X133362519Y-91513985D01*
X133501900Y-91420853D01*
X133656772Y-91356703D01*
X133821184Y-91324000D01*
X133988816Y-91324000D01*
X134153228Y-91356703D01*
G37*
G36*
X106391000Y-84061000D02*
G01*
X104589000Y-84061000D01*
X104589000Y-82259000D01*
X106391000Y-82259000D01*
X106391000Y-84061000D01*
G37*
G36*
X105603512Y-79723927D02*
G01*
X105752812Y-79753624D01*
X105916784Y-79821544D01*
X106064354Y-79920147D01*
X106189853Y-80045646D01*
X106288456Y-80193216D01*
X106356376Y-80357188D01*
X106391000Y-80531259D01*
X106391000Y-80708741D01*
X106356376Y-80882812D01*
X106288456Y-81046784D01*
X106189853Y-81194354D01*
X106064354Y-81319853D01*
X105916784Y-81418456D01*
X105752812Y-81486376D01*
X105603512Y-81516073D01*
X105578742Y-81521000D01*
X105401258Y-81521000D01*
X105376488Y-81516073D01*
X105227188Y-81486376D01*
X105063216Y-81418456D01*
X104915646Y-81319853D01*
X104790147Y-81194354D01*
X104691544Y-81046784D01*
X104623624Y-80882812D01*
X104589000Y-80708741D01*
X104589000Y-80531259D01*
X104623624Y-80357188D01*
X104691544Y-80193216D01*
X104790147Y-80045646D01*
X104915646Y-79920147D01*
X105063216Y-79821544D01*
X105227188Y-79753624D01*
X105376488Y-79723927D01*
X105401258Y-79719000D01*
X105578742Y-79719000D01*
X105603512Y-79723927D01*
G37*
G36*
X105603512Y-77183927D02*
G01*
X105752812Y-77213624D01*
X105916784Y-77281544D01*
X106064354Y-77380147D01*
X106189853Y-77505646D01*
X106288456Y-77653216D01*
X106356376Y-77817188D01*
X106391000Y-77991259D01*
X106391000Y-78168741D01*
X106356376Y-78342812D01*
X106288456Y-78506784D01*
X106189853Y-78654354D01*
X106064354Y-78779853D01*
X105916784Y-78878456D01*
X105752812Y-78946376D01*
X105603512Y-78976073D01*
X105578742Y-78981000D01*
X105401258Y-78981000D01*
X105376488Y-78976073D01*
X105227188Y-78946376D01*
X105063216Y-78878456D01*
X104915646Y-78779853D01*
X104790147Y-78654354D01*
X104691544Y-78506784D01*
X104623624Y-78342812D01*
X104589000Y-78168741D01*
X104589000Y-77991259D01*
X104623624Y-77817188D01*
X104691544Y-77653216D01*
X104790147Y-77505646D01*
X104915646Y-77380147D01*
X105063216Y-77281544D01*
X105227188Y-77213624D01*
X105376488Y-77183927D01*
X105401258Y-77179000D01*
X105578742Y-77179000D01*
X105603512Y-77183927D01*
G37*
G36*
X105603512Y-74643927D02*
G01*
X105752812Y-74673624D01*
X105916784Y-74741544D01*
X106064354Y-74840147D01*
X106189853Y-74965646D01*
X106288456Y-75113216D01*
X106356376Y-75277188D01*
X106391000Y-75451259D01*
X106391000Y-75628741D01*
X106356376Y-75802812D01*
X106288456Y-75966784D01*
X106189853Y-76114354D01*
X106064354Y-76239853D01*
X105916784Y-76338456D01*
X105752812Y-76406376D01*
X105603512Y-76436073D01*
X105578742Y-76441000D01*
X105401258Y-76441000D01*
X105376488Y-76436073D01*
X105227188Y-76406376D01*
X105063216Y-76338456D01*
X104915646Y-76239853D01*
X104790147Y-76114354D01*
X104691544Y-75966784D01*
X104623624Y-75802812D01*
X104589000Y-75628741D01*
X104589000Y-75451259D01*
X104623624Y-75277188D01*
X104691544Y-75113216D01*
X104790147Y-74965646D01*
X104915646Y-74840147D01*
X105063216Y-74741544D01*
X105227188Y-74673624D01*
X105376488Y-74643927D01*
X105401258Y-74639000D01*
X105578742Y-74639000D01*
X105603512Y-74643927D01*
G37*
G36*
X105603512Y-72103927D02*
G01*
X105752812Y-72133624D01*
X105916784Y-72201544D01*
X106064354Y-72300147D01*
X106189853Y-72425646D01*
X106288456Y-72573216D01*
X106356376Y-72737188D01*
X106391000Y-72911259D01*
X106391000Y-73088741D01*
X106356376Y-73262812D01*
X106288456Y-73426784D01*
X106189853Y-73574354D01*
X106064354Y-73699853D01*
X105916784Y-73798456D01*
X105752812Y-73866376D01*
X105603512Y-73896073D01*
X105578742Y-73901000D01*
X105401258Y-73901000D01*
X105376488Y-73896073D01*
X105227188Y-73866376D01*
X105063216Y-73798456D01*
X104915646Y-73699853D01*
X104790147Y-73574354D01*
X104691544Y-73426784D01*
X104623624Y-73262812D01*
X104589000Y-73088741D01*
X104589000Y-72911259D01*
X104623624Y-72737188D01*
X104691544Y-72573216D01*
X104790147Y-72425646D01*
X104915646Y-72300147D01*
X105063216Y-72201544D01*
X105227188Y-72133624D01*
X105376488Y-72103927D01*
X105401258Y-72099000D01*
X105578742Y-72099000D01*
X105603512Y-72103927D01*
G37*
G36*
X181998228Y-70471703D02*
G01*
X182153100Y-70535853D01*
X182292481Y-70628985D01*
X182411015Y-70747519D01*
X182504147Y-70886900D01*
X182568297Y-71041772D01*
X182601000Y-71206184D01*
X182601000Y-71373816D01*
X182568297Y-71538228D01*
X182504147Y-71693100D01*
X182411015Y-71832481D01*
X182292481Y-71951015D01*
X182153100Y-72044147D01*
X181998228Y-72108297D01*
X181833816Y-72141000D01*
X181666184Y-72141000D01*
X181501772Y-72108297D01*
X181346900Y-72044147D01*
X181207519Y-71951015D01*
X181088985Y-71832481D01*
X180995853Y-71693100D01*
X180931703Y-71538228D01*
X180899000Y-71373816D01*
X180899000Y-71206184D01*
X180931703Y-71041772D01*
X180995853Y-70886900D01*
X181088985Y-70747519D01*
X181207519Y-70628985D01*
X181346900Y-70535853D01*
X181501772Y-70471703D01*
X181666184Y-70439000D01*
X181833816Y-70439000D01*
X181998228Y-70471703D01*
G37*
G36*
X186998228Y-70471703D02*
G01*
X187153100Y-70535853D01*
X187292481Y-70628985D01*
X187411015Y-70747519D01*
X187504147Y-70886900D01*
X187568297Y-71041772D01*
X187601000Y-71206184D01*
X187601000Y-71373816D01*
X187568297Y-71538228D01*
X187504147Y-71693100D01*
X187411015Y-71832481D01*
X187292481Y-71951015D01*
X187153100Y-72044147D01*
X186998228Y-72108297D01*
X186833816Y-72141000D01*
X186666184Y-72141000D01*
X186501772Y-72108297D01*
X186346900Y-72044147D01*
X186207519Y-71951015D01*
X186088985Y-71832481D01*
X185995853Y-71693100D01*
X185931703Y-71538228D01*
X185899000Y-71373816D01*
X185899000Y-71206184D01*
X185931703Y-71041772D01*
X185995853Y-70886900D01*
X186088985Y-70747519D01*
X186207519Y-70628985D01*
X186346900Y-70535853D01*
X186501772Y-70471703D01*
X186666184Y-70439000D01*
X186833816Y-70439000D01*
X186998228Y-70471703D01*
G37*
G36*
X140328228Y-70431703D02*
G01*
X140483100Y-70495853D01*
X140622481Y-70588985D01*
X140741015Y-70707519D01*
X140834147Y-70846900D01*
X140898297Y-71001772D01*
X140931000Y-71166184D01*
X140931000Y-71333816D01*
X140898297Y-71498228D01*
X140834147Y-71653100D01*
X140741015Y-71792481D01*
X140622481Y-71911015D01*
X140483100Y-72004147D01*
X140328228Y-72068297D01*
X140163816Y-72101000D01*
X139996184Y-72101000D01*
X139831772Y-72068297D01*
X139676900Y-72004147D01*
X139537519Y-71911015D01*
X139418985Y-71792481D01*
X139325853Y-71653100D01*
X139261703Y-71498228D01*
X139229000Y-71333816D01*
X139229000Y-71166184D01*
X139261703Y-71001772D01*
X139325853Y-70846900D01*
X139418985Y-70707519D01*
X139537519Y-70588985D01*
X139676900Y-70495853D01*
X139831772Y-70431703D01*
X139996184Y-70399000D01*
X140163816Y-70399000D01*
X140328228Y-70431703D01*
G37*
G36*
X135328228Y-70431703D02*
G01*
X135483100Y-70495853D01*
X135622481Y-70588985D01*
X135741015Y-70707519D01*
X135834147Y-70846900D01*
X135898297Y-71001772D01*
X135931000Y-71166184D01*
X135931000Y-71333816D01*
X135898297Y-71498228D01*
X135834147Y-71653100D01*
X135741015Y-71792481D01*
X135622481Y-71911015D01*
X135483100Y-72004147D01*
X135328228Y-72068297D01*
X135163816Y-72101000D01*
X134996184Y-72101000D01*
X134831772Y-72068297D01*
X134676900Y-72004147D01*
X134537519Y-71911015D01*
X134418985Y-71792481D01*
X134325853Y-71653100D01*
X134261703Y-71498228D01*
X134229000Y-71333816D01*
X134229000Y-71166184D01*
X134261703Y-71001772D01*
X134325853Y-70846900D01*
X134418985Y-70707519D01*
X134537519Y-70588985D01*
X134676900Y-70495853D01*
X134831772Y-70431703D01*
X134996184Y-70399000D01*
X135163816Y-70399000D01*
X135328228Y-70431703D01*
G37*
G36*
X163238228Y-70411703D02*
G01*
X163393100Y-70475853D01*
X163532481Y-70568985D01*
X163651015Y-70687519D01*
X163744147Y-70826900D01*
X163808297Y-70981772D01*
X163841000Y-71146184D01*
X163841000Y-71313816D01*
X163808297Y-71478228D01*
X163744147Y-71633100D01*
X163651015Y-71772481D01*
X163532481Y-71891015D01*
X163393100Y-71984147D01*
X163238228Y-72048297D01*
X163073816Y-72081000D01*
X162906184Y-72081000D01*
X162741772Y-72048297D01*
X162586900Y-71984147D01*
X162447519Y-71891015D01*
X162328985Y-71772481D01*
X162235853Y-71633100D01*
X162171703Y-71478228D01*
X162139000Y-71313816D01*
X162139000Y-71146184D01*
X162171703Y-70981772D01*
X162235853Y-70826900D01*
X162328985Y-70687519D01*
X162447519Y-70568985D01*
X162586900Y-70475853D01*
X162741772Y-70411703D01*
X162906184Y-70379000D01*
X163073816Y-70379000D01*
X163238228Y-70411703D01*
G37*
G36*
X158238228Y-70411703D02*
G01*
X158393100Y-70475853D01*
X158532481Y-70568985D01*
X158651015Y-70687519D01*
X158744147Y-70826900D01*
X158808297Y-70981772D01*
X158841000Y-71146184D01*
X158841000Y-71313816D01*
X158808297Y-71478228D01*
X158744147Y-71633100D01*
X158651015Y-71772481D01*
X158532481Y-71891015D01*
X158393100Y-71984147D01*
X158238228Y-72048297D01*
X158073816Y-72081000D01*
X157906184Y-72081000D01*
X157741772Y-72048297D01*
X157586900Y-71984147D01*
X157447519Y-71891015D01*
X157328985Y-71772481D01*
X157235853Y-71633100D01*
X157171703Y-71478228D01*
X157139000Y-71313816D01*
X157139000Y-71146184D01*
X157171703Y-70981772D01*
X157235853Y-70826900D01*
X157328985Y-70687519D01*
X157447519Y-70568985D01*
X157586900Y-70475853D01*
X157741772Y-70411703D01*
X157906184Y-70379000D01*
X158073816Y-70379000D01*
X158238228Y-70411703D01*
G37*
G36*
X174578228Y-70411703D02*
G01*
X174733100Y-70475853D01*
X174872481Y-70568985D01*
X174991015Y-70687519D01*
X175084147Y-70826900D01*
X175148297Y-70981772D01*
X175181000Y-71146184D01*
X175181000Y-71313816D01*
X175148297Y-71478228D01*
X175084147Y-71633100D01*
X174991015Y-71772481D01*
X174872481Y-71891015D01*
X174733100Y-71984147D01*
X174578228Y-72048297D01*
X174413816Y-72081000D01*
X174246184Y-72081000D01*
X174081772Y-72048297D01*
X173926900Y-71984147D01*
X173787519Y-71891015D01*
X173668985Y-71772481D01*
X173575853Y-71633100D01*
X173511703Y-71478228D01*
X173479000Y-71313816D01*
X173479000Y-71146184D01*
X173511703Y-70981772D01*
X173575853Y-70826900D01*
X173668985Y-70687519D01*
X173787519Y-70568985D01*
X173926900Y-70475853D01*
X174081772Y-70411703D01*
X174246184Y-70379000D01*
X174413816Y-70379000D01*
X174578228Y-70411703D01*
G37*
G36*
X169578228Y-70411703D02*
G01*
X169733100Y-70475853D01*
X169872481Y-70568985D01*
X169991015Y-70687519D01*
X170084147Y-70826900D01*
X170148297Y-70981772D01*
X170181000Y-71146184D01*
X170181000Y-71313816D01*
X170148297Y-71478228D01*
X170084147Y-71633100D01*
X169991015Y-71772481D01*
X169872481Y-71891015D01*
X169733100Y-71984147D01*
X169578228Y-72048297D01*
X169413816Y-72081000D01*
X169246184Y-72081000D01*
X169081772Y-72048297D01*
X168926900Y-71984147D01*
X168787519Y-71891015D01*
X168668985Y-71772481D01*
X168575853Y-71633100D01*
X168511703Y-71478228D01*
X168479000Y-71313816D01*
X168479000Y-71146184D01*
X168511703Y-70981772D01*
X168575853Y-70826900D01*
X168668985Y-70687519D01*
X168787519Y-70568985D01*
X168926900Y-70475853D01*
X169081772Y-70411703D01*
X169246184Y-70379000D01*
X169413816Y-70379000D01*
X169578228Y-70411703D01*
G37*
G36*
X124778228Y-70401703D02*
G01*
X124933100Y-70465853D01*
X125072481Y-70558985D01*
X125191015Y-70677519D01*
X125284147Y-70816900D01*
X125348297Y-70971772D01*
X125381000Y-71136184D01*
X125381000Y-71303816D01*
X125348297Y-71468228D01*
X125284147Y-71623100D01*
X125191015Y-71762481D01*
X125072481Y-71881015D01*
X124933100Y-71974147D01*
X124778228Y-72038297D01*
X124613816Y-72071000D01*
X124446184Y-72071000D01*
X124281772Y-72038297D01*
X124126900Y-71974147D01*
X123987519Y-71881015D01*
X123868985Y-71762481D01*
X123775853Y-71623100D01*
X123711703Y-71468228D01*
X123679000Y-71303816D01*
X123679000Y-71136184D01*
X123711703Y-70971772D01*
X123775853Y-70816900D01*
X123868985Y-70677519D01*
X123987519Y-70558985D01*
X124126900Y-70465853D01*
X124281772Y-70401703D01*
X124446184Y-70369000D01*
X124613816Y-70369000D01*
X124778228Y-70401703D01*
G37*
G36*
X129778228Y-70401703D02*
G01*
X129933100Y-70465853D01*
X130072481Y-70558985D01*
X130191015Y-70677519D01*
X130284147Y-70816900D01*
X130348297Y-70971772D01*
X130381000Y-71136184D01*
X130381000Y-71303816D01*
X130348297Y-71468228D01*
X130284147Y-71623100D01*
X130191015Y-71762481D01*
X130072481Y-71881015D01*
X129933100Y-71974147D01*
X129778228Y-72038297D01*
X129613816Y-72071000D01*
X129446184Y-72071000D01*
X129281772Y-72038297D01*
X129126900Y-71974147D01*
X128987519Y-71881015D01*
X128868985Y-71762481D01*
X128775853Y-71623100D01*
X128711703Y-71468228D01*
X128679000Y-71303816D01*
X128679000Y-71136184D01*
X128711703Y-70971772D01*
X128775853Y-70816900D01*
X128868985Y-70677519D01*
X128987519Y-70558985D01*
X129126900Y-70465853D01*
X129281772Y-70401703D01*
X129446184Y-70369000D01*
X129613816Y-70369000D01*
X129778228Y-70401703D01*
G37*
G36*
X114448228Y-70391703D02*
G01*
X114603100Y-70455853D01*
X114742481Y-70548985D01*
X114861015Y-70667519D01*
X114954147Y-70806900D01*
X115018297Y-70961772D01*
X115051000Y-71126184D01*
X115051000Y-71293816D01*
X115018297Y-71458228D01*
X114954147Y-71613100D01*
X114861015Y-71752481D01*
X114742481Y-71871015D01*
X114603100Y-71964147D01*
X114448228Y-72028297D01*
X114283816Y-72061000D01*
X114116184Y-72061000D01*
X113951772Y-72028297D01*
X113796900Y-71964147D01*
X113657519Y-71871015D01*
X113538985Y-71752481D01*
X113445853Y-71613100D01*
X113381703Y-71458228D01*
X113349000Y-71293816D01*
X113349000Y-71126184D01*
X113381703Y-70961772D01*
X113445853Y-70806900D01*
X113538985Y-70667519D01*
X113657519Y-70548985D01*
X113796900Y-70455853D01*
X113951772Y-70391703D01*
X114116184Y-70359000D01*
X114283816Y-70359000D01*
X114448228Y-70391703D01*
G37*
G36*
X119448228Y-70391703D02*
G01*
X119603100Y-70455853D01*
X119742481Y-70548985D01*
X119861015Y-70667519D01*
X119954147Y-70806900D01*
X120018297Y-70961772D01*
X120051000Y-71126184D01*
X120051000Y-71293816D01*
X120018297Y-71458228D01*
X119954147Y-71613100D01*
X119861015Y-71752481D01*
X119742481Y-71871015D01*
X119603100Y-71964147D01*
X119448228Y-72028297D01*
X119283816Y-72061000D01*
X119116184Y-72061000D01*
X118951772Y-72028297D01*
X118796900Y-71964147D01*
X118657519Y-71871015D01*
X118538985Y-71752481D01*
X118445853Y-71613100D01*
X118381703Y-71458228D01*
X118349000Y-71293816D01*
X118349000Y-71126184D01*
X118381703Y-70961772D01*
X118445853Y-70806900D01*
X118538985Y-70667519D01*
X118657519Y-70548985D01*
X118796900Y-70455853D01*
X118951772Y-70391703D01*
X119116184Y-70359000D01*
X119283816Y-70359000D01*
X119448228Y-70391703D01*
G37*
G36*
X151998228Y-70361703D02*
G01*
X152153100Y-70425853D01*
X152292481Y-70518985D01*
X152411015Y-70637519D01*
X152504147Y-70776900D01*
X152568297Y-70931772D01*
X152601000Y-71096184D01*
X152601000Y-71263816D01*
X152568297Y-71428228D01*
X152504147Y-71583100D01*
X152411015Y-71722481D01*
X152292481Y-71841015D01*
X152153100Y-71934147D01*
X151998228Y-71998297D01*
X151833816Y-72031000D01*
X151666184Y-72031000D01*
X151501772Y-71998297D01*
X151346900Y-71934147D01*
X151207519Y-71841015D01*
X151088985Y-71722481D01*
X150995853Y-71583100D01*
X150931703Y-71428228D01*
X150899000Y-71263816D01*
X150899000Y-71096184D01*
X150931703Y-70931772D01*
X150995853Y-70776900D01*
X151088985Y-70637519D01*
X151207519Y-70518985D01*
X151346900Y-70425853D01*
X151501772Y-70361703D01*
X151666184Y-70329000D01*
X151833816Y-70329000D01*
X151998228Y-70361703D01*
G37*
G36*
X146998228Y-70361703D02*
G01*
X147153100Y-70425853D01*
X147292481Y-70518985D01*
X147411015Y-70637519D01*
X147504147Y-70776900D01*
X147568297Y-70931772D01*
X147601000Y-71096184D01*
X147601000Y-71263816D01*
X147568297Y-71428228D01*
X147504147Y-71583100D01*
X147411015Y-71722481D01*
X147292481Y-71841015D01*
X147153100Y-71934147D01*
X146998228Y-71998297D01*
X146833816Y-72031000D01*
X146666184Y-72031000D01*
X146501772Y-71998297D01*
X146346900Y-71934147D01*
X146207519Y-71841015D01*
X146088985Y-71722481D01*
X145995853Y-71583100D01*
X145931703Y-71428228D01*
X145899000Y-71263816D01*
X145899000Y-71096184D01*
X145931703Y-70931772D01*
X145995853Y-70776900D01*
X146088985Y-70637519D01*
X146207519Y-70518985D01*
X146346900Y-70425853D01*
X146501772Y-70361703D01*
X146666184Y-70329000D01*
X146833816Y-70329000D01*
X146998228Y-70361703D01*
G37*
G36*
X105599712Y-64331127D02*
G01*
X105749012Y-64360824D01*
X105912984Y-64428744D01*
X106060554Y-64527347D01*
X106186053Y-64652846D01*
X106284656Y-64800416D01*
X106352576Y-64964388D01*
X106387200Y-65138459D01*
X106387200Y-65315941D01*
X106352576Y-65490012D01*
X106284656Y-65653984D01*
X106186053Y-65801554D01*
X106060554Y-65927053D01*
X105912984Y-66025656D01*
X105749012Y-66093576D01*
X105599712Y-66123273D01*
X105574942Y-66128200D01*
X105397458Y-66128200D01*
X105372688Y-66123273D01*
X105223388Y-66093576D01*
X105059416Y-66025656D01*
X104911846Y-65927053D01*
X104786347Y-65801554D01*
X104687744Y-65653984D01*
X104619824Y-65490012D01*
X104585200Y-65315941D01*
X104585200Y-65138459D01*
X104619824Y-64964388D01*
X104687744Y-64800416D01*
X104786347Y-64652846D01*
X104911846Y-64527347D01*
X105059416Y-64428744D01*
X105223388Y-64360824D01*
X105372688Y-64331127D01*
X105397458Y-64326200D01*
X105574942Y-64326200D01*
X105599712Y-64331127D01*
G37*
G36*
X186988228Y-64201703D02*
G01*
X187143100Y-64265853D01*
X187282481Y-64358985D01*
X187401015Y-64477519D01*
X187494147Y-64616900D01*
X187558297Y-64771772D01*
X187591000Y-64936184D01*
X187591000Y-65103816D01*
X187558297Y-65268228D01*
X187494147Y-65423100D01*
X187401015Y-65562481D01*
X187282481Y-65681015D01*
X187143100Y-65774147D01*
X186988228Y-65838297D01*
X186823816Y-65871000D01*
X186656184Y-65871000D01*
X186491772Y-65838297D01*
X186336900Y-65774147D01*
X186197519Y-65681015D01*
X186078985Y-65562481D01*
X185985853Y-65423100D01*
X185921703Y-65268228D01*
X185889000Y-65103816D01*
X185889000Y-64936184D01*
X185921703Y-64771772D01*
X185985853Y-64616900D01*
X186078985Y-64477519D01*
X186197519Y-64358985D01*
X186336900Y-64265853D01*
X186491772Y-64201703D01*
X186656184Y-64169000D01*
X186823816Y-64169000D01*
X186988228Y-64201703D01*
G37*
G36*
X181988228Y-64201703D02*
G01*
X182143100Y-64265853D01*
X182282481Y-64358985D01*
X182401015Y-64477519D01*
X182494147Y-64616900D01*
X182558297Y-64771772D01*
X182591000Y-64936184D01*
X182591000Y-65103816D01*
X182558297Y-65268228D01*
X182494147Y-65423100D01*
X182401015Y-65562481D01*
X182282481Y-65681015D01*
X182143100Y-65774147D01*
X181988228Y-65838297D01*
X181823816Y-65871000D01*
X181656184Y-65871000D01*
X181491772Y-65838297D01*
X181336900Y-65774147D01*
X181197519Y-65681015D01*
X181078985Y-65562481D01*
X180985853Y-65423100D01*
X180921703Y-65268228D01*
X180889000Y-65103816D01*
X180889000Y-64936184D01*
X180921703Y-64771772D01*
X180985853Y-64616900D01*
X181078985Y-64477519D01*
X181197519Y-64358985D01*
X181336900Y-64265853D01*
X181491772Y-64201703D01*
X181656184Y-64169000D01*
X181823816Y-64169000D01*
X181988228Y-64201703D01*
G37*
G36*
X196948228Y-64181703D02*
G01*
X197103100Y-64245853D01*
X197242481Y-64338985D01*
X197361015Y-64457519D01*
X197454147Y-64596900D01*
X197518297Y-64751772D01*
X197551000Y-64916184D01*
X197551000Y-65083816D01*
X197518297Y-65248228D01*
X197454147Y-65403100D01*
X197361015Y-65542481D01*
X197242481Y-65661015D01*
X197103100Y-65754147D01*
X196948228Y-65818297D01*
X196783816Y-65851000D01*
X196616184Y-65851000D01*
X196451772Y-65818297D01*
X196296900Y-65754147D01*
X196157519Y-65661015D01*
X196038985Y-65542481D01*
X195945853Y-65403100D01*
X195881703Y-65248228D01*
X195849000Y-65083816D01*
X195849000Y-64916184D01*
X195881703Y-64751772D01*
X195945853Y-64596900D01*
X196038985Y-64457519D01*
X196157519Y-64338985D01*
X196296900Y-64245853D01*
X196451772Y-64181703D01*
X196616184Y-64149000D01*
X196783816Y-64149000D01*
X196948228Y-64181703D01*
G37*
G36*
X158208228Y-64171703D02*
G01*
X158363100Y-64235853D01*
X158502481Y-64328985D01*
X158621015Y-64447519D01*
X158714147Y-64586900D01*
X158778297Y-64741772D01*
X158811000Y-64906184D01*
X158811000Y-65073816D01*
X158778297Y-65238228D01*
X158714147Y-65393100D01*
X158621015Y-65532481D01*
X158502481Y-65651015D01*
X158363100Y-65744147D01*
X158208228Y-65808297D01*
X158043816Y-65841000D01*
X157876184Y-65841000D01*
X157711772Y-65808297D01*
X157556900Y-65744147D01*
X157417519Y-65651015D01*
X157298985Y-65532481D01*
X157205853Y-65393100D01*
X157141703Y-65238228D01*
X157109000Y-65073816D01*
X157109000Y-64906184D01*
X157141703Y-64741772D01*
X157205853Y-64586900D01*
X157298985Y-64447519D01*
X157417519Y-64328985D01*
X157556900Y-64235853D01*
X157711772Y-64171703D01*
X157876184Y-64139000D01*
X158043816Y-64139000D01*
X158208228Y-64171703D01*
G37*
G36*
X163208228Y-64171703D02*
G01*
X163363100Y-64235853D01*
X163502481Y-64328985D01*
X163621015Y-64447519D01*
X163714147Y-64586900D01*
X163778297Y-64741772D01*
X163811000Y-64906184D01*
X163811000Y-65073816D01*
X163778297Y-65238228D01*
X163714147Y-65393100D01*
X163621015Y-65532481D01*
X163502481Y-65651015D01*
X163363100Y-65744147D01*
X163208228Y-65808297D01*
X163043816Y-65841000D01*
X162876184Y-65841000D01*
X162711772Y-65808297D01*
X162556900Y-65744147D01*
X162417519Y-65651015D01*
X162298985Y-65532481D01*
X162205853Y-65393100D01*
X162141703Y-65238228D01*
X162109000Y-65073816D01*
X162109000Y-64906184D01*
X162141703Y-64741772D01*
X162205853Y-64586900D01*
X162298985Y-64447519D01*
X162417519Y-64328985D01*
X162556900Y-64235853D01*
X162711772Y-64171703D01*
X162876184Y-64139000D01*
X163043816Y-64139000D01*
X163208228Y-64171703D01*
G37*
G36*
X174588228Y-64111703D02*
G01*
X174743100Y-64175853D01*
X174882481Y-64268985D01*
X175001015Y-64387519D01*
X175094147Y-64526900D01*
X175158297Y-64681772D01*
X175191000Y-64846184D01*
X175191000Y-65013816D01*
X175158297Y-65178228D01*
X175094147Y-65333100D01*
X175001015Y-65472481D01*
X174882481Y-65591015D01*
X174743100Y-65684147D01*
X174588228Y-65748297D01*
X174423816Y-65781000D01*
X174256184Y-65781000D01*
X174091772Y-65748297D01*
X173936900Y-65684147D01*
X173797519Y-65591015D01*
X173678985Y-65472481D01*
X173585853Y-65333100D01*
X173521703Y-65178228D01*
X173489000Y-65013816D01*
X173489000Y-64846184D01*
X173521703Y-64681772D01*
X173585853Y-64526900D01*
X173678985Y-64387519D01*
X173797519Y-64268985D01*
X173936900Y-64175853D01*
X174091772Y-64111703D01*
X174256184Y-64079000D01*
X174423816Y-64079000D01*
X174588228Y-64111703D01*
G37*
G36*
X169588228Y-64111703D02*
G01*
X169743100Y-64175853D01*
X169882481Y-64268985D01*
X170001015Y-64387519D01*
X170094147Y-64526900D01*
X170158297Y-64681772D01*
X170191000Y-64846184D01*
X170191000Y-65013816D01*
X170158297Y-65178228D01*
X170094147Y-65333100D01*
X170001015Y-65472481D01*
X169882481Y-65591015D01*
X169743100Y-65684147D01*
X169588228Y-65748297D01*
X169423816Y-65781000D01*
X169256184Y-65781000D01*
X169091772Y-65748297D01*
X168936900Y-65684147D01*
X168797519Y-65591015D01*
X168678985Y-65472481D01*
X168585853Y-65333100D01*
X168521703Y-65178228D01*
X168489000Y-65013816D01*
X168489000Y-64846184D01*
X168521703Y-64681772D01*
X168585853Y-64526900D01*
X168678985Y-64387519D01*
X168797519Y-64268985D01*
X168936900Y-64175853D01*
X169091772Y-64111703D01*
X169256184Y-64079000D01*
X169423816Y-64079000D01*
X169588228Y-64111703D01*
G37*
G36*
X151978228Y-64081703D02*
G01*
X152133100Y-64145853D01*
X152272481Y-64238985D01*
X152391015Y-64357519D01*
X152484147Y-64496900D01*
X152548297Y-64651772D01*
X152581000Y-64816184D01*
X152581000Y-64983816D01*
X152548297Y-65148228D01*
X152484147Y-65303100D01*
X152391015Y-65442481D01*
X152272481Y-65561015D01*
X152133100Y-65654147D01*
X151978228Y-65718297D01*
X151813816Y-65751000D01*
X151646184Y-65751000D01*
X151481772Y-65718297D01*
X151326900Y-65654147D01*
X151187519Y-65561015D01*
X151068985Y-65442481D01*
X150975853Y-65303100D01*
X150911703Y-65148228D01*
X150879000Y-64983816D01*
X150879000Y-64816184D01*
X150911703Y-64651772D01*
X150975853Y-64496900D01*
X151068985Y-64357519D01*
X151187519Y-64238985D01*
X151326900Y-64145853D01*
X151481772Y-64081703D01*
X151646184Y-64049000D01*
X151813816Y-64049000D01*
X151978228Y-64081703D01*
G37*
G36*
X146978228Y-64081703D02*
G01*
X147133100Y-64145853D01*
X147272481Y-64238985D01*
X147391015Y-64357519D01*
X147484147Y-64496900D01*
X147548297Y-64651772D01*
X147581000Y-64816184D01*
X147581000Y-64983816D01*
X147548297Y-65148228D01*
X147484147Y-65303100D01*
X147391015Y-65442481D01*
X147272481Y-65561015D01*
X147133100Y-65654147D01*
X146978228Y-65718297D01*
X146813816Y-65751000D01*
X146646184Y-65751000D01*
X146481772Y-65718297D01*
X146326900Y-65654147D01*
X146187519Y-65561015D01*
X146068985Y-65442481D01*
X145975853Y-65303100D01*
X145911703Y-65148228D01*
X145879000Y-64983816D01*
X145879000Y-64816184D01*
X145911703Y-64651772D01*
X145975853Y-64496900D01*
X146068985Y-64357519D01*
X146187519Y-64238985D01*
X146326900Y-64145853D01*
X146481772Y-64081703D01*
X146646184Y-64049000D01*
X146813816Y-64049000D01*
X146978228Y-64081703D01*
G37*
G36*
X135388228Y-64081703D02*
G01*
X135543100Y-64145853D01*
X135682481Y-64238985D01*
X135801015Y-64357519D01*
X135894147Y-64496900D01*
X135958297Y-64651772D01*
X135991000Y-64816184D01*
X135991000Y-64983816D01*
X135958297Y-65148228D01*
X135894147Y-65303100D01*
X135801015Y-65442481D01*
X135682481Y-65561015D01*
X135543100Y-65654147D01*
X135388228Y-65718297D01*
X135223816Y-65751000D01*
X135056184Y-65751000D01*
X134891772Y-65718297D01*
X134736900Y-65654147D01*
X134597519Y-65561015D01*
X134478985Y-65442481D01*
X134385853Y-65303100D01*
X134321703Y-65148228D01*
X134289000Y-64983816D01*
X134289000Y-64816184D01*
X134321703Y-64651772D01*
X134385853Y-64496900D01*
X134478985Y-64357519D01*
X134597519Y-64238985D01*
X134736900Y-64145853D01*
X134891772Y-64081703D01*
X135056184Y-64049000D01*
X135223816Y-64049000D01*
X135388228Y-64081703D01*
G37*
G36*
X140388228Y-64081703D02*
G01*
X140543100Y-64145853D01*
X140682481Y-64238985D01*
X140801015Y-64357519D01*
X140894147Y-64496900D01*
X140958297Y-64651772D01*
X140991000Y-64816184D01*
X140991000Y-64983816D01*
X140958297Y-65148228D01*
X140894147Y-65303100D01*
X140801015Y-65442481D01*
X140682481Y-65561015D01*
X140543100Y-65654147D01*
X140388228Y-65718297D01*
X140223816Y-65751000D01*
X140056184Y-65751000D01*
X139891772Y-65718297D01*
X139736900Y-65654147D01*
X139597519Y-65561015D01*
X139478985Y-65442481D01*
X139385853Y-65303100D01*
X139321703Y-65148228D01*
X139289000Y-64983816D01*
X139289000Y-64816184D01*
X139321703Y-64651772D01*
X139385853Y-64496900D01*
X139478985Y-64357519D01*
X139597519Y-64238985D01*
X139736900Y-64145853D01*
X139891772Y-64081703D01*
X140056184Y-64049000D01*
X140223816Y-64049000D01*
X140388228Y-64081703D01*
G37*
G36*
X119458228Y-64061703D02*
G01*
X119613100Y-64125853D01*
X119752481Y-64218985D01*
X119871015Y-64337519D01*
X119964147Y-64476900D01*
X120028297Y-64631772D01*
X120061000Y-64796184D01*
X120061000Y-64963816D01*
X120028297Y-65128228D01*
X119964147Y-65283100D01*
X119871015Y-65422481D01*
X119752481Y-65541015D01*
X119613100Y-65634147D01*
X119458228Y-65698297D01*
X119293816Y-65731000D01*
X119126184Y-65731000D01*
X118961772Y-65698297D01*
X118806900Y-65634147D01*
X118667519Y-65541015D01*
X118548985Y-65422481D01*
X118455853Y-65283100D01*
X118391703Y-65128228D01*
X118359000Y-64963816D01*
X118359000Y-64796184D01*
X118391703Y-64631772D01*
X118455853Y-64476900D01*
X118548985Y-64337519D01*
X118667519Y-64218985D01*
X118806900Y-64125853D01*
X118961772Y-64061703D01*
X119126184Y-64029000D01*
X119293816Y-64029000D01*
X119458228Y-64061703D01*
G37*
G36*
X114458228Y-64061703D02*
G01*
X114613100Y-64125853D01*
X114752481Y-64218985D01*
X114871015Y-64337519D01*
X114964147Y-64476900D01*
X115028297Y-64631772D01*
X115061000Y-64796184D01*
X115061000Y-64963816D01*
X115028297Y-65128228D01*
X114964147Y-65283100D01*
X114871015Y-65422481D01*
X114752481Y-65541015D01*
X114613100Y-65634147D01*
X114458228Y-65698297D01*
X114293816Y-65731000D01*
X114126184Y-65731000D01*
X113961772Y-65698297D01*
X113806900Y-65634147D01*
X113667519Y-65541015D01*
X113548985Y-65422481D01*
X113455853Y-65283100D01*
X113391703Y-65128228D01*
X113359000Y-64963816D01*
X113359000Y-64796184D01*
X113391703Y-64631772D01*
X113455853Y-64476900D01*
X113548985Y-64337519D01*
X113667519Y-64218985D01*
X113806900Y-64125853D01*
X113961772Y-64061703D01*
X114126184Y-64029000D01*
X114293816Y-64029000D01*
X114458228Y-64061703D01*
G37*
G36*
X129848228Y-64031703D02*
G01*
X130003100Y-64095853D01*
X130142481Y-64188985D01*
X130261015Y-64307519D01*
X130354147Y-64446900D01*
X130418297Y-64601772D01*
X130451000Y-64766184D01*
X130451000Y-64933816D01*
X130418297Y-65098228D01*
X130354147Y-65253100D01*
X130261015Y-65392481D01*
X130142481Y-65511015D01*
X130003100Y-65604147D01*
X129848228Y-65668297D01*
X129683816Y-65701000D01*
X129516184Y-65701000D01*
X129351772Y-65668297D01*
X129196900Y-65604147D01*
X129057519Y-65511015D01*
X128938985Y-65392481D01*
X128845853Y-65253100D01*
X128781703Y-65098228D01*
X128749000Y-64933816D01*
X128749000Y-64766184D01*
X128781703Y-64601772D01*
X128845853Y-64446900D01*
X128938985Y-64307519D01*
X129057519Y-64188985D01*
X129196900Y-64095853D01*
X129351772Y-64031703D01*
X129516184Y-63999000D01*
X129683816Y-63999000D01*
X129848228Y-64031703D01*
G37*
G36*
X124848228Y-64031703D02*
G01*
X125003100Y-64095853D01*
X125142481Y-64188985D01*
X125261015Y-64307519D01*
X125354147Y-64446900D01*
X125418297Y-64601772D01*
X125451000Y-64766184D01*
X125451000Y-64933816D01*
X125418297Y-65098228D01*
X125354147Y-65253100D01*
X125261015Y-65392481D01*
X125142481Y-65511015D01*
X125003100Y-65604147D01*
X124848228Y-65668297D01*
X124683816Y-65701000D01*
X124516184Y-65701000D01*
X124351772Y-65668297D01*
X124196900Y-65604147D01*
X124057519Y-65511015D01*
X123938985Y-65392481D01*
X123845853Y-65253100D01*
X123781703Y-65098228D01*
X123749000Y-64933816D01*
X123749000Y-64766184D01*
X123781703Y-64601772D01*
X123845853Y-64446900D01*
X123938985Y-64307519D01*
X124057519Y-64188985D01*
X124196900Y-64095853D01*
X124351772Y-64031703D01*
X124516184Y-63999000D01*
X124683816Y-63999000D01*
X124848228Y-64031703D01*
G37*
G36*
X106387200Y-63588200D02*
G01*
X104585200Y-63588200D01*
X104585200Y-61786200D01*
X106387200Y-61786200D01*
X106387200Y-63588200D01*
G37*
G36*
X121999059Y-60517860D02*
G01*
X122116873Y-60566660D01*
X122135732Y-60574472D01*
X122258735Y-60656660D01*
X122363340Y-60761265D01*
X122445528Y-60884268D01*
X122445529Y-60884270D01*
X122502140Y-61020941D01*
X122531000Y-61166032D01*
X122531000Y-61313968D01*
X122506118Y-61439059D01*
X122502140Y-61459059D01*
X122445528Y-61595732D01*
X122363340Y-61718735D01*
X122258735Y-61823340D01*
X122135732Y-61905528D01*
X122135731Y-61905529D01*
X122135730Y-61905529D01*
X121999059Y-61962140D01*
X121853968Y-61991000D01*
X121706032Y-61991000D01*
X121560941Y-61962140D01*
X121424270Y-61905529D01*
X121424269Y-61905529D01*
X121424268Y-61905528D01*
X121301265Y-61823340D01*
X121196660Y-61718735D01*
X121114472Y-61595732D01*
X121057860Y-61459059D01*
X121053882Y-61439059D01*
X121029000Y-61313968D01*
X121029000Y-61166032D01*
X121057860Y-61020941D01*
X121114471Y-60884270D01*
X121114472Y-60884268D01*
X121196660Y-60761265D01*
X121301265Y-60656660D01*
X121424268Y-60574472D01*
X121443128Y-60566660D01*
X121560941Y-60517860D01*
X121706032Y-60489000D01*
X121853968Y-60489000D01*
X121999059Y-60517860D01*
G37*
G36*
X114379059Y-60517860D02*
G01*
X114496873Y-60566660D01*
X114515732Y-60574472D01*
X114638735Y-60656660D01*
X114743340Y-60761265D01*
X114825528Y-60884268D01*
X114825529Y-60884270D01*
X114882140Y-61020941D01*
X114911000Y-61166032D01*
X114911000Y-61313968D01*
X114886118Y-61439059D01*
X114882140Y-61459059D01*
X114825528Y-61595732D01*
X114743340Y-61718735D01*
X114638735Y-61823340D01*
X114515732Y-61905528D01*
X114515731Y-61905529D01*
X114515730Y-61905529D01*
X114379059Y-61962140D01*
X114233968Y-61991000D01*
X114086032Y-61991000D01*
X113940941Y-61962140D01*
X113804270Y-61905529D01*
X113804269Y-61905529D01*
X113804268Y-61905528D01*
X113681265Y-61823340D01*
X113576660Y-61718735D01*
X113494472Y-61595732D01*
X113437860Y-61459059D01*
X113433882Y-61439059D01*
X113409000Y-61313968D01*
X113409000Y-61166032D01*
X113437860Y-61020941D01*
X113494471Y-60884270D01*
X113494472Y-60884268D01*
X113576660Y-60761265D01*
X113681265Y-60656660D01*
X113804268Y-60574472D01*
X113823128Y-60566660D01*
X113940941Y-60517860D01*
X114086032Y-60489000D01*
X114233968Y-60489000D01*
X114379059Y-60517860D01*
G37*
G36*
X142909059Y-60497860D02*
G01*
X143016784Y-60542481D01*
X143045732Y-60554472D01*
X143168735Y-60636660D01*
X143273340Y-60741265D01*
X143355528Y-60864268D01*
X143355529Y-60864270D01*
X143412140Y-61000941D01*
X143441000Y-61146032D01*
X143441000Y-61293968D01*
X143412140Y-61439059D01*
X143363897Y-61555529D01*
X143355528Y-61575732D01*
X143273340Y-61698735D01*
X143168735Y-61803340D01*
X143045732Y-61885528D01*
X143045731Y-61885529D01*
X143045730Y-61885529D01*
X142909059Y-61942140D01*
X142763968Y-61971000D01*
X142616032Y-61971000D01*
X142470941Y-61942140D01*
X142334270Y-61885529D01*
X142334269Y-61885529D01*
X142334268Y-61885528D01*
X142211265Y-61803340D01*
X142106660Y-61698735D01*
X142024472Y-61575732D01*
X142016104Y-61555529D01*
X141967860Y-61439059D01*
X141939000Y-61293968D01*
X141939000Y-61146032D01*
X141967860Y-61000941D01*
X142024471Y-60864270D01*
X142024472Y-60864268D01*
X142106660Y-60741265D01*
X142211265Y-60636660D01*
X142334268Y-60554472D01*
X142363217Y-60542481D01*
X142470941Y-60497860D01*
X142616032Y-60469000D01*
X142763968Y-60469000D01*
X142909059Y-60497860D01*
G37*
G36*
X135289059Y-60497860D02*
G01*
X135396784Y-60542481D01*
X135425732Y-60554472D01*
X135548735Y-60636660D01*
X135653340Y-60741265D01*
X135735528Y-60864268D01*
X135735529Y-60864270D01*
X135792140Y-61000941D01*
X135821000Y-61146032D01*
X135821000Y-61293968D01*
X135792140Y-61439059D01*
X135743897Y-61555529D01*
X135735528Y-61575732D01*
X135653340Y-61698735D01*
X135548735Y-61803340D01*
X135425732Y-61885528D01*
X135425731Y-61885529D01*
X135425730Y-61885529D01*
X135289059Y-61942140D01*
X135143968Y-61971000D01*
X134996032Y-61971000D01*
X134850941Y-61942140D01*
X134714270Y-61885529D01*
X134714269Y-61885529D01*
X134714268Y-61885528D01*
X134591265Y-61803340D01*
X134486660Y-61698735D01*
X134404472Y-61575732D01*
X134396104Y-61555529D01*
X134347860Y-61439059D01*
X134319000Y-61293968D01*
X134319000Y-61146032D01*
X134347860Y-61000941D01*
X134404471Y-60864270D01*
X134404472Y-60864268D01*
X134486660Y-60741265D01*
X134591265Y-60636660D01*
X134714268Y-60554472D01*
X134743217Y-60542481D01*
X134850941Y-60497860D01*
X134996032Y-60469000D01*
X135143968Y-60469000D01*
X135289059Y-60497860D01*
G37*
G36*
X132409059Y-60497860D02*
G01*
X132516784Y-60542481D01*
X132545732Y-60554472D01*
X132668735Y-60636660D01*
X132773340Y-60741265D01*
X132855528Y-60864268D01*
X132855529Y-60864270D01*
X132912140Y-61000941D01*
X132941000Y-61146032D01*
X132941000Y-61293968D01*
X132912140Y-61439059D01*
X132863897Y-61555529D01*
X132855528Y-61575732D01*
X132773340Y-61698735D01*
X132668735Y-61803340D01*
X132545732Y-61885528D01*
X132545731Y-61885529D01*
X132545730Y-61885529D01*
X132409059Y-61942140D01*
X132263968Y-61971000D01*
X132116032Y-61971000D01*
X131970941Y-61942140D01*
X131834270Y-61885529D01*
X131834269Y-61885529D01*
X131834268Y-61885528D01*
X131711265Y-61803340D01*
X131606660Y-61698735D01*
X131524472Y-61575732D01*
X131516104Y-61555529D01*
X131467860Y-61439059D01*
X131439000Y-61293968D01*
X131439000Y-61146032D01*
X131467860Y-61000941D01*
X131524471Y-60864270D01*
X131524472Y-60864268D01*
X131606660Y-60741265D01*
X131711265Y-60636660D01*
X131834268Y-60554472D01*
X131863217Y-60542481D01*
X131970941Y-60497860D01*
X132116032Y-60469000D01*
X132263968Y-60469000D01*
X132409059Y-60497860D01*
G37*
G36*
X124789059Y-60497860D02*
G01*
X124896784Y-60542481D01*
X124925732Y-60554472D01*
X125048735Y-60636660D01*
X125153340Y-60741265D01*
X125235528Y-60864268D01*
X125235529Y-60864270D01*
X125292140Y-61000941D01*
X125321000Y-61146032D01*
X125321000Y-61293968D01*
X125292140Y-61439059D01*
X125243897Y-61555529D01*
X125235528Y-61575732D01*
X125153340Y-61698735D01*
X125048735Y-61803340D01*
X124925732Y-61885528D01*
X124925731Y-61885529D01*
X124925730Y-61885529D01*
X124789059Y-61942140D01*
X124643968Y-61971000D01*
X124496032Y-61971000D01*
X124350941Y-61942140D01*
X124214270Y-61885529D01*
X124214269Y-61885529D01*
X124214268Y-61885528D01*
X124091265Y-61803340D01*
X123986660Y-61698735D01*
X123904472Y-61575732D01*
X123896104Y-61555529D01*
X123847860Y-61439059D01*
X123819000Y-61293968D01*
X123819000Y-61146032D01*
X123847860Y-61000941D01*
X123904471Y-60864270D01*
X123904472Y-60864268D01*
X123986660Y-60741265D01*
X124091265Y-60636660D01*
X124214268Y-60554472D01*
X124243217Y-60542481D01*
X124350941Y-60497860D01*
X124496032Y-60469000D01*
X124643968Y-60469000D01*
X124789059Y-60497860D01*
G37*
G36*
X157939059Y-60457860D02*
G01*
X158035628Y-60497860D01*
X158075732Y-60514472D01*
X158198735Y-60596660D01*
X158303340Y-60701265D01*
X158381537Y-60818295D01*
X158385529Y-60824270D01*
X158442140Y-60960941D01*
X158471000Y-61106032D01*
X158471000Y-61253968D01*
X158442140Y-61399059D01*
X158397955Y-61505732D01*
X158385528Y-61535732D01*
X158303340Y-61658735D01*
X158198735Y-61763340D01*
X158075732Y-61845528D01*
X158075731Y-61845529D01*
X158075730Y-61845529D01*
X157939059Y-61902140D01*
X157793968Y-61931000D01*
X157646032Y-61931000D01*
X157500941Y-61902140D01*
X157364270Y-61845529D01*
X157364269Y-61845529D01*
X157364268Y-61845528D01*
X157241265Y-61763340D01*
X157136660Y-61658735D01*
X157054472Y-61535732D01*
X157042046Y-61505732D01*
X156997860Y-61399059D01*
X156969000Y-61253968D01*
X156969000Y-61106032D01*
X156997860Y-60960941D01*
X157054471Y-60824270D01*
X157058463Y-60818295D01*
X157136660Y-60701265D01*
X157241265Y-60596660D01*
X157364268Y-60514472D01*
X157404373Y-60497860D01*
X157500941Y-60457860D01*
X157646032Y-60429000D01*
X157793968Y-60429000D01*
X157939059Y-60457860D01*
G37*
G36*
X165559059Y-60457860D02*
G01*
X165655628Y-60497860D01*
X165695732Y-60514472D01*
X165818735Y-60596660D01*
X165923340Y-60701265D01*
X166001537Y-60818295D01*
X166005529Y-60824270D01*
X166062140Y-60960941D01*
X166091000Y-61106032D01*
X166091000Y-61253968D01*
X166062140Y-61399059D01*
X166017955Y-61505732D01*
X166005528Y-61535732D01*
X165923340Y-61658735D01*
X165818735Y-61763340D01*
X165695732Y-61845528D01*
X165695731Y-61845529D01*
X165695730Y-61845529D01*
X165559059Y-61902140D01*
X165413968Y-61931000D01*
X165266032Y-61931000D01*
X165120941Y-61902140D01*
X164984270Y-61845529D01*
X164984269Y-61845529D01*
X164984268Y-61845528D01*
X164861265Y-61763340D01*
X164756660Y-61658735D01*
X164674472Y-61535732D01*
X164662046Y-61505732D01*
X164617860Y-61399059D01*
X164589000Y-61253968D01*
X164589000Y-61106032D01*
X164617860Y-60960941D01*
X164674471Y-60824270D01*
X164678463Y-60818295D01*
X164756660Y-60701265D01*
X164861265Y-60596660D01*
X164984268Y-60514472D01*
X165024373Y-60497860D01*
X165120941Y-60457860D01*
X165266032Y-60429000D01*
X165413968Y-60429000D01*
X165559059Y-60457860D01*
G37*
G36*
X169479059Y-60457860D02*
G01*
X169575628Y-60497860D01*
X169615732Y-60514472D01*
X169738735Y-60596660D01*
X169843340Y-60701265D01*
X169921537Y-60818295D01*
X169925529Y-60824270D01*
X169982140Y-60960941D01*
X170011000Y-61106032D01*
X170011000Y-61253968D01*
X169982140Y-61399059D01*
X169937955Y-61505732D01*
X169925528Y-61535732D01*
X169843340Y-61658735D01*
X169738735Y-61763340D01*
X169615732Y-61845528D01*
X169615731Y-61845529D01*
X169615730Y-61845529D01*
X169479059Y-61902140D01*
X169333968Y-61931000D01*
X169186032Y-61931000D01*
X169040941Y-61902140D01*
X168904270Y-61845529D01*
X168904269Y-61845529D01*
X168904268Y-61845528D01*
X168781265Y-61763340D01*
X168676660Y-61658735D01*
X168594472Y-61535732D01*
X168582046Y-61505732D01*
X168537860Y-61399059D01*
X168509000Y-61253968D01*
X168509000Y-61106032D01*
X168537860Y-60960941D01*
X168594471Y-60824270D01*
X168598463Y-60818295D01*
X168676660Y-60701265D01*
X168781265Y-60596660D01*
X168904268Y-60514472D01*
X168944373Y-60497860D01*
X169040941Y-60457860D01*
X169186032Y-60429000D01*
X169333968Y-60429000D01*
X169479059Y-60457860D01*
G37*
G36*
X177099059Y-60457860D02*
G01*
X177195628Y-60497860D01*
X177235732Y-60514472D01*
X177358735Y-60596660D01*
X177463340Y-60701265D01*
X177541537Y-60818295D01*
X177545529Y-60824270D01*
X177602140Y-60960941D01*
X177631000Y-61106032D01*
X177631000Y-61253968D01*
X177602140Y-61399059D01*
X177557955Y-61505732D01*
X177545528Y-61535732D01*
X177463340Y-61658735D01*
X177358735Y-61763340D01*
X177235732Y-61845528D01*
X177235731Y-61845529D01*
X177235730Y-61845529D01*
X177099059Y-61902140D01*
X176953968Y-61931000D01*
X176806032Y-61931000D01*
X176660941Y-61902140D01*
X176524270Y-61845529D01*
X176524269Y-61845529D01*
X176524268Y-61845528D01*
X176401265Y-61763340D01*
X176296660Y-61658735D01*
X176214472Y-61535732D01*
X176202046Y-61505732D01*
X176157860Y-61399059D01*
X176129000Y-61253968D01*
X176129000Y-61106032D01*
X176157860Y-60960941D01*
X176214471Y-60824270D01*
X176218463Y-60818295D01*
X176296660Y-60701265D01*
X176401265Y-60596660D01*
X176524268Y-60514472D01*
X176564373Y-60497860D01*
X176660941Y-60457860D01*
X176806032Y-60429000D01*
X176953968Y-60429000D01*
X177099059Y-60457860D01*
G37*
G36*
X146829059Y-60427860D02*
G01*
X146928380Y-60469000D01*
X146965732Y-60484472D01*
X147088735Y-60566660D01*
X147193340Y-60671265D01*
X147253476Y-60761265D01*
X147275529Y-60794270D01*
X147332140Y-60930941D01*
X147361000Y-61076032D01*
X147361000Y-61223968D01*
X147347076Y-61293968D01*
X147332140Y-61369059D01*
X147275528Y-61505732D01*
X147193340Y-61628735D01*
X147088735Y-61733340D01*
X146965732Y-61815528D01*
X146965731Y-61815529D01*
X146965730Y-61815529D01*
X146829059Y-61872140D01*
X146683968Y-61901000D01*
X146536032Y-61901000D01*
X146390941Y-61872140D01*
X146254270Y-61815529D01*
X146254269Y-61815529D01*
X146254268Y-61815528D01*
X146131265Y-61733340D01*
X146026660Y-61628735D01*
X145944472Y-61505732D01*
X145887860Y-61369059D01*
X145872924Y-61293968D01*
X145859000Y-61223968D01*
X145859000Y-61076032D01*
X145887860Y-60930941D01*
X145944471Y-60794270D01*
X145966524Y-60761265D01*
X146026660Y-60671265D01*
X146131265Y-60566660D01*
X146254268Y-60484472D01*
X146291621Y-60469000D01*
X146390941Y-60427860D01*
X146536032Y-60399000D01*
X146683968Y-60399000D01*
X146829059Y-60427860D01*
G37*
G36*
X154449059Y-60427860D02*
G01*
X154548380Y-60469000D01*
X154585732Y-60484472D01*
X154708735Y-60566660D01*
X154813340Y-60671265D01*
X154873476Y-60761265D01*
X154895529Y-60794270D01*
X154952140Y-60930941D01*
X154981000Y-61076032D01*
X154981000Y-61223968D01*
X154967076Y-61293968D01*
X154952140Y-61369059D01*
X154895528Y-61505732D01*
X154813340Y-61628735D01*
X154708735Y-61733340D01*
X154585732Y-61815528D01*
X154585731Y-61815529D01*
X154585730Y-61815529D01*
X154449059Y-61872140D01*
X154303968Y-61901000D01*
X154156032Y-61901000D01*
X154010941Y-61872140D01*
X153874270Y-61815529D01*
X153874269Y-61815529D01*
X153874268Y-61815528D01*
X153751265Y-61733340D01*
X153646660Y-61628735D01*
X153564472Y-61505732D01*
X153507860Y-61369059D01*
X153492924Y-61293968D01*
X153479000Y-61223968D01*
X153479000Y-61076032D01*
X153507860Y-60930941D01*
X153564471Y-60794270D01*
X153586524Y-60761265D01*
X153646660Y-60671265D01*
X153751265Y-60566660D01*
X153874268Y-60484472D01*
X153911621Y-60469000D01*
X154010941Y-60427860D01*
X154156032Y-60399000D01*
X154303968Y-60399000D01*
X154449059Y-60427860D01*
G37*
G36*
X189479059Y-60167860D02*
G01*
X189615732Y-60224472D01*
X189738735Y-60306660D01*
X189843340Y-60411265D01*
X189925528Y-60534268D01*
X189925529Y-60534270D01*
X189982140Y-60670941D01*
X190011000Y-60816032D01*
X190011000Y-60963968D01*
X189982140Y-61109059D01*
X189934544Y-61223967D01*
X189925528Y-61245732D01*
X189843340Y-61368735D01*
X189738735Y-61473340D01*
X189615732Y-61555528D01*
X189615731Y-61555529D01*
X189615730Y-61555529D01*
X189479059Y-61612140D01*
X189333968Y-61641000D01*
X189186032Y-61641000D01*
X189040941Y-61612140D01*
X188904270Y-61555529D01*
X188904269Y-61555529D01*
X188904268Y-61555528D01*
X188781265Y-61473340D01*
X188676660Y-61368735D01*
X188594472Y-61245732D01*
X188585457Y-61223967D01*
X188537860Y-61109059D01*
X188509000Y-60963968D01*
X188509000Y-60816032D01*
X188537860Y-60670941D01*
X188594471Y-60534270D01*
X188594472Y-60534268D01*
X188676660Y-60411265D01*
X188781265Y-60306660D01*
X188904268Y-60224472D01*
X189040941Y-60167860D01*
X189186032Y-60139000D01*
X189333968Y-60139000D01*
X189479059Y-60167860D01*
G37*
G36*
X181859059Y-60167860D02*
G01*
X181995732Y-60224472D01*
X182118735Y-60306660D01*
X182223340Y-60411265D01*
X182305528Y-60534268D01*
X182305529Y-60534270D01*
X182362140Y-60670941D01*
X182391000Y-60816032D01*
X182391000Y-60963968D01*
X182362140Y-61109059D01*
X182314544Y-61223967D01*
X182305528Y-61245732D01*
X182223340Y-61368735D01*
X182118735Y-61473340D01*
X181995732Y-61555528D01*
X181995731Y-61555529D01*
X181995730Y-61555529D01*
X181859059Y-61612140D01*
X181713968Y-61641000D01*
X181566032Y-61641000D01*
X181420941Y-61612140D01*
X181284270Y-61555529D01*
X181284269Y-61555529D01*
X181284268Y-61555528D01*
X181161265Y-61473340D01*
X181056660Y-61368735D01*
X180974472Y-61245732D01*
X180965457Y-61223967D01*
X180917860Y-61109059D01*
X180889000Y-60963968D01*
X180889000Y-60816032D01*
X180917860Y-60670941D01*
X180974471Y-60534270D01*
X180974472Y-60534268D01*
X181056660Y-60411265D01*
X181161265Y-60306660D01*
X181284268Y-60224472D01*
X181420941Y-60167860D01*
X181566032Y-60139000D01*
X181713968Y-60139000D01*
X181859059Y-60167860D01*
G37*
G36*
X196948228Y-59181703D02*
G01*
X197103100Y-59245853D01*
X197242481Y-59338985D01*
X197361015Y-59457519D01*
X197454147Y-59596900D01*
X197518297Y-59751772D01*
X197551000Y-59916184D01*
X197551000Y-60083816D01*
X197518297Y-60248228D01*
X197454147Y-60403100D01*
X197361015Y-60542481D01*
X197242481Y-60661015D01*
X197103100Y-60754147D01*
X196948228Y-60818297D01*
X196783816Y-60851000D01*
X196616184Y-60851000D01*
X196451772Y-60818297D01*
X196296900Y-60754147D01*
X196157519Y-60661015D01*
X196038985Y-60542481D01*
X195945853Y-60403100D01*
X195881703Y-60248228D01*
X195849000Y-60083816D01*
X195849000Y-59916184D01*
X195881703Y-59751772D01*
X195945853Y-59596900D01*
X196038985Y-59457519D01*
X196157519Y-59338985D01*
X196296900Y-59245853D01*
X196451772Y-59181703D01*
X196616184Y-59149000D01*
X196783816Y-59149000D01*
X196948228Y-59181703D01*
G37*
G36*
X122408228Y-55950703D02*
G01*
X122563100Y-56014853D01*
X122702481Y-56107985D01*
X122821015Y-56226519D01*
X122914147Y-56365900D01*
X122978297Y-56520772D01*
X123011000Y-56685184D01*
X123011000Y-56852816D01*
X122978297Y-57017228D01*
X122914147Y-57172100D01*
X122821015Y-57311481D01*
X122702481Y-57430015D01*
X122563100Y-57523147D01*
X122408228Y-57587297D01*
X122243816Y-57620000D01*
X122076184Y-57620000D01*
X121911772Y-57587297D01*
X121756900Y-57523147D01*
X121617519Y-57430015D01*
X121498985Y-57311481D01*
X121405853Y-57172100D01*
X121341703Y-57017228D01*
X121309000Y-56852816D01*
X121309000Y-56685184D01*
X121341703Y-56520772D01*
X121405853Y-56365900D01*
X121498985Y-56226519D01*
X121617519Y-56107985D01*
X121756900Y-56014853D01*
X121911772Y-55950703D01*
X122076184Y-55918000D01*
X122243816Y-55918000D01*
X122408228Y-55950703D01*
G37*
G36*
X120511000Y-57620000D02*
G01*
X118809000Y-57620000D01*
X118809000Y-55918000D01*
X120511000Y-55918000D01*
X120511000Y-57620000D01*
G37*
G36*
X115778228Y-55950703D02*
G01*
X115933100Y-56014853D01*
X116072481Y-56107985D01*
X116191015Y-56226519D01*
X116284147Y-56365900D01*
X116348297Y-56520772D01*
X116381000Y-56685184D01*
X116381000Y-56852816D01*
X116348297Y-57017228D01*
X116284147Y-57172100D01*
X116191015Y-57311481D01*
X116072481Y-57430015D01*
X115933100Y-57523147D01*
X115778228Y-57587297D01*
X115613816Y-57620000D01*
X115446184Y-57620000D01*
X115281772Y-57587297D01*
X115126900Y-57523147D01*
X114987519Y-57430015D01*
X114868985Y-57311481D01*
X114775853Y-57172100D01*
X114711703Y-57017228D01*
X114679000Y-56852816D01*
X114679000Y-56685184D01*
X114711703Y-56520772D01*
X114775853Y-56365900D01*
X114868985Y-56226519D01*
X114987519Y-56107985D01*
X115126900Y-56014853D01*
X115281772Y-55950703D01*
X115446184Y-55918000D01*
X115613816Y-55918000D01*
X115778228Y-55950703D01*
G37*
G36*
X113881000Y-57620000D02*
G01*
X112179000Y-57620000D01*
X112179000Y-55918000D01*
X113881000Y-55918000D01*
X113881000Y-57620000D01*
G37*
G36*
X179408228Y-54371703D02*
G01*
X179563100Y-54435853D01*
X179702481Y-54528985D01*
X179821015Y-54647519D01*
X179914147Y-54786900D01*
X179978297Y-54941772D01*
X180011000Y-55106184D01*
X180011000Y-55273816D01*
X179978297Y-55438228D01*
X179914147Y-55593100D01*
X179821015Y-55732481D01*
X179702481Y-55851015D01*
X179563100Y-55944147D01*
X179408228Y-56008297D01*
X179243816Y-56041000D01*
X179076184Y-56041000D01*
X178911772Y-56008297D01*
X178756900Y-55944147D01*
X178617519Y-55851015D01*
X178498985Y-55732481D01*
X178405853Y-55593100D01*
X178341703Y-55438228D01*
X178309000Y-55273816D01*
X178309000Y-55106184D01*
X178341703Y-54941772D01*
X178405853Y-54786900D01*
X178498985Y-54647519D01*
X178617519Y-54528985D01*
X178756900Y-54435853D01*
X178911772Y-54371703D01*
X179076184Y-54339000D01*
X179243816Y-54339000D01*
X179408228Y-54371703D01*
G37*
G36*
X184408228Y-54371703D02*
G01*
X184563100Y-54435853D01*
X184702481Y-54528985D01*
X184821015Y-54647519D01*
X184914147Y-54786900D01*
X184978297Y-54941772D01*
X185011000Y-55106184D01*
X185011000Y-55273816D01*
X184978297Y-55438228D01*
X184914147Y-55593100D01*
X184821015Y-55732481D01*
X184702481Y-55851015D01*
X184563100Y-55944147D01*
X184408228Y-56008297D01*
X184243816Y-56041000D01*
X184076184Y-56041000D01*
X183911772Y-56008297D01*
X183756900Y-55944147D01*
X183617519Y-55851015D01*
X183498985Y-55732481D01*
X183405853Y-55593100D01*
X183341703Y-55438228D01*
X183309000Y-55273816D01*
X183309000Y-55106184D01*
X183341703Y-54941772D01*
X183405853Y-54786900D01*
X183498985Y-54647519D01*
X183617519Y-54528985D01*
X183756900Y-54435853D01*
X183911772Y-54371703D01*
X184076184Y-54339000D01*
X184243816Y-54339000D01*
X184408228Y-54371703D01*
G37*
G36*
X187328228Y-54361703D02*
G01*
X187483100Y-54425853D01*
X187622481Y-54518985D01*
X187741015Y-54637519D01*
X187834147Y-54776900D01*
X187898297Y-54931772D01*
X187931000Y-55096184D01*
X187931000Y-55263816D01*
X187898297Y-55428228D01*
X187834147Y-55583100D01*
X187741015Y-55722481D01*
X187622481Y-55841015D01*
X187483100Y-55934147D01*
X187328228Y-55998297D01*
X187163816Y-56031000D01*
X186996184Y-56031000D01*
X186831772Y-55998297D01*
X186676900Y-55934147D01*
X186537519Y-55841015D01*
X186418985Y-55722481D01*
X186325853Y-55583100D01*
X186261703Y-55428228D01*
X186229000Y-55263816D01*
X186229000Y-55096184D01*
X186261703Y-54931772D01*
X186325853Y-54776900D01*
X186418985Y-54637519D01*
X186537519Y-54518985D01*
X186676900Y-54425853D01*
X186831772Y-54361703D01*
X186996184Y-54329000D01*
X187163816Y-54329000D01*
X187328228Y-54361703D01*
G37*
G36*
X192328228Y-54361703D02*
G01*
X192483100Y-54425853D01*
X192622481Y-54518985D01*
X192741015Y-54637519D01*
X192834147Y-54776900D01*
X192898297Y-54931772D01*
X192931000Y-55096184D01*
X192931000Y-55263816D01*
X192898297Y-55428228D01*
X192834147Y-55583100D01*
X192741015Y-55722481D01*
X192622481Y-55841015D01*
X192483100Y-55934147D01*
X192328228Y-55998297D01*
X192163816Y-56031000D01*
X191996184Y-56031000D01*
X191831772Y-55998297D01*
X191676900Y-55934147D01*
X191537519Y-55841015D01*
X191418985Y-55722481D01*
X191325853Y-55583100D01*
X191261703Y-55428228D01*
X191229000Y-55263816D01*
X191229000Y-55096184D01*
X191261703Y-54931772D01*
X191325853Y-54776900D01*
X191418985Y-54637519D01*
X191537519Y-54518985D01*
X191676900Y-54425853D01*
X191831772Y-54361703D01*
X191996184Y-54329000D01*
X192163816Y-54329000D01*
X192328228Y-54361703D01*
G37*
G36*
X168748228Y-54361703D02*
G01*
X168903100Y-54425853D01*
X169042481Y-54518985D01*
X169161015Y-54637519D01*
X169254147Y-54776900D01*
X169318297Y-54931772D01*
X169351000Y-55096184D01*
X169351000Y-55263816D01*
X169318297Y-55428228D01*
X169254147Y-55583100D01*
X169161015Y-55722481D01*
X169042481Y-55841015D01*
X168903100Y-55934147D01*
X168748228Y-55998297D01*
X168583816Y-56031000D01*
X168416184Y-56031000D01*
X168251772Y-55998297D01*
X168096900Y-55934147D01*
X167957519Y-55841015D01*
X167838985Y-55722481D01*
X167745853Y-55583100D01*
X167681703Y-55428228D01*
X167649000Y-55263816D01*
X167649000Y-55096184D01*
X167681703Y-54931772D01*
X167745853Y-54776900D01*
X167838985Y-54637519D01*
X167957519Y-54518985D01*
X168096900Y-54425853D01*
X168251772Y-54361703D01*
X168416184Y-54329000D01*
X168583816Y-54329000D01*
X168748228Y-54361703D01*
G37*
G36*
X163748228Y-54361703D02*
G01*
X163903100Y-54425853D01*
X164042481Y-54518985D01*
X164161015Y-54637519D01*
X164254147Y-54776900D01*
X164318297Y-54931772D01*
X164351000Y-55096184D01*
X164351000Y-55263816D01*
X164318297Y-55428228D01*
X164254147Y-55583100D01*
X164161015Y-55722481D01*
X164042481Y-55841015D01*
X163903100Y-55934147D01*
X163748228Y-55998297D01*
X163583816Y-56031000D01*
X163416184Y-56031000D01*
X163251772Y-55998297D01*
X163096900Y-55934147D01*
X162957519Y-55841015D01*
X162838985Y-55722481D01*
X162745853Y-55583100D01*
X162681703Y-55428228D01*
X162649000Y-55263816D01*
X162649000Y-55096184D01*
X162681703Y-54931772D01*
X162745853Y-54776900D01*
X162838985Y-54637519D01*
X162957519Y-54518985D01*
X163096900Y-54425853D01*
X163251772Y-54361703D01*
X163416184Y-54329000D01*
X163583816Y-54329000D01*
X163748228Y-54361703D01*
G37*
G36*
X160928228Y-54351703D02*
G01*
X161083100Y-54415853D01*
X161222481Y-54508985D01*
X161341015Y-54627519D01*
X161434147Y-54766900D01*
X161498297Y-54921772D01*
X161531000Y-55086184D01*
X161531000Y-55253816D01*
X161498297Y-55418228D01*
X161434147Y-55573100D01*
X161341015Y-55712481D01*
X161222481Y-55831015D01*
X161083100Y-55924147D01*
X160928228Y-55988297D01*
X160763816Y-56021000D01*
X160596184Y-56021000D01*
X160431772Y-55988297D01*
X160276900Y-55924147D01*
X160137519Y-55831015D01*
X160018985Y-55712481D01*
X159925853Y-55573100D01*
X159861703Y-55418228D01*
X159829000Y-55253816D01*
X159829000Y-55086184D01*
X159861703Y-54921772D01*
X159925853Y-54766900D01*
X160018985Y-54627519D01*
X160137519Y-54508985D01*
X160276900Y-54415853D01*
X160431772Y-54351703D01*
X160596184Y-54319000D01*
X160763816Y-54319000D01*
X160928228Y-54351703D01*
G37*
G36*
X155928228Y-54351703D02*
G01*
X156083100Y-54415853D01*
X156222481Y-54508985D01*
X156341015Y-54627519D01*
X156434147Y-54766900D01*
X156498297Y-54921772D01*
X156531000Y-55086184D01*
X156531000Y-55253816D01*
X156498297Y-55418228D01*
X156434147Y-55573100D01*
X156341015Y-55712481D01*
X156222481Y-55831015D01*
X156083100Y-55924147D01*
X155928228Y-55988297D01*
X155763816Y-56021000D01*
X155596184Y-56021000D01*
X155431772Y-55988297D01*
X155276900Y-55924147D01*
X155137519Y-55831015D01*
X155018985Y-55712481D01*
X154925853Y-55573100D01*
X154861703Y-55418228D01*
X154829000Y-55253816D01*
X154829000Y-55086184D01*
X154861703Y-54921772D01*
X154925853Y-54766900D01*
X155018985Y-54627519D01*
X155137519Y-54508985D01*
X155276900Y-54415853D01*
X155431772Y-54351703D01*
X155596184Y-54319000D01*
X155763816Y-54319000D01*
X155928228Y-54351703D01*
G37*
G36*
X153038228Y-54351703D02*
G01*
X153193100Y-54415853D01*
X153332481Y-54508985D01*
X153451015Y-54627519D01*
X153544147Y-54766900D01*
X153608297Y-54921772D01*
X153641000Y-55086184D01*
X153641000Y-55253816D01*
X153608297Y-55418228D01*
X153544147Y-55573100D01*
X153451015Y-55712481D01*
X153332481Y-55831015D01*
X153193100Y-55924147D01*
X153038228Y-55988297D01*
X152873816Y-56021000D01*
X152706184Y-56021000D01*
X152541772Y-55988297D01*
X152386900Y-55924147D01*
X152247519Y-55831015D01*
X152128985Y-55712481D01*
X152035853Y-55573100D01*
X151971703Y-55418228D01*
X151939000Y-55253816D01*
X151939000Y-55086184D01*
X151971703Y-54921772D01*
X152035853Y-54766900D01*
X152128985Y-54627519D01*
X152247519Y-54508985D01*
X152386900Y-54415853D01*
X152541772Y-54351703D01*
X152706184Y-54319000D01*
X152873816Y-54319000D01*
X153038228Y-54351703D01*
G37*
G36*
X148038228Y-54351703D02*
G01*
X148193100Y-54415853D01*
X148332481Y-54508985D01*
X148451015Y-54627519D01*
X148544147Y-54766900D01*
X148608297Y-54921772D01*
X148641000Y-55086184D01*
X148641000Y-55253816D01*
X148608297Y-55418228D01*
X148544147Y-55573100D01*
X148451015Y-55712481D01*
X148332481Y-55831015D01*
X148193100Y-55924147D01*
X148038228Y-55988297D01*
X147873816Y-56021000D01*
X147706184Y-56021000D01*
X147541772Y-55988297D01*
X147386900Y-55924147D01*
X147247519Y-55831015D01*
X147128985Y-55712481D01*
X147035853Y-55573100D01*
X146971703Y-55418228D01*
X146939000Y-55253816D01*
X146939000Y-55086184D01*
X146971703Y-54921772D01*
X147035853Y-54766900D01*
X147128985Y-54627519D01*
X147247519Y-54508985D01*
X147386900Y-54415853D01*
X147541772Y-54351703D01*
X147706184Y-54319000D01*
X147873816Y-54319000D01*
X148038228Y-54351703D01*
G37*
G36*
X171588228Y-54351703D02*
G01*
X171743100Y-54415853D01*
X171882481Y-54508985D01*
X172001015Y-54627519D01*
X172094147Y-54766900D01*
X172158297Y-54921772D01*
X172191000Y-55086184D01*
X172191000Y-55253816D01*
X172158297Y-55418228D01*
X172094147Y-55573100D01*
X172001015Y-55712481D01*
X171882481Y-55831015D01*
X171743100Y-55924147D01*
X171588228Y-55988297D01*
X171423816Y-56021000D01*
X171256184Y-56021000D01*
X171091772Y-55988297D01*
X170936900Y-55924147D01*
X170797519Y-55831015D01*
X170678985Y-55712481D01*
X170585853Y-55573100D01*
X170521703Y-55418228D01*
X170489000Y-55253816D01*
X170489000Y-55086184D01*
X170521703Y-54921772D01*
X170585853Y-54766900D01*
X170678985Y-54627519D01*
X170797519Y-54508985D01*
X170936900Y-54415853D01*
X171091772Y-54351703D01*
X171256184Y-54319000D01*
X171423816Y-54319000D01*
X171588228Y-54351703D01*
G37*
G36*
X176588228Y-54351703D02*
G01*
X176743100Y-54415853D01*
X176882481Y-54508985D01*
X177001015Y-54627519D01*
X177094147Y-54766900D01*
X177158297Y-54921772D01*
X177191000Y-55086184D01*
X177191000Y-55253816D01*
X177158297Y-55418228D01*
X177094147Y-55573100D01*
X177001015Y-55712481D01*
X176882481Y-55831015D01*
X176743100Y-55924147D01*
X176588228Y-55988297D01*
X176423816Y-56021000D01*
X176256184Y-56021000D01*
X176091772Y-55988297D01*
X175936900Y-55924147D01*
X175797519Y-55831015D01*
X175678985Y-55712481D01*
X175585853Y-55573100D01*
X175521703Y-55418228D01*
X175489000Y-55253816D01*
X175489000Y-55086184D01*
X175521703Y-54921772D01*
X175585853Y-54766900D01*
X175678985Y-54627519D01*
X175797519Y-54508985D01*
X175936900Y-54415853D01*
X176091772Y-54351703D01*
X176256184Y-54319000D01*
X176423816Y-54319000D01*
X176588228Y-54351703D01*
G37*
G36*
X106500256Y-50241298D02*
G01*
X106606579Y-50262447D01*
X106907042Y-50386903D01*
X107177451Y-50567585D01*
X107407415Y-50797549D01*
X107588097Y-51067958D01*
X107702198Y-51343421D01*
X107712553Y-51368422D01*
X107776000Y-51687389D01*
X107776000Y-52012611D01*
X107733702Y-52225256D01*
X107712553Y-52331579D01*
X107643817Y-52497522D01*
X107611313Y-52575995D01*
X107588097Y-52632042D01*
X107407415Y-52902451D01*
X107177451Y-53132415D01*
X106907042Y-53313097D01*
X106606579Y-53437553D01*
X106500256Y-53458702D01*
X106287611Y-53501000D01*
X105962389Y-53501000D01*
X105749744Y-53458702D01*
X105643421Y-53437553D01*
X105342958Y-53313097D01*
X105072549Y-53132415D01*
X104842585Y-52902451D01*
X104661903Y-52632042D01*
X104638688Y-52575995D01*
X104606183Y-52497522D01*
X104537447Y-52331579D01*
X104516298Y-52225256D01*
X104474000Y-52012611D01*
X104474000Y-51687389D01*
X104537447Y-51368422D01*
X104547803Y-51343421D01*
X104661903Y-51067958D01*
X104842585Y-50797549D01*
X105072549Y-50567585D01*
X105342958Y-50386903D01*
X105643421Y-50262447D01*
X105749744Y-50241298D01*
X105962389Y-50199000D01*
X106287611Y-50199000D01*
X106500256Y-50241298D01*
G37*
G36*
X132727395Y-51610546D02*
G01*
X132900466Y-51682234D01*
X132900467Y-51682235D01*
X133056227Y-51786310D01*
X133188690Y-51918773D01*
X133234686Y-51987611D01*
X133292766Y-52074534D01*
X133364454Y-52247605D01*
X133401000Y-52431333D01*
X133401000Y-52618667D01*
X133364454Y-52802395D01*
X133292766Y-52975466D01*
X133292765Y-52975467D01*
X133188690Y-53131227D01*
X133056227Y-53263690D01*
X132982284Y-53313097D01*
X132900466Y-53367766D01*
X132727395Y-53439454D01*
X132543667Y-53476000D01*
X132356333Y-53476000D01*
X132172605Y-53439454D01*
X131999534Y-53367766D01*
X131917716Y-53313097D01*
X131843773Y-53263690D01*
X131711310Y-53131227D01*
X131607235Y-52975467D01*
X131607234Y-52975466D01*
X131535546Y-52802395D01*
X131499000Y-52618667D01*
X131499000Y-52431333D01*
X131535546Y-52247605D01*
X131607234Y-52074534D01*
X131665314Y-51987611D01*
X131711310Y-51918773D01*
X131843773Y-51786310D01*
X131999533Y-51682235D01*
X131999534Y-51682234D01*
X132172605Y-51610546D01*
X132356333Y-51574000D01*
X132543667Y-51574000D01*
X132727395Y-51610546D01*
G37*
G36*
X198113293Y-50199000D02*
G01*
X198306579Y-50237447D01*
X198607042Y-50361903D01*
X198877451Y-50542585D01*
X199107415Y-50772549D01*
X199288097Y-51042958D01*
X199382701Y-51271351D01*
X199412553Y-51343422D01*
X199476000Y-51662389D01*
X199476000Y-51987611D01*
X199471027Y-52012611D01*
X199412553Y-52306579D01*
X199288097Y-52607042D01*
X199107415Y-52877451D01*
X198877451Y-53107415D01*
X198607042Y-53288097D01*
X198306579Y-53412553D01*
X198200256Y-53433702D01*
X197987611Y-53476000D01*
X197662389Y-53476000D01*
X197449744Y-53433702D01*
X197343421Y-53412553D01*
X197042958Y-53288097D01*
X196772549Y-53107415D01*
X196542585Y-52877451D01*
X196361903Y-52607042D01*
X196237447Y-52306579D01*
X196178973Y-52012611D01*
X196174000Y-51987611D01*
X196174000Y-51662389D01*
X196237447Y-51343422D01*
X196267300Y-51271351D01*
X196361903Y-51042958D01*
X196542585Y-50772549D01*
X196772549Y-50542585D01*
X197042958Y-50361903D01*
X197343421Y-50237447D01*
X197536707Y-50199000D01*
X197662389Y-50174000D01*
X197987611Y-50174000D01*
X198113293Y-50199000D01*
G37*
G36*
X143401000Y-53476000D02*
G01*
X141499000Y-53476000D01*
X141499000Y-51574000D01*
X143401000Y-51574000D01*
X143401000Y-53476000D01*
G37*
G36*
X137727395Y-51610546D02*
G01*
X137900466Y-51682234D01*
X137900467Y-51682235D01*
X138056227Y-51786310D01*
X138188690Y-51918773D01*
X138234686Y-51987611D01*
X138292766Y-52074534D01*
X138364454Y-52247605D01*
X138401000Y-52431333D01*
X138401000Y-52618667D01*
X138364454Y-52802395D01*
X138292766Y-52975466D01*
X138292765Y-52975467D01*
X138188690Y-53131227D01*
X138056227Y-53263690D01*
X137982284Y-53313097D01*
X137900466Y-53367766D01*
X137727395Y-53439454D01*
X137543667Y-53476000D01*
X137356333Y-53476000D01*
X137172605Y-53439454D01*
X136999534Y-53367766D01*
X136917716Y-53313097D01*
X136843773Y-53263690D01*
X136711310Y-53131227D01*
X136607235Y-52975467D01*
X136607234Y-52975466D01*
X136535546Y-52802395D01*
X136499000Y-52618667D01*
X136499000Y-52431333D01*
X136535546Y-52247605D01*
X136607234Y-52074534D01*
X136665314Y-51987611D01*
X136711310Y-51918773D01*
X136843773Y-51786310D01*
X136999533Y-51682235D01*
X136999534Y-51682234D01*
X137172605Y-51610546D01*
X137356333Y-51574000D01*
X137543667Y-51574000D01*
X137727395Y-51610546D01*
G37*
G36*
X127727395Y-51610546D02*
G01*
X127900466Y-51682234D01*
X127900467Y-51682235D01*
X128056227Y-51786310D01*
X128188690Y-51918773D01*
X128234686Y-51987611D01*
X128292766Y-52074534D01*
X128364454Y-52247605D01*
X128401000Y-52431333D01*
X128401000Y-52618667D01*
X128364454Y-52802395D01*
X128292766Y-52975466D01*
X128292765Y-52975467D01*
X128188690Y-53131227D01*
X128056227Y-53263690D01*
X127982284Y-53313097D01*
X127900466Y-53367766D01*
X127727395Y-53439454D01*
X127543667Y-53476000D01*
X127356333Y-53476000D01*
X127172605Y-53439454D01*
X126999534Y-53367766D01*
X126917716Y-53313097D01*
X126843773Y-53263690D01*
X126711310Y-53131227D01*
X126607235Y-52975467D01*
X126607234Y-52975466D01*
X126535546Y-52802395D01*
X126499000Y-52618667D01*
X126499000Y-52431333D01*
X126535546Y-52247605D01*
X126607234Y-52074534D01*
X126665314Y-51987611D01*
X126711310Y-51918773D01*
X126843773Y-51786310D01*
X126999533Y-51682235D01*
X126999534Y-51682234D01*
X127172605Y-51610546D01*
X127356333Y-51574000D01*
X127543667Y-51574000D01*
X127727395Y-51610546D01*
G37*
G36*
X120203647Y-50574004D02*
G01*
X120393097Y-50652477D01*
X120393098Y-50652478D01*
X120563599Y-50766402D01*
X120708598Y-50911401D01*
X120784720Y-51025326D01*
X120822523Y-51081903D01*
X120900996Y-51271353D01*
X120941000Y-51472469D01*
X120941000Y-51677531D01*
X120900996Y-51878647D01*
X120822523Y-52068097D01*
X120818222Y-52074534D01*
X120708598Y-52238599D01*
X120563599Y-52383598D01*
X120449674Y-52459719D01*
X120393097Y-52497523D01*
X120203647Y-52575996D01*
X120002531Y-52616000D01*
X119797469Y-52616000D01*
X119596353Y-52575996D01*
X119406903Y-52497523D01*
X119350326Y-52459719D01*
X119236401Y-52383598D01*
X119091402Y-52238599D01*
X118981778Y-52074534D01*
X118977477Y-52068097D01*
X118899004Y-51878647D01*
X118859000Y-51677531D01*
X118859000Y-51472469D01*
X118899004Y-51271353D01*
X118977477Y-51081903D01*
X119015280Y-51025326D01*
X119091402Y-50911401D01*
X119236401Y-50766402D01*
X119406902Y-50652478D01*
X119406903Y-50652477D01*
X119596353Y-50574004D01*
X119797469Y-50534000D01*
X120002531Y-50534000D01*
X120203647Y-50574004D01*
G37*
G36*
X117503647Y-50574004D02*
G01*
X117693097Y-50652477D01*
X117693098Y-50652478D01*
X117863599Y-50766402D01*
X118008598Y-50911401D01*
X118084720Y-51025326D01*
X118122523Y-51081903D01*
X118200996Y-51271353D01*
X118241000Y-51472469D01*
X118241000Y-51677531D01*
X118200996Y-51878647D01*
X118122523Y-52068097D01*
X118118222Y-52074534D01*
X118008598Y-52238599D01*
X117863599Y-52383598D01*
X117749674Y-52459719D01*
X117693097Y-52497523D01*
X117503647Y-52575996D01*
X117302531Y-52616000D01*
X117097469Y-52616000D01*
X116896353Y-52575996D01*
X116706903Y-52497523D01*
X116650326Y-52459719D01*
X116536401Y-52383598D01*
X116391402Y-52238599D01*
X116281778Y-52074534D01*
X116277477Y-52068097D01*
X116199004Y-51878647D01*
X116159000Y-51677531D01*
X116159000Y-51472469D01*
X116199004Y-51271353D01*
X116277477Y-51081903D01*
X116315280Y-51025326D01*
X116391402Y-50911401D01*
X116536401Y-50766402D01*
X116706902Y-50652478D01*
X116706903Y-50652477D01*
X116896353Y-50574004D01*
X117097469Y-50534000D01*
X117302531Y-50534000D01*
X117503647Y-50574004D01*
G37*
G36*
X115541000Y-52616000D02*
G01*
X113459000Y-52616000D01*
X113459000Y-50534000D01*
X115541000Y-50534000D01*
X115541000Y-52616000D01*
G37*
M02*
