M48
; DRILL file {KiCad (5.1.5)-3} date 10/09/2020 17:06:55
; FORMAT={-:-/ absolute / inch / decimal}
; #@! TF.CreationDate,2020-09-10T17:06:55+02:00
; #@! TF.GenerationSoftware,Kicad,Pcbnew,(5.1.5)-3
; #@! TF.FileFunction,Plated,1,2,PTH
FMAT,2
INCH
T1C0.0138
T2C0.0276
T3C0.0315
T4C0.0394
T5C0.0472
T6C0.0520
%
G90
G05
T1
X4.118Y-3.536
X4.271Y-3.002
X4.3Y-3.134
X4.347Y-2.989
X4.365Y-3.384
X4.379Y-3.009
X4.381Y-3.257
X4.407Y-3.143
X4.434Y-3.4047
X4.435Y-3.104
X4.435Y-3.3414
X4.512Y-4.588
X4.533Y-4.652
X4.554Y-4.715
X4.574Y-4.778
X4.594Y-4.841
X4.608Y-3.101
X4.608Y-3.3414
X4.615Y-4.905
X4.636Y-4.967
X4.67Y-3.009
X4.67Y-3.277
X4.671Y-2.91
X4.6907Y-3.143
X4.7655Y-2.9136
X4.7944Y-3.4259
X4.82Y-3.01
X4.835Y-3.39
X4.874Y-2.914
X4.883Y-3.257
X4.9153Y-3.143
X4.936Y-3.109
X4.936Y-3.3414
X5.111Y-3.109
X5.111Y-3.3414
X5.177Y-2.91
X5.177Y-3.01
X5.177Y-3.277
X5.1977Y-3.144
X5.2543Y-2.9138
X5.306Y-3.3904
X5.323Y-3.011
X5.373Y-3.711
X5.381Y-2.914
X5.387Y-3.256
X5.4213Y-3.144
X5.439Y-3.4241
X5.439Y-3.5476
X5.442Y-3.109
X5.442Y-3.3414
X5.616Y-3.109
X5.616Y-3.3414
X5.669Y-4.316
X5.686Y-2.909
X5.686Y-3.012
X5.686Y-3.276
X5.7067Y-3.144
X5.719Y-3.428
X5.7693Y-2.917
X5.796Y-4.378
X5.831Y-3.011
X5.842Y-4.378
X5.843Y-3.3904
X5.884Y-2.917
X5.893Y-3.256
X5.9273Y-3.144
X5.948Y-3.111
X5.948Y-3.3414
X5.949Y-3.411
X5.962Y-3.53
X6.067Y-4.386
X6.102Y-5.503
X6.1055Y-4.5555
X6.1066Y-4.0034
X6.12Y-3.109
X6.12Y-3.3414
X6.123Y-5.595
X6.1311Y-4.84
X6.161Y-4.4123
X6.17Y-4.839
X6.19Y-2.909
X6.191Y-3.014
X6.191Y-3.276
X6.209Y-4.552
X6.209Y-4.839
X6.2117Y-3.143
X6.248Y-4.872
X6.2781Y-2.9146
X6.332Y-3.012
X6.3356Y-4.0034
X6.369Y-3.3904
X6.379Y-2.913
X6.397Y-3.256
X6.414Y-4.058
X6.4303Y-3.144
X6.451Y-3.11
X6.451Y-3.3414
X6.452Y-3.3886
X6.4905Y-4.0285
X6.496Y-4.386
X6.517Y-3.5026
X6.531Y-4.002
X6.531Y-4.481
X6.561Y-4.902
X6.589Y-4.496
X6.589Y-4.84
X6.597Y-4.9233
X6.625Y-3.111
X6.625Y-3.3414
X6.632Y-4.967
X6.693Y-4.552
X6.701Y-2.909
X6.701Y-3.013
X6.701Y-3.276
X6.7217Y-3.144
X6.729Y-4.003
X6.757Y-4.344
X6.786Y-4.4939
X6.7887Y-2.9166
X6.79Y-4.027
X6.837Y-3.012
X6.859Y-3.389
X6.884Y-2.918
X6.884Y-4.356
X6.884Y-4.4939
X6.905Y-3.257
X6.909Y-4.066
X6.9383Y-3.143
X6.959Y-3.107
X6.959Y-3.3414
X6.959Y-3.3886
X6.959Y-3.503
X7.005Y-4.476
X7.061Y-4.841
X7.0615Y-4.5175
X7.077Y-4.9
X7.084Y-5.6425
X7.1261Y-4.9261
X7.133Y-3.109
X7.133Y-3.3414
X7.165Y-4.552
X7.18Y-4.0034
X7.198Y-2.909
X7.2Y-3.013
X7.2Y-3.277
X7.202Y-4.027
X7.2083Y-4.385
X7.2207Y-3.143
X7.229Y-4.353
X7.229Y-4.4939
X7.2915Y-2.9141
X7.309Y-4.027
X7.324Y-3.409
X7.339Y-3.014
X7.356Y-4.357
X7.356Y-4.4939
X7.375Y-4.957
X7.383Y-4.067
X7.392Y-2.915
X7.411Y-3.257
X7.432Y-4.485
X7.4443Y-3.143
X7.465Y-3.108
X7.465Y-3.3414
X7.465Y-3.3886
X7.465Y-3.5476
X7.487Y-5.617
X7.489Y-4.511
X7.5329Y-4.8389
X7.637Y-4.552
X7.639Y-3.106
X7.639Y-3.3414
X7.661Y-4.848
X7.704Y-3.013
X7.704Y-3.276
X7.854Y-4.087
T2
X5.178Y-5.0335
X5.478Y-5.0335
X4.9043Y-2.4102
X5.2043Y-2.4102
X7.1917Y-5.0346
X7.4917Y-5.0346
X5.3077Y-4.8442
X5.6077Y-4.8442
X5.3177Y-2.4102
X5.6177Y-2.4102
X4.747Y-4.58
X4.747Y-4.88
X5.1496Y-4.4898
X5.4496Y-4.4898
X4.9011Y-4.8442
X5.2011Y-4.8442
X4.7425Y-4.4894
X5.0425Y-4.4894
X4.4945Y-2.411
X4.7945Y-2.411
X6.2094Y-2.4087
X6.5094Y-2.4087
X6.6638Y-2.4087
X6.9638Y-2.4087
X5.772Y-2.4075
X6.072Y-2.4075
X7.1512Y-2.3972
X7.4512Y-2.3972
X4.9009Y-4.6957
X5.2009Y-4.6957
X5.974Y-5.0327
X6.274Y-5.0327
X6.7862Y-5.0343
X7.0862Y-5.0343
X5.3072Y-4.6961
X5.6072Y-4.6961
X6.3815Y-5.0335
X6.6815Y-5.0335
X5.5709Y-5.0328
X5.8709Y-5.0328
X7.5921Y-5.0362
X7.8921Y-5.0362
X4.748Y-4.969
X4.748Y-5.269
X5.5815Y-4.4894
X5.8815Y-4.4894
T3
X5.8185Y-2.172
X6.0154Y-2.172
X5.7768Y-2.5551
X5.9736Y-2.5551
X4.9028Y-2.8039
X5.0996Y-2.8039
X6.4811Y-5.1807
X6.678Y-5.1807
X4.4965Y-2.5543
X4.6933Y-2.5543
X4.1719Y-3.6289
X4.1719Y-4.2289
X4.2719Y-3.6289
X4.2719Y-4.2289
X4.3719Y-3.6289
X4.3719Y-4.2289
X4.4719Y-3.6289
X4.4719Y-4.2289
X4.5719Y-3.6289
X4.5719Y-4.2289
X4.6719Y-3.6289
X4.6719Y-4.2289
X4.7719Y-3.6289
X4.7719Y-4.2289
X4.8719Y-3.6289
X4.8719Y-4.2289
X4.9719Y-3.6289
X4.9719Y-4.2289
X5.0719Y-3.6289
X5.0719Y-4.2289
X5.1719Y-3.6289
X5.1719Y-4.2289
X5.2719Y-3.6289
X5.2719Y-4.2289
X5.3719Y-3.6289
X5.3719Y-4.2289
X5.4719Y-3.6289
X5.4719Y-4.2289
X5.5719Y-3.6289
X5.5719Y-4.2289
X7.2902Y-5.1843
X7.487Y-5.1843
X5.6709Y-5.1701
X5.8677Y-5.1701
X5.7776Y-2.8024
X5.9744Y-2.8024
X5.3205Y-2.5551
X5.5173Y-2.5551
X7.1551Y-2.5598
X7.352Y-2.5598
X7.1555Y-2.8067
X7.3524Y-2.8067
X7.3654Y-2.1724
X7.5622Y-2.1724
X6.437Y-2.1724
X6.6339Y-2.1724
X4.9055Y-2.5531
X5.1024Y-2.5531
X4.4961Y-2.8035
X4.6929Y-2.8035
X4.711Y-2.235
X4.8094Y-2.235
X6.6669Y-2.5563
X6.8638Y-2.5563
X6.2189Y-2.5587
X6.4157Y-2.5587
X6.8862Y-5.1835
X7.0831Y-5.1835
X6.1291Y-2.172
X6.326Y-2.172
X6.0744Y-5.1732
X6.2713Y-5.1732
X4.45Y-2.235
X4.5484Y-2.235
X6.6665Y-2.8043
X6.8634Y-2.8043
X6.2201Y-2.8043
X6.4169Y-2.8043
X5.2768Y-5.1547
X5.4736Y-5.1547
X5.3181Y-2.8051
X5.515Y-2.8051
X7.6894Y-5.1843
X7.8862Y-5.1843
X7.0535Y-2.1728
X7.2504Y-2.1728
X6.7457Y-2.172
X6.9425Y-2.172
X7.7441Y-2.3622
X7.7441Y-2.5591
T4
X5.871Y-4.195
X5.871Y-4.295
X4.153Y-2.468
X4.153Y-2.568
X4.1531Y-2.874
X4.1531Y-2.974
X4.1531Y-3.074
X4.1531Y-3.174
X4.1531Y-3.274
X6.2217Y-5.4795
X6.2217Y-5.5795
X6.3217Y-5.4795
X6.3217Y-5.5795
X6.4217Y-5.4795
X6.4217Y-5.5795
X6.5217Y-5.4795
X6.5217Y-5.5795
X6.6217Y-5.4795
X6.6217Y-5.5795
X6.7217Y-5.4795
X6.7217Y-5.5795
X6.8217Y-5.4795
X6.8217Y-5.5795
T5
X5.0177Y-2.0679
X5.2146Y-2.0679
X5.4114Y-2.0679
X5.6083Y-2.0679
T6
X4.5079Y-2.0305
X4.6142Y-2.0305
X4.7205Y-2.0305
T0
M30
